<?xml version="1.0" encoding="UTF-8" standalone="no"?>
<!DOCTYPE svg PUBLIC "-//W3C//DTD SVG 1.1//EN"
 "http://www.w3.org/Graphics/SVG/1.1/DTD/svg11.dtd">
<!-- Generated by graphviz version 2.38.0 (20140413.2041)
 -->
<!-- Title: controllers_diagram Pages: 1 -->
<svg width="788pt" height="868pt"
 viewBox="0.00 0.00 787.50 867.50" xmlns="http://www.w3.org/2000/svg" xmlns:xlink="http://www.w3.org/1999/xlink">
<g id="graph0" class="graph" transform="scale(1 1) rotate(0) translate(364 503.5)">
<title>controllers_diagram</title>
<polygon fill="none" stroke="none" points="-364,364 -364,-503.5 423.5,-503.5 423.5,364 -364,364"/>
<!-- _diagram_info -->
<g id="node1" class="node"><title>_diagram_info</title>
<text text-anchor="start" x="8" y="296.4" font-family="Times,serif" font-size="13.00">Controllers diagram</text>
<text text-anchor="start" x="8" y="310.4" font-family="Times,serif" font-size="13.00">Date: Jul 12 2016 &#45; 19:33</text>
<text text-anchor="start" x="8" y="324.4" font-family="Times,serif" font-size="13.00">Migration version: 20160712171129</text>
<text text-anchor="start" x="8" y="338.4" font-family="Times,serif" font-size="13.00">Generated by RailRoady 1.5.1</text>
<text text-anchor="start" x="8" y="352.4" font-family="Times,serif" font-size="13.00">http://railroady.prestonlee.com</text>
</g>
<!-- LevelsController -->
<g id="node2" class="node"><title>LevelsController</title>
<path fill="none" stroke="black" d="M-348,-361C-348,-361 -264,-361 -264,-361 -258,-361 -252,-367 -252,-373 -252,-373 -252,-487 -252,-487 -252,-493 -258,-499 -264,-499 -264,-499 -348,-499 -348,-499 -354,-499 -360,-493 -360,-487 -360,-487 -360,-373 -360,-373 -360,-367 -354,-361 -348,-361"/>
<text text-anchor="middle" x="-306" y="-483.8" font-family="Times,serif" font-size="14.00">LevelsController</text>
<polyline fill="none" stroke="black" points="-360,-476 -252,-476 "/>
<text text-anchor="start" x="-352" y="-460.8" font-family="Times,serif" font-size="14.00">index</text>
<text text-anchor="start" x="-352" y="-445.8" font-family="Times,serif" font-size="14.00">show</text>
<polyline fill="none" stroke="black" points="-360,-438 -252,-438 "/>
<polyline fill="none" stroke="black" points="-360,-414 -252,-414 "/>
<text text-anchor="start" x="-352" y="-398.8" font-family="Times,serif" font-size="14.00">_layout</text>
<text text-anchor="start" x="-352" y="-383.8" font-family="Times,serif" font-size="14.00">level_params</text>
<text text-anchor="start" x="-352" y="-368.8" font-family="Times,serif" font-size="14.00">set_level</text>
</g>
<!-- CommentsController -->
<g id="node3" class="node"><title>CommentsController</title>
<path fill="none" stroke="black" d="M138,125.5C138,125.5 246,125.5 246,125.5 252,125.5 258,119.5 258,113.5 258,113.5 258,-75.5 258,-75.5 258,-81.5 252,-87.5 246,-87.5 246,-87.5 138,-87.5 138,-87.5 132,-87.5 126,-81.5 126,-75.5 126,-75.5 126,113.5 126,113.5 126,119.5 132,125.5 138,125.5"/>
<text text-anchor="middle" x="192" y="-72.3" font-family="Times,serif" font-size="14.00">CommentsController</text>
<polyline fill="none" stroke="black" points="126,-64.5 258,-64.5 "/>
<text text-anchor="start" x="134" y="-49.3" font-family="Times,serif" font-size="14.00">create</text>
<text text-anchor="start" x="134" y="-34.3" font-family="Times,serif" font-size="14.00">destroy</text>
<text text-anchor="start" x="134" y="-19.3" font-family="Times,serif" font-size="14.00">edit</text>
<text text-anchor="start" x="134" y="-4.3" font-family="Times,serif" font-size="14.00">index</text>
<text text-anchor="start" x="134" y="10.7" font-family="Times,serif" font-size="14.00">new</text>
<text text-anchor="start" x="134" y="25.7" font-family="Times,serif" font-size="14.00">show</text>
<text text-anchor="start" x="134" y="40.7" font-family="Times,serif" font-size="14.00">update</text>
<polyline fill="none" stroke="black" points="126,48.5 258,48.5 "/>
<polyline fill="none" stroke="black" points="126,72.5 258,72.5 "/>
<text text-anchor="start" x="134" y="87.7" font-family="Times,serif" font-size="14.00">_layout</text>
<text text-anchor="start" x="134" y="102.7" font-family="Times,serif" font-size="14.00">comment_params</text>
<text text-anchor="start" x="134" y="117.7" font-family="Times,serif" font-size="14.00">set_comment</text>
</g>
<!-- Users::OmniauthCallbacksController -->
<g id="node4" class="node"><title>Users::OmniauthCallbacksController</title>
<path fill="none" stroke="black" d="M-114,251C-114,251 80,251 80,251 86,251 92,245 92,239 92,239 92,155 92,155 92,149 86,143 80,143 80,143 -114,143 -114,143 -120,143 -126,149 -126,155 -126,155 -126,239 -126,239 -126,245 -120,251 -114,251"/>
<text text-anchor="middle" x="-17" y="158.2" font-family="Times,serif" font-size="14.00">Users::OmniauthCallbacksController</text>
<polyline fill="none" stroke="black" points="-126,166 92,166 "/>
<text text-anchor="start" x="-118" y="181.2" font-family="Times,serif" font-size="14.00">facebook</text>
<text text-anchor="start" x="-118" y="196.2" font-family="Times,serif" font-size="14.00">failure</text>
<polyline fill="none" stroke="black" points="-126,204 92,204 "/>
<polyline fill="none" stroke="black" points="-126,228 92,228 "/>
<text text-anchor="start" x="-118" y="243.2" font-family="Times,serif" font-size="14.00">_layout</text>
</g>
<!-- BookingsController -->
<g id="node5" class="node"><title>BookingsController</title>
<path fill="none" stroke="black" d="M-276,287.5C-276,287.5 -176,287.5 -176,287.5 -170,287.5 -164,281.5 -164,275.5 -164,275.5 -164,86.5 -164,86.5 -164,80.5 -170,74.5 -176,74.5 -176,74.5 -276,74.5 -276,74.5 -282,74.5 -288,80.5 -288,86.5 -288,86.5 -288,275.5 -288,275.5 -288,281.5 -282,287.5 -276,287.5"/>
<text text-anchor="middle" x="-226" y="89.7" font-family="Times,serif" font-size="14.00">BookingsController</text>
<polyline fill="none" stroke="black" points="-288,97.5 -164,97.5 "/>
<text text-anchor="start" x="-280" y="112.7" font-family="Times,serif" font-size="14.00">create</text>
<text text-anchor="start" x="-280" y="127.7" font-family="Times,serif" font-size="14.00">destroy</text>
<text text-anchor="start" x="-280" y="142.7" font-family="Times,serif" font-size="14.00">edit</text>
<text text-anchor="start" x="-280" y="157.7" font-family="Times,serif" font-size="14.00">index</text>
<text text-anchor="start" x="-280" y="172.7" font-family="Times,serif" font-size="14.00">new</text>
<text text-anchor="start" x="-280" y="187.7" font-family="Times,serif" font-size="14.00">show</text>
<text text-anchor="start" x="-280" y="202.7" font-family="Times,serif" font-size="14.00">update</text>
<polyline fill="none" stroke="black" points="-288,210.5 -164,210.5 "/>
<polyline fill="none" stroke="black" points="-288,234.5 -164,234.5 "/>
<text text-anchor="start" x="-280" y="249.7" font-family="Times,serif" font-size="14.00">_layout</text>
<text text-anchor="start" x="-280" y="264.7" font-family="Times,serif" font-size="14.00">booking_params</text>
<text text-anchor="start" x="-280" y="279.7" font-family="Times,serif" font-size="14.00">set_booking</text>
</g>
<!-- ParticipationsController -->
<g id="node6" class="node"><title>ParticipationsController</title>
<path fill="none" stroke="black" d="M138,-126.5C138,-126.5 260,-126.5 260,-126.5 266,-126.5 272,-132.5 272,-138.5 272,-138.5 272,-327.5 272,-327.5 272,-333.5 266,-339.5 260,-339.5 260,-339.5 138,-339.5 138,-339.5 132,-339.5 126,-333.5 126,-327.5 126,-327.5 126,-138.5 126,-138.5 126,-132.5 132,-126.5 138,-126.5"/>
<text text-anchor="middle" x="199" y="-324.3" font-family="Times,serif" font-size="14.00">ParticipationsController</text>
<polyline fill="none" stroke="black" points="126,-316.5 272,-316.5 "/>
<text text-anchor="start" x="134" y="-301.3" font-family="Times,serif" font-size="14.00">create</text>
<text text-anchor="start" x="134" y="-286.3" font-family="Times,serif" font-size="14.00">destroy</text>
<text text-anchor="start" x="134" y="-271.3" font-family="Times,serif" font-size="14.00">edit</text>
<text text-anchor="start" x="134" y="-256.3" font-family="Times,serif" font-size="14.00">index</text>
<text text-anchor="start" x="134" y="-241.3" font-family="Times,serif" font-size="14.00">new</text>
<text text-anchor="start" x="134" y="-226.3" font-family="Times,serif" font-size="14.00">show</text>
<text text-anchor="start" x="134" y="-211.3" font-family="Times,serif" font-size="14.00">update</text>
<polyline fill="none" stroke="black" points="126,-203.5 272,-203.5 "/>
<polyline fill="none" stroke="black" points="126,-179.5 272,-179.5 "/>
<text text-anchor="start" x="134" y="-164.3" font-family="Times,serif" font-size="14.00">_layout</text>
<text text-anchor="start" x="134" y="-149.3" font-family="Times,serif" font-size="14.00">participation_params</text>
<text text-anchor="start" x="134" y="-134.3" font-family="Times,serif" font-size="14.00">set_participation</text>
</g>
<!-- RegistrationsController -->
<g id="node7" class="node"><title>RegistrationsController</title>
<path fill="none" stroke="black" d="M-41.5,-144.5C-41.5,-144.5 77.5,-144.5 77.5,-144.5 83.5,-144.5 89.5,-150.5 89.5,-156.5 89.5,-156.5 89.5,-345.5 89.5,-345.5 89.5,-351.5 83.5,-357.5 77.5,-357.5 77.5,-357.5 -41.5,-357.5 -41.5,-357.5 -47.5,-357.5 -53.5,-351.5 -53.5,-345.5 -53.5,-345.5 -53.5,-156.5 -53.5,-156.5 -53.5,-150.5 -47.5,-144.5 -41.5,-144.5"/>
<text text-anchor="middle" x="18" y="-342.3" font-family="Times,serif" font-size="14.00">RegistrationsController</text>
<polyline fill="none" stroke="black" points="-53.5,-334.5 89.5,-334.5 "/>
<text text-anchor="start" x="-45.5" y="-319.3" font-family="Times,serif" font-size="14.00">create</text>
<text text-anchor="start" x="-45.5" y="-304.3" font-family="Times,serif" font-size="14.00">destroy</text>
<text text-anchor="start" x="-45.5" y="-289.3" font-family="Times,serif" font-size="14.00">edit</text>
<text text-anchor="start" x="-45.5" y="-274.3" font-family="Times,serif" font-size="14.00">index</text>
<text text-anchor="start" x="-45.5" y="-259.3" font-family="Times,serif" font-size="14.00">new</text>
<text text-anchor="start" x="-45.5" y="-244.3" font-family="Times,serif" font-size="14.00">show</text>
<text text-anchor="start" x="-45.5" y="-229.3" font-family="Times,serif" font-size="14.00">update</text>
<polyline fill="none" stroke="black" points="-53.5,-221.5 89.5,-221.5 "/>
<polyline fill="none" stroke="black" points="-53.5,-197.5 89.5,-197.5 "/>
<text text-anchor="start" x="-45.5" y="-182.3" font-family="Times,serif" font-size="14.00">_layout</text>
<text text-anchor="start" x="-45.5" y="-167.3" font-family="Times,serif" font-size="14.00">registration_params</text>
<text text-anchor="start" x="-45.5" y="-152.3" font-family="Times,serif" font-size="14.00">set_registration</text>
</g>
<!-- WorkshopsController -->
<g id="node8" class="node"><title>WorkshopsController</title>
<path fill="none" stroke="black" d="M-204,-216.5C-204,-216.5 -94,-216.5 -94,-216.5 -88,-216.5 -82,-222.5 -82,-228.5 -82,-228.5 -82,-417.5 -82,-417.5 -82,-423.5 -88,-429.5 -94,-429.5 -94,-429.5 -204,-429.5 -204,-429.5 -210,-429.5 -216,-423.5 -216,-417.5 -216,-417.5 -216,-228.5 -216,-228.5 -216,-222.5 -210,-216.5 -204,-216.5"/>
<text text-anchor="middle" x="-149" y="-414.3" font-family="Times,serif" font-size="14.00">WorkshopsController</text>
<polyline fill="none" stroke="black" points="-216,-406.5 -82,-406.5 "/>
<text text-anchor="start" x="-208" y="-391.3" font-family="Times,serif" font-size="14.00">create</text>
<text text-anchor="start" x="-208" y="-376.3" font-family="Times,serif" font-size="14.00">destroy</text>
<text text-anchor="start" x="-208" y="-361.3" font-family="Times,serif" font-size="14.00">edit</text>
<text text-anchor="start" x="-208" y="-346.3" font-family="Times,serif" font-size="14.00">index</text>
<text text-anchor="start" x="-208" y="-331.3" font-family="Times,serif" font-size="14.00">new</text>
<text text-anchor="start" x="-208" y="-316.3" font-family="Times,serif" font-size="14.00">show</text>
<text text-anchor="start" x="-208" y="-301.3" font-family="Times,serif" font-size="14.00">update</text>
<polyline fill="none" stroke="black" points="-216,-293.5 -82,-293.5 "/>
<polyline fill="none" stroke="black" points="-216,-269.5 -82,-269.5 "/>
<text text-anchor="start" x="-208" y="-254.3" font-family="Times,serif" font-size="14.00">_layout</text>
<text text-anchor="start" x="-208" y="-239.3" font-family="Times,serif" font-size="14.00">set_workshop</text>
<text text-anchor="start" x="-208" y="-224.3" font-family="Times,serif" font-size="14.00">workshop_params</text>
</g>
<!-- CategoriesController -->
<g id="node9" class="node"><title>CategoriesController</title>
<path fill="none" stroke="black" d="M-240,35.5C-240,35.5 -134,35.5 -134,35.5 -128,35.5 -122,29.5 -122,23.5 -122,23.5 -122,-165.5 -122,-165.5 -122,-171.5 -128,-177.5 -134,-177.5 -134,-177.5 -240,-177.5 -240,-177.5 -246,-177.5 -252,-171.5 -252,-165.5 -252,-165.5 -252,23.5 -252,23.5 -252,29.5 -246,35.5 -240,35.5"/>
<text text-anchor="middle" x="-187" y="-162.3" font-family="Times,serif" font-size="14.00">CategoriesController</text>
<polyline fill="none" stroke="black" points="-252,-154.5 -122,-154.5 "/>
<text text-anchor="start" x="-244" y="-139.3" font-family="Times,serif" font-size="14.00">create</text>
<text text-anchor="start" x="-244" y="-124.3" font-family="Times,serif" font-size="14.00">destroy</text>
<text text-anchor="start" x="-244" y="-109.3" font-family="Times,serif" font-size="14.00">edit</text>
<text text-anchor="start" x="-244" y="-94.3" font-family="Times,serif" font-size="14.00">index</text>
<text text-anchor="start" x="-244" y="-79.3" font-family="Times,serif" font-size="14.00">new</text>
<text text-anchor="start" x="-244" y="-64.3" font-family="Times,serif" font-size="14.00">show</text>
<text text-anchor="start" x="-244" y="-49.3" font-family="Times,serif" font-size="14.00">update</text>
<polyline fill="none" stroke="black" points="-252,-41.5 -122,-41.5 "/>
<polyline fill="none" stroke="black" points="-252,-17.5 -122,-17.5 "/>
<text text-anchor="start" x="-244" y="-2.3" font-family="Times,serif" font-size="14.00">_layout</text>
<text text-anchor="start" x="-244" y="12.7" font-family="Times,serif" font-size="14.00">category_params</text>
<text text-anchor="start" x="-244" y="27.7" font-family="Times,serif" font-size="14.00">set_category</text>
</g>
<!-- WorkshopSessionsController -->
<g id="node10" class="node"><title>WorkshopSessionsController</title>
<path fill="none" stroke="black" d="M-78,107.5C-78,107.5 74,107.5 74,107.5 80,107.5 86,101.5 86,95.5 86,95.5 86,-93.5 86,-93.5 86,-99.5 80,-105.5 74,-105.5 74,-105.5 -78,-105.5 -78,-105.5 -84,-105.5 -90,-99.5 -90,-93.5 -90,-93.5 -90,95.5 -90,95.5 -90,101.5 -84,107.5 -78,107.5"/>
<text text-anchor="middle" x="-2" y="-90.3" font-family="Times,serif" font-size="14.00">WorkshopSessionsController</text>
<polyline fill="none" stroke="black" points="-90,-82.5 86,-82.5 "/>
<text text-anchor="start" x="-82" y="-67.3" font-family="Times,serif" font-size="14.00">create</text>
<text text-anchor="start" x="-82" y="-52.3" font-family="Times,serif" font-size="14.00">destroy</text>
<text text-anchor="start" x="-82" y="-37.3" font-family="Times,serif" font-size="14.00">edit</text>
<text text-anchor="start" x="-82" y="-22.3" font-family="Times,serif" font-size="14.00">index</text>
<text text-anchor="start" x="-82" y="-7.3" font-family="Times,serif" font-size="14.00">new</text>
<text text-anchor="start" x="-82" y="7.7" font-family="Times,serif" font-size="14.00">show</text>
<text text-anchor="start" x="-82" y="22.7" font-family="Times,serif" font-size="14.00">update</text>
<polyline fill="none" stroke="black" points="-90,30.5 86,30.5 "/>
<polyline fill="none" stroke="black" points="-90,54.5 86,54.5 "/>
<text text-anchor="start" x="-82" y="69.7" font-family="Times,serif" font-size="14.00">_layout</text>
<text text-anchor="start" x="-82" y="84.7" font-family="Times,serif" font-size="14.00">set_workshop_session</text>
<text text-anchor="start" x="-82" y="99.7" font-family="Times,serif" font-size="14.00">workshop_session_params</text>
</g>
<!-- TagsController -->
<g id="node11" class="node"><title>TagsController</title>
<path fill="none" stroke="black" d="M318,-216.5C318,-216.5 392,-216.5 392,-216.5 398,-216.5 404,-222.5 404,-228.5 404,-228.5 404,-417.5 404,-417.5 404,-423.5 398,-429.5 392,-429.5 392,-429.5 318,-429.5 318,-429.5 312,-429.5 306,-423.5 306,-417.5 306,-417.5 306,-228.5 306,-228.5 306,-222.5 312,-216.5 318,-216.5"/>
<text text-anchor="middle" x="355" y="-414.3" font-family="Times,serif" font-size="14.00">TagsController</text>
<polyline fill="none" stroke="black" points="306,-406.5 404,-406.5 "/>
<text text-anchor="start" x="314" y="-391.3" font-family="Times,serif" font-size="14.00">create</text>
<text text-anchor="start" x="314" y="-376.3" font-family="Times,serif" font-size="14.00">destroy</text>
<text text-anchor="start" x="314" y="-361.3" font-family="Times,serif" font-size="14.00">edit</text>
<text text-anchor="start" x="314" y="-346.3" font-family="Times,serif" font-size="14.00">index</text>
<text text-anchor="start" x="314" y="-331.3" font-family="Times,serif" font-size="14.00">new</text>
<text text-anchor="start" x="314" y="-316.3" font-family="Times,serif" font-size="14.00">show</text>
<text text-anchor="start" x="314" y="-301.3" font-family="Times,serif" font-size="14.00">update</text>
<polyline fill="none" stroke="black" points="306,-293.5 404,-293.5 "/>
<polyline fill="none" stroke="black" points="306,-269.5 404,-269.5 "/>
<text text-anchor="start" x="314" y="-254.3" font-family="Times,serif" font-size="14.00">_layout</text>
<text text-anchor="start" x="314" y="-239.3" font-family="Times,serif" font-size="14.00">set_tag</text>
<text text-anchor="start" x="314" y="-224.3" font-family="Times,serif" font-size="14.00">tag_params</text>
</g>
<!-- PagesController -->
<g id="node12" class="node"><title>PagesController</title>
<path fill="none" stroke="black" d="M138,251C138,251 218,251 218,251 224,251 230,245 230,239 230,239 230,169 230,169 230,163 224,157 218,157 218,157 138,157 138,157 132,157 126,163 126,169 126,169 126,239 126,239 126,245 132,251 138,251"/>
<text text-anchor="middle" x="178" y="172.2" font-family="Times,serif" font-size="14.00">PagesController</text>
<polyline fill="none" stroke="black" points="126,180 230,180 "/>
<polyline fill="none" stroke="black" points="126,204 230,204 "/>
<polyline fill="none" stroke="black" points="126,228 230,228 "/>
<text text-anchor="start" x="134" y="243.2" font-family="Times,serif" font-size="14.00">_layout</text>
</g>
<!-- ApplicationController -->
<g id="node13" class="node"><title>ApplicationController</title>
<path fill="none" stroke="black" d="M138,-379C138,-379 250,-379 250,-379 256,-379 262,-385 262,-391 262,-391 262,-461 262,-461 262,-467 256,-473 250,-473 250,-473 138,-473 138,-473 132,-473 126,-467 126,-461 126,-461 126,-391 126,-391 126,-385 132,-379 138,-379"/>
<text text-anchor="middle" x="194" y="-457.8" font-family="Times,serif" font-size="14.00">ApplicationController</text>
<polyline fill="none" stroke="black" points="126,-450 262,-450 "/>
<polyline fill="none" stroke="black" points="126,-426 262,-426 "/>
<polyline fill="none" stroke="black" points="126,-402 262,-402 "/>
<text text-anchor="start" x="134" y="-386.8" font-family="Times,serif" font-size="14.00">_layout</text>
</g>
<!-- RatingsController -->
<g id="node14" class="node"><title>RatingsController</title>
<path fill="none" stroke="black" d="M300.5,287.5C300.5,287.5 389.5,287.5 389.5,287.5 395.5,287.5 401.5,281.5 401.5,275.5 401.5,275.5 401.5,86.5 401.5,86.5 401.5,80.5 395.5,74.5 389.5,74.5 389.5,74.5 300.5,74.5 300.5,74.5 294.5,74.5 288.5,80.5 288.5,86.5 288.5,86.5 288.5,275.5 288.5,275.5 288.5,281.5 294.5,287.5 300.5,287.5"/>
<text text-anchor="middle" x="345" y="89.7" font-family="Times,serif" font-size="14.00">RatingsController</text>
<polyline fill="none" stroke="black" points="288.5,97.5 401.5,97.5 "/>
<text text-anchor="start" x="296.5" y="112.7" font-family="Times,serif" font-size="14.00">create</text>
<text text-anchor="start" x="296.5" y="127.7" font-family="Times,serif" font-size="14.00">destroy</text>
<text text-anchor="start" x="296.5" y="142.7" font-family="Times,serif" font-size="14.00">edit</text>
<text text-anchor="start" x="296.5" y="157.7" font-family="Times,serif" font-size="14.00">index</text>
<text text-anchor="start" x="296.5" y="172.7" font-family="Times,serif" font-size="14.00">new</text>
<text text-anchor="start" x="296.5" y="187.7" font-family="Times,serif" font-size="14.00">show</text>
<text text-anchor="start" x="296.5" y="202.7" font-family="Times,serif" font-size="14.00">update</text>
<polyline fill="none" stroke="black" points="288.5,210.5 401.5,210.5 "/>
<polyline fill="none" stroke="black" points="288.5,234.5 401.5,234.5 "/>
<text text-anchor="start" x="296.5" y="249.7" font-family="Times,serif" font-size="14.00">_layout</text>
<text text-anchor="start" x="296.5" y="264.7" font-family="Times,serif" font-size="14.00">rating_params</text>
<text text-anchor="start" x="296.5" y="279.7" font-family="Times,serif" font-size="14.00">set_rating</text>
</g>
<!-- VenuesController -->
<g id="node15" class="node"><title>VenuesController</title>
<path fill="none" stroke="black" d="M318.5,35.5C318.5,35.5 407.5,35.5 407.5,35.5 413.5,35.5 419.5,29.5 419.5,23.5 419.5,23.5 419.5,-165.5 419.5,-165.5 419.5,-171.5 413.5,-177.5 407.5,-177.5 407.5,-177.5 318.5,-177.5 318.5,-177.5 312.5,-177.5 306.5,-171.5 306.5,-165.5 306.5,-165.5 306.5,23.5 306.5,23.5 306.5,29.5 312.5,35.5 318.5,35.5"/>
<text text-anchor="middle" x="363" y="-162.3" font-family="Times,serif" font-size="14.00">VenuesController</text>
<polyline fill="none" stroke="black" points="306.5,-154.5 419.5,-154.5 "/>
<text text-anchor="start" x="314.5" y="-139.3" font-family="Times,serif" font-size="14.00">create</text>
<text text-anchor="start" x="314.5" y="-124.3" font-family="Times,serif" font-size="14.00">destroy</text>
<text text-anchor="start" x="314.5" y="-109.3" font-family="Times,serif" font-size="14.00">edit</text>
<text text-anchor="start" x="314.5" y="-94.3" font-family="Times,serif" font-size="14.00">index</text>
<text text-anchor="start" x="314.5" y="-79.3" font-family="Times,serif" font-size="14.00">new</text>
<text text-anchor="start" x="314.5" y="-64.3" font-family="Times,serif" font-size="14.00">show</text>
<text text-anchor="start" x="314.5" y="-49.3" font-family="Times,serif" font-size="14.00">update</text>
<polyline fill="none" stroke="black" points="306.5,-41.5 419.5,-41.5 "/>
<polyline fill="none" stroke="black" points="306.5,-17.5 419.5,-17.5 "/>
<text text-anchor="start" x="314.5" y="-2.3" font-family="Times,serif" font-size="14.00">_layout</text>
<text text-anchor="start" x="314.5" y="12.7" font-family="Times,serif" font-size="14.00">set_venue</text>
<text text-anchor="start" x="314.5" y="27.7" font-family="Times,serif" font-size="14.00">venue_params</text>
</g>
</g>
</svg>
