<?xml version="1.0" encoding="UTF-8" standalone="no"?>
<!DOCTYPE svg PUBLIC "-//W3C//DTD SVG 1.1//EN"
 "http://www.w3.org/Graphics/SVG/1.1/DTD/svg11.dtd">
<!-- Generated by graphviz version 2.38.0 (20140413.2041)
 -->
<!-- Title: controllers_diagram Pages: 1 -->
<svg width="806pt" height="870pt"
 viewBox="0.00 0.00 805.50 869.50" xmlns="http://www.w3.org/2000/svg" xmlns:xlink="http://www.w3.org/1999/xlink">
<g id="graph0" class="graph" transform="scale(1 1) rotate(0) translate(365 485.5)">
<title>controllers_diagram</title>
<polygon fill="none" stroke="none" points="-365,384 -365,-485.5 440.5,-485.5 440.5,384 -365,384"/>
<!-- _diagram_info -->
<g id="node1" class="node"><title>_diagram_info</title>
<text text-anchor="start" x="8" y="316.4" font-family="Times,serif" font-size="13.00">Controllers diagram</text>
<text text-anchor="start" x="8" y="330.4" font-family="Times,serif" font-size="13.00">Date: Jul 13 2016 &#45; 00:49</text>
<text text-anchor="start" x="8" y="344.4" font-family="Times,serif" font-size="13.00">Migration version: 20160712171129</text>
<text text-anchor="start" x="8" y="358.4" font-family="Times,serif" font-size="13.00">Generated by RailRoady 1.5.1</text>
<text text-anchor="start" x="8" y="372.4" font-family="Times,serif" font-size="13.00">http://railroady.prestonlee.com</text>
</g>
<!-- LevelsController -->
<g id="node2" class="node"><title>LevelsController</title>
<path fill="none" stroke="black" d="M-330,-343C-330,-343 -246,-343 -246,-343 -240,-343 -234,-349 -234,-355 -234,-355 -234,-469 -234,-469 -234,-475 -240,-481 -246,-481 -246,-481 -330,-481 -330,-481 -336,-481 -342,-475 -342,-469 -342,-469 -342,-355 -342,-355 -342,-349 -336,-343 -330,-343"/>
<text text-anchor="middle" x="-288" y="-465.8" font-family="Times,serif" font-size="14.00">LevelsController</text>
<polyline fill="none" stroke="black" points="-342,-458 -234,-458 "/>
<text text-anchor="start" x="-334" y="-442.8" font-family="Times,serif" font-size="14.00">index</text>
<text text-anchor="start" x="-334" y="-427.8" font-family="Times,serif" font-size="14.00">show</text>
<polyline fill="none" stroke="black" points="-342,-420 -234,-420 "/>
<polyline fill="none" stroke="black" points="-342,-396 -234,-396 "/>
<text text-anchor="start" x="-334" y="-380.8" font-family="Times,serif" font-size="14.00">_layout</text>
<text text-anchor="start" x="-334" y="-365.8" font-family="Times,serif" font-size="14.00">level_params</text>
<text text-anchor="start" x="-334" y="-350.8" font-family="Times,serif" font-size="14.00">set_level</text>
</g>
<!-- CommentsController -->
<g id="node3" class="node"><title>CommentsController</title>
<path fill="none" stroke="black" d="M-26,-133.5C-26,-133.5 82,-133.5 82,-133.5 88,-133.5 94,-139.5 94,-145.5 94,-145.5 94,-334.5 94,-334.5 94,-340.5 88,-346.5 82,-346.5 82,-346.5 -26,-346.5 -26,-346.5 -32,-346.5 -38,-340.5 -38,-334.5 -38,-334.5 -38,-145.5 -38,-145.5 -38,-139.5 -32,-133.5 -26,-133.5"/>
<text text-anchor="middle" x="28" y="-331.3" font-family="Times,serif" font-size="14.00">CommentsController</text>
<polyline fill="none" stroke="black" points="-38,-323.5 94,-323.5 "/>
<text text-anchor="start" x="-30" y="-308.3" font-family="Times,serif" font-size="14.00">create</text>
<text text-anchor="start" x="-30" y="-293.3" font-family="Times,serif" font-size="14.00">destroy</text>
<text text-anchor="start" x="-30" y="-278.3" font-family="Times,serif" font-size="14.00">edit</text>
<text text-anchor="start" x="-30" y="-263.3" font-family="Times,serif" font-size="14.00">index</text>
<text text-anchor="start" x="-30" y="-248.3" font-family="Times,serif" font-size="14.00">new</text>
<text text-anchor="start" x="-30" y="-233.3" font-family="Times,serif" font-size="14.00">show</text>
<text text-anchor="start" x="-30" y="-218.3" font-family="Times,serif" font-size="14.00">update</text>
<polyline fill="none" stroke="black" points="-38,-210.5 94,-210.5 "/>
<polyline fill="none" stroke="black" points="-38,-186.5 94,-186.5 "/>
<text text-anchor="start" x="-30" y="-171.3" font-family="Times,serif" font-size="14.00">_layout</text>
<text text-anchor="start" x="-30" y="-156.3" font-family="Times,serif" font-size="14.00">comment_params</text>
<text text-anchor="start" x="-30" y="-141.3" font-family="Times,serif" font-size="14.00">set_comment</text>
</g>
<!-- Users::OmniauthCallbacksController -->
<g id="node4" class="node"><title>Users::OmniauthCallbacksController</title>
<path fill="none" stroke="black" d="M12,265C12,265 206,265 206,265 212,265 218,259 218,253 218,253 218,169 218,169 218,163 212,157 206,157 206,157 12,157 12,157 6,157 0,163 0,169 0,169 0,253 0,253 0,259 6,265 12,265"/>
<text text-anchor="middle" x="109" y="172.2" font-family="Times,serif" font-size="14.00">Users::OmniauthCallbacksController</text>
<polyline fill="none" stroke="black" points="0,180 218,180 "/>
<text text-anchor="start" x="8" y="195.2" font-family="Times,serif" font-size="14.00">facebook</text>
<text text-anchor="start" x="8" y="210.2" font-family="Times,serif" font-size="14.00">failure</text>
<polyline fill="none" stroke="black" points="0,218 218,218 "/>
<polyline fill="none" stroke="black" points="0,242 218,242 "/>
<text text-anchor="start" x="8" y="257.2" font-family="Times,serif" font-size="14.00">_layout</text>
</g>
<!-- BookingsController -->
<g id="node5" class="node"><title>BookingsController</title>
<path fill="none" stroke="black" d="M-178,-190.5C-178,-190.5 -78,-190.5 -78,-190.5 -72,-190.5 -66,-196.5 -66,-202.5 -66,-202.5 -66,-391.5 -66,-391.5 -66,-397.5 -72,-403.5 -78,-403.5 -78,-403.5 -178,-403.5 -178,-403.5 -184,-403.5 -190,-397.5 -190,-391.5 -190,-391.5 -190,-202.5 -190,-202.5 -190,-196.5 -184,-190.5 -178,-190.5"/>
<text text-anchor="middle" x="-128" y="-388.3" font-family="Times,serif" font-size="14.00">BookingsController</text>
<polyline fill="none" stroke="black" points="-190,-380.5 -66,-380.5 "/>
<text text-anchor="start" x="-182" y="-365.3" font-family="Times,serif" font-size="14.00">create</text>
<text text-anchor="start" x="-182" y="-350.3" font-family="Times,serif" font-size="14.00">destroy</text>
<text text-anchor="start" x="-182" y="-335.3" font-family="Times,serif" font-size="14.00">edit</text>
<text text-anchor="start" x="-182" y="-320.3" font-family="Times,serif" font-size="14.00">index</text>
<text text-anchor="start" x="-182" y="-305.3" font-family="Times,serif" font-size="14.00">new</text>
<text text-anchor="start" x="-182" y="-290.3" font-family="Times,serif" font-size="14.00">show</text>
<text text-anchor="start" x="-182" y="-275.3" font-family="Times,serif" font-size="14.00">update</text>
<polyline fill="none" stroke="black" points="-190,-267.5 -66,-267.5 "/>
<polyline fill="none" stroke="black" points="-190,-243.5 -66,-243.5 "/>
<text text-anchor="start" x="-182" y="-228.3" font-family="Times,serif" font-size="14.00">_layout</text>
<text text-anchor="start" x="-182" y="-213.3" font-family="Times,serif" font-size="14.00">booking_params</text>
<text text-anchor="start" x="-182" y="-198.3" font-family="Times,serif" font-size="14.00">set_booking</text>
</g>
<!-- ParticipationsController -->
<g id="node6" class="node"><title>ParticipationsController</title>
<path fill="none" stroke="black" d="M145,-133.5C145,-133.5 267,-133.5 267,-133.5 273,-133.5 279,-139.5 279,-145.5 279,-145.5 279,-334.5 279,-334.5 279,-340.5 273,-346.5 267,-346.5 267,-346.5 145,-346.5 145,-346.5 139,-346.5 133,-340.5 133,-334.5 133,-334.5 133,-145.5 133,-145.5 133,-139.5 139,-133.5 145,-133.5"/>
<text text-anchor="middle" x="206" y="-331.3" font-family="Times,serif" font-size="14.00">ParticipationsController</text>
<polyline fill="none" stroke="black" points="133,-323.5 279,-323.5 "/>
<text text-anchor="start" x="141" y="-308.3" font-family="Times,serif" font-size="14.00">create</text>
<text text-anchor="start" x="141" y="-293.3" font-family="Times,serif" font-size="14.00">destroy</text>
<text text-anchor="start" x="141" y="-278.3" font-family="Times,serif" font-size="14.00">edit</text>
<text text-anchor="start" x="141" y="-263.3" font-family="Times,serif" font-size="14.00">index</text>
<text text-anchor="start" x="141" y="-248.3" font-family="Times,serif" font-size="14.00">new</text>
<text text-anchor="start" x="141" y="-233.3" font-family="Times,serif" font-size="14.00">show</text>
<text text-anchor="start" x="141" y="-218.3" font-family="Times,serif" font-size="14.00">update</text>
<polyline fill="none" stroke="black" points="133,-210.5 279,-210.5 "/>
<polyline fill="none" stroke="black" points="133,-186.5 279,-186.5 "/>
<text text-anchor="start" x="141" y="-171.3" font-family="Times,serif" font-size="14.00">_layout</text>
<text text-anchor="start" x="141" y="-156.3" font-family="Times,serif" font-size="14.00">participation_params</text>
<text text-anchor="start" x="141" y="-141.3" font-family="Times,serif" font-size="14.00">set_participation</text>
</g>
<!-- WorkshopsController -->
<g id="node7" class="node"><title>WorkshopsController</title>
<path fill="none" stroke="black" d="M-273,56.5C-273,56.5 -163,56.5 -163,56.5 -157,56.5 -151,50.5 -151,44.5 -151,44.5 -151,-144.5 -151,-144.5 -151,-150.5 -157,-156.5 -163,-156.5 -163,-156.5 -273,-156.5 -273,-156.5 -279,-156.5 -285,-150.5 -285,-144.5 -285,-144.5 -285,44.5 -285,44.5 -285,50.5 -279,56.5 -273,56.5"/>
<text text-anchor="middle" x="-218" y="-141.3" font-family="Times,serif" font-size="14.00">WorkshopsController</text>
<polyline fill="none" stroke="black" points="-285,-133.5 -151,-133.5 "/>
<text text-anchor="start" x="-277" y="-118.3" font-family="Times,serif" font-size="14.00">create</text>
<text text-anchor="start" x="-277" y="-103.3" font-family="Times,serif" font-size="14.00">destroy</text>
<text text-anchor="start" x="-277" y="-88.3" font-family="Times,serif" font-size="14.00">edit</text>
<text text-anchor="start" x="-277" y="-73.3" font-family="Times,serif" font-size="14.00">index</text>
<text text-anchor="start" x="-277" y="-58.3" font-family="Times,serif" font-size="14.00">new</text>
<text text-anchor="start" x="-277" y="-43.3" font-family="Times,serif" font-size="14.00">show</text>
<text text-anchor="start" x="-277" y="-28.3" font-family="Times,serif" font-size="14.00">update</text>
<polyline fill="none" stroke="black" points="-285,-20.5 -151,-20.5 "/>
<polyline fill="none" stroke="black" points="-285,3.5 -151,3.5 "/>
<text text-anchor="start" x="-277" y="18.7" font-family="Times,serif" font-size="14.00">_layout</text>
<text text-anchor="start" x="-277" y="33.7" font-family="Times,serif" font-size="14.00">set_workshop</text>
<text text-anchor="start" x="-277" y="48.7" font-family="Times,serif" font-size="14.00">workshop_params</text>
</g>
<!-- WorkshopRegistrationsController -->
<g id="node8" class="node"><title>WorkshopRegistrationsController</title>
<path fill="none" stroke="black" d="M-102,113.5C-102,113.5 74,113.5 74,113.5 80,113.5 86,107.5 86,101.5 86,101.5 86,-87.5 86,-87.5 86,-93.5 80,-99.5 74,-99.5 74,-99.5 -102,-99.5 -102,-99.5 -108,-99.5 -114,-93.5 -114,-87.5 -114,-87.5 -114,101.5 -114,101.5 -114,107.5 -108,113.5 -102,113.5"/>
<text text-anchor="middle" x="-14" y="-84.3" font-family="Times,serif" font-size="14.00">WorkshopRegistrationsController</text>
<polyline fill="none" stroke="black" points="-114,-76.5 86,-76.5 "/>
<text text-anchor="start" x="-106" y="-61.3" font-family="Times,serif" font-size="14.00">create</text>
<text text-anchor="start" x="-106" y="-46.3" font-family="Times,serif" font-size="14.00">destroy</text>
<text text-anchor="start" x="-106" y="-31.3" font-family="Times,serif" font-size="14.00">edit</text>
<text text-anchor="start" x="-106" y="-16.3" font-family="Times,serif" font-size="14.00">index</text>
<text text-anchor="start" x="-106" y="-1.3" font-family="Times,serif" font-size="14.00">new</text>
<text text-anchor="start" x="-106" y="13.7" font-family="Times,serif" font-size="14.00">show</text>
<text text-anchor="start" x="-106" y="28.7" font-family="Times,serif" font-size="14.00">update</text>
<polyline fill="none" stroke="black" points="-114,36.5 86,36.5 "/>
<polyline fill="none" stroke="black" points="-114,60.5 86,60.5 "/>
<text text-anchor="start" x="-106" y="75.7" font-family="Times,serif" font-size="14.00">_layout</text>
<text text-anchor="start" x="-106" y="90.7" font-family="Times,serif" font-size="14.00">set_workshop_registration</text>
<text text-anchor="start" x="-106" y="105.7" font-family="Times,serif" font-size="14.00">workshop_registration_params</text>
</g>
<!-- CategoriesController -->
<g id="node9" class="node"><title>CategoriesController</title>
<path fill="none" stroke="black" d="M-292,303.5C-292,303.5 -186,303.5 -186,303.5 -180,303.5 -174,297.5 -174,291.5 -174,291.5 -174,102.5 -174,102.5 -174,96.5 -180,90.5 -186,90.5 -186,90.5 -292,90.5 -292,90.5 -298,90.5 -304,96.5 -304,102.5 -304,102.5 -304,291.5 -304,291.5 -304,297.5 -298,303.5 -292,303.5"/>
<text text-anchor="middle" x="-239" y="105.7" font-family="Times,serif" font-size="14.00">CategoriesController</text>
<polyline fill="none" stroke="black" points="-304,113.5 -174,113.5 "/>
<text text-anchor="start" x="-296" y="128.7" font-family="Times,serif" font-size="14.00">create</text>
<text text-anchor="start" x="-296" y="143.7" font-family="Times,serif" font-size="14.00">destroy</text>
<text text-anchor="start" x="-296" y="158.7" font-family="Times,serif" font-size="14.00">edit</text>
<text text-anchor="start" x="-296" y="173.7" font-family="Times,serif" font-size="14.00">index</text>
<text text-anchor="start" x="-296" y="188.7" font-family="Times,serif" font-size="14.00">new</text>
<text text-anchor="start" x="-296" y="203.7" font-family="Times,serif" font-size="14.00">show</text>
<text text-anchor="start" x="-296" y="218.7" font-family="Times,serif" font-size="14.00">update</text>
<polyline fill="none" stroke="black" points="-304,226.5 -174,226.5 "/>
<polyline fill="none" stroke="black" points="-304,250.5 -174,250.5 "/>
<text text-anchor="start" x="-296" y="265.7" font-family="Times,serif" font-size="14.00">_layout</text>
<text text-anchor="start" x="-296" y="280.7" font-family="Times,serif" font-size="14.00">category_params</text>
<text text-anchor="start" x="-296" y="295.7" font-family="Times,serif" font-size="14.00">set_category</text>
</g>
<!-- WorkshopSessionsController -->
<g id="node10" class="node"><title>WorkshopSessionsController</title>
<path fill="none" stroke="black" d="M126,113.5C126,113.5 278,113.5 278,113.5 284,113.5 290,107.5 290,101.5 290,101.5 290,-87.5 290,-87.5 290,-93.5 284,-99.5 278,-99.5 278,-99.5 126,-99.5 126,-99.5 120,-99.5 114,-93.5 114,-87.5 114,-87.5 114,101.5 114,101.5 114,107.5 120,113.5 126,113.5"/>
<text text-anchor="middle" x="202" y="-84.3" font-family="Times,serif" font-size="14.00">WorkshopSessionsController</text>
<polyline fill="none" stroke="black" points="114,-76.5 290,-76.5 "/>
<text text-anchor="start" x="122" y="-61.3" font-family="Times,serif" font-size="14.00">create</text>
<text text-anchor="start" x="122" y="-46.3" font-family="Times,serif" font-size="14.00">destroy</text>
<text text-anchor="start" x="122" y="-31.3" font-family="Times,serif" font-size="14.00">edit</text>
<text text-anchor="start" x="122" y="-16.3" font-family="Times,serif" font-size="14.00">index</text>
<text text-anchor="start" x="122" y="-1.3" font-family="Times,serif" font-size="14.00">new</text>
<text text-anchor="start" x="122" y="13.7" font-family="Times,serif" font-size="14.00">show</text>
<text text-anchor="start" x="122" y="28.7" font-family="Times,serif" font-size="14.00">update</text>
<polyline fill="none" stroke="black" points="114,36.5 290,36.5 "/>
<polyline fill="none" stroke="black" points="114,60.5 290,60.5 "/>
<text text-anchor="start" x="122" y="75.7" font-family="Times,serif" font-size="14.00">_layout</text>
<text text-anchor="start" x="122" y="90.7" font-family="Times,serif" font-size="14.00">set_workshop_session</text>
<text text-anchor="start" x="122" y="105.7" font-family="Times,serif" font-size="14.00">workshop_session_params</text>
</g>
<!-- TagsController -->
<g id="node11" class="node"><title>TagsController</title>
<path fill="none" stroke="black" d="M335,-171.5C335,-171.5 409,-171.5 409,-171.5 415,-171.5 421,-177.5 421,-183.5 421,-183.5 421,-372.5 421,-372.5 421,-378.5 415,-384.5 409,-384.5 409,-384.5 335,-384.5 335,-384.5 329,-384.5 323,-378.5 323,-372.5 323,-372.5 323,-183.5 323,-183.5 323,-177.5 329,-171.5 335,-171.5"/>
<text text-anchor="middle" x="372" y="-369.3" font-family="Times,serif" font-size="14.00">TagsController</text>
<polyline fill="none" stroke="black" points="323,-361.5 421,-361.5 "/>
<text text-anchor="start" x="331" y="-346.3" font-family="Times,serif" font-size="14.00">create</text>
<text text-anchor="start" x="331" y="-331.3" font-family="Times,serif" font-size="14.00">destroy</text>
<text text-anchor="start" x="331" y="-316.3" font-family="Times,serif" font-size="14.00">edit</text>
<text text-anchor="start" x="331" y="-301.3" font-family="Times,serif" font-size="14.00">index</text>
<text text-anchor="start" x="331" y="-286.3" font-family="Times,serif" font-size="14.00">new</text>
<text text-anchor="start" x="331" y="-271.3" font-family="Times,serif" font-size="14.00">show</text>
<text text-anchor="start" x="331" y="-256.3" font-family="Times,serif" font-size="14.00">update</text>
<polyline fill="none" stroke="black" points="323,-248.5 421,-248.5 "/>
<polyline fill="none" stroke="black" points="323,-224.5 421,-224.5 "/>
<text text-anchor="start" x="331" y="-209.3" font-family="Times,serif" font-size="14.00">_layout</text>
<text text-anchor="start" x="331" y="-194.3" font-family="Times,serif" font-size="14.00">set_tag</text>
<text text-anchor="start" x="331" y="-179.3" font-family="Times,serif" font-size="14.00">tag_params</text>
</g>
<!-- PagesController -->
<g id="node12" class="node"><title>PagesController</title>
<path fill="none" stroke="black" d="M-121,246C-121,246 -41,246 -41,246 -35,246 -29,240 -29,234 -29,234 -29,164 -29,164 -29,158 -35,152 -41,152 -41,152 -121,152 -121,152 -127,152 -133,158 -133,164 -133,164 -133,234 -133,234 -133,240 -127,246 -121,246"/>
<text text-anchor="middle" x="-81" y="167.2" font-family="Times,serif" font-size="14.00">PagesController</text>
<polyline fill="none" stroke="black" points="-133,175 -29,175 "/>
<polyline fill="none" stroke="black" points="-133,199 -29,199 "/>
<polyline fill="none" stroke="black" points="-133,223 -29,223 "/>
<text text-anchor="start" x="-125" y="238.2" font-family="Times,serif" font-size="14.00">_layout</text>
</g>
<!-- ApplicationController -->
<g id="node13" class="node"><title>ApplicationController</title>
<path fill="none" stroke="black" d="M-349,-210C-349,-210 -237,-210 -237,-210 -231,-210 -225,-216 -225,-222 -225,-222 -225,-292 -225,-292 -225,-298 -231,-304 -237,-304 -237,-304 -349,-304 -349,-304 -355,-304 -361,-298 -361,-292 -361,-292 -361,-222 -361,-222 -361,-216 -355,-210 -349,-210"/>
<text text-anchor="middle" x="-293" y="-288.8" font-family="Times,serif" font-size="14.00">ApplicationController</text>
<polyline fill="none" stroke="black" points="-361,-281 -225,-281 "/>
<polyline fill="none" stroke="black" points="-361,-257 -225,-257 "/>
<polyline fill="none" stroke="black" points="-361,-233 -225,-233 "/>
<text text-anchor="start" x="-353" y="-217.8" font-family="Times,serif" font-size="14.00">_layout</text>
</g>
<!-- RatingsController -->
<g id="node14" class="node"><title>RatingsController</title>
<path fill="none" stroke="black" d="M335.5,322.5C335.5,322.5 424.5,322.5 424.5,322.5 430.5,322.5 436.5,316.5 436.5,310.5 436.5,310.5 436.5,121.5 436.5,121.5 436.5,115.5 430.5,109.5 424.5,109.5 424.5,109.5 335.5,109.5 335.5,109.5 329.5,109.5 323.5,115.5 323.5,121.5 323.5,121.5 323.5,310.5 323.5,310.5 323.5,316.5 329.5,322.5 335.5,322.5"/>
<text text-anchor="middle" x="380" y="124.7" font-family="Times,serif" font-size="14.00">RatingsController</text>
<polyline fill="none" stroke="black" points="323.5,132.5 436.5,132.5 "/>
<text text-anchor="start" x="331.5" y="147.7" font-family="Times,serif" font-size="14.00">create</text>
<text text-anchor="start" x="331.5" y="162.7" font-family="Times,serif" font-size="14.00">destroy</text>
<text text-anchor="start" x="331.5" y="177.7" font-family="Times,serif" font-size="14.00">edit</text>
<text text-anchor="start" x="331.5" y="192.7" font-family="Times,serif" font-size="14.00">index</text>
<text text-anchor="start" x="331.5" y="207.7" font-family="Times,serif" font-size="14.00">new</text>
<text text-anchor="start" x="331.5" y="222.7" font-family="Times,serif" font-size="14.00">show</text>
<text text-anchor="start" x="331.5" y="237.7" font-family="Times,serif" font-size="14.00">update</text>
<polyline fill="none" stroke="black" points="323.5,245.5 436.5,245.5 "/>
<polyline fill="none" stroke="black" points="323.5,269.5 436.5,269.5 "/>
<text text-anchor="start" x="331.5" y="284.7" font-family="Times,serif" font-size="14.00">_layout</text>
<text text-anchor="start" x="331.5" y="299.7" font-family="Times,serif" font-size="14.00">rating_params</text>
<text text-anchor="start" x="331.5" y="314.7" font-family="Times,serif" font-size="14.00">set_rating</text>
</g>
<!-- VenuesController -->
<g id="node15" class="node"><title>VenuesController</title>
<path fill="none" stroke="black" d="M335.5,75.5C335.5,75.5 424.5,75.5 424.5,75.5 430.5,75.5 436.5,69.5 436.5,63.5 436.5,63.5 436.5,-125.5 436.5,-125.5 436.5,-131.5 430.5,-137.5 424.5,-137.5 424.5,-137.5 335.5,-137.5 335.5,-137.5 329.5,-137.5 323.5,-131.5 323.5,-125.5 323.5,-125.5 323.5,63.5 323.5,63.5 323.5,69.5 329.5,75.5 335.5,75.5"/>
<text text-anchor="middle" x="380" y="-122.3" font-family="Times,serif" font-size="14.00">VenuesController</text>
<polyline fill="none" stroke="black" points="323.5,-114.5 436.5,-114.5 "/>
<text text-anchor="start" x="331.5" y="-99.3" font-family="Times,serif" font-size="14.00">create</text>
<text text-anchor="start" x="331.5" y="-84.3" font-family="Times,serif" font-size="14.00">destroy</text>
<text text-anchor="start" x="331.5" y="-69.3" font-family="Times,serif" font-size="14.00">edit</text>
<text text-anchor="start" x="331.5" y="-54.3" font-family="Times,serif" font-size="14.00">index</text>
<text text-anchor="start" x="331.5" y="-39.3" font-family="Times,serif" font-size="14.00">new</text>
<text text-anchor="start" x="331.5" y="-24.3" font-family="Times,serif" font-size="14.00">show</text>
<text text-anchor="start" x="331.5" y="-9.3" font-family="Times,serif" font-size="14.00">update</text>
<polyline fill="none" stroke="black" points="323.5,-1.5 436.5,-1.5 "/>
<polyline fill="none" stroke="black" points="323.5,22.5 436.5,22.5 "/>
<text text-anchor="start" x="331.5" y="37.7" font-family="Times,serif" font-size="14.00">_layout</text>
<text text-anchor="start" x="331.5" y="52.7" font-family="Times,serif" font-size="14.00">set_venue</text>
<text text-anchor="start" x="331.5" y="67.7" font-family="Times,serif" font-size="14.00">venue_params</text>
</g>
</g>
</svg>
