<?xml version="1.0" encoding="UTF-8" standalone="no"?>
<!DOCTYPE svg PUBLIC "-//W3C//DTD SVG 1.1//EN"
 "http://www.w3.org/Graphics/SVG/1.1/DTD/svg11.dtd">
<!-- Generated by graphviz version 2.38.0 (20140413.2041)
 -->
<!-- Title: controllers_diagram Pages: 1 -->
<svg width="532pt" height="494pt"
 viewBox="0.00 0.00 532.00 493.50" xmlns="http://www.w3.org/2000/svg" xmlns:xlink="http://www.w3.org/1999/xlink">
<g id="graph0" class="graph" transform="scale(1 1) rotate(0) translate(208 252)">
<title>controllers_diagram</title>
<polygon fill="none" stroke="none" points="-208,241.5 -208,-252 324,-252 324,241.5 -208,241.5"/>
<!-- _diagram_info -->
<g id="node1" class="node"><title>_diagram_info</title>
<text text-anchor="start" x="-145" y="-216.6" font-family="Times,serif" font-size="13.00">Controllers diagram</text>
<text text-anchor="start" x="-145" y="-202.6" font-family="Times,serif" font-size="13.00">Date: Jul 11 2016 &#45; 20:44</text>
<text text-anchor="start" x="-145" y="-188.6" font-family="Times,serif" font-size="13.00">Migration version: 20160711183238</text>
<text text-anchor="start" x="-145" y="-174.6" font-family="Times,serif" font-size="13.00">Generated by RailRoady 1.5.1</text>
<text text-anchor="start" x="-145" y="-160.6" font-family="Times,serif" font-size="13.00">http://railroady.prestonlee.com</text>
</g>
<!-- Users::OmniauthCallbacksController -->
<g id="node2" class="node"><title>Users::OmniauthCallbacksController</title>
<path fill="none" stroke="black" d="M114,101C114,101 308,101 308,101 314,101 320,95 320,89 320,89 320,5 320,5 320,-1 314,-7 308,-7 308,-7 114,-7 114,-7 108,-7 102,-1 102,5 102,5 102,89 102,89 102,95 108,101 114,101"/>
<text text-anchor="middle" x="211" y="8.2" font-family="Times,serif" font-size="14.00">Users::OmniauthCallbacksController</text>
<polyline fill="none" stroke="black" points="102,16 320,16 "/>
<text text-anchor="start" x="110" y="31.2" font-family="Times,serif" font-size="14.00">facebook</text>
<text text-anchor="start" x="110" y="46.2" font-family="Times,serif" font-size="14.00">failure</text>
<polyline fill="none" stroke="black" points="102,54 320,54 "/>
<polyline fill="none" stroke="black" points="102,78 320,78 "/>
<text text-anchor="start" x="110" y="93.2" font-family="Times,serif" font-size="14.00">_layout</text>
</g>
<!-- CategoriesController -->
<g id="node3" class="node"><title>CategoriesController</title>
<path fill="none" stroke="black" d="M-56,118.5C-56,118.5 50,118.5 50,118.5 56,118.5 62,112.5 62,106.5 62,106.5 62,-82.5 62,-82.5 62,-88.5 56,-94.5 50,-94.5 50,-94.5 -56,-94.5 -56,-94.5 -62,-94.5 -68,-88.5 -68,-82.5 -68,-82.5 -68,106.5 -68,106.5 -68,112.5 -62,118.5 -56,118.5"/>
<text text-anchor="middle" x="-3" y="-79.3" font-family="Times,serif" font-size="14.00">CategoriesController</text>
<polyline fill="none" stroke="black" points="-68,-71.5 62,-71.5 "/>
<text text-anchor="start" x="-60" y="-56.3" font-family="Times,serif" font-size="14.00">create</text>
<text text-anchor="start" x="-60" y="-41.3" font-family="Times,serif" font-size="14.00">destroy</text>
<text text-anchor="start" x="-60" y="-26.3" font-family="Times,serif" font-size="14.00">edit</text>
<text text-anchor="start" x="-60" y="-11.3" font-family="Times,serif" font-size="14.00">index</text>
<text text-anchor="start" x="-60" y="3.7" font-family="Times,serif" font-size="14.00">new</text>
<text text-anchor="start" x="-60" y="18.7" font-family="Times,serif" font-size="14.00">show</text>
<text text-anchor="start" x="-60" y="33.7" font-family="Times,serif" font-size="14.00">update</text>
<polyline fill="none" stroke="black" points="-68,41.5 62,41.5 "/>
<polyline fill="none" stroke="black" points="-68,65.5 62,65.5 "/>
<text text-anchor="start" x="-60" y="80.7" font-family="Times,serif" font-size="14.00">_layout</text>
<text text-anchor="start" x="-60" y="95.7" font-family="Times,serif" font-size="14.00">category_params</text>
<text text-anchor="start" x="-60" y="110.7" font-family="Times,serif" font-size="14.00">set_category</text>
</g>
<!-- TagsController -->
<g id="node4" class="node"><title>TagsController</title>
<path fill="none" stroke="black" d="M114,-34.5C114,-34.5 188,-34.5 188,-34.5 194,-34.5 200,-40.5 200,-46.5 200,-46.5 200,-235.5 200,-235.5 200,-241.5 194,-247.5 188,-247.5 188,-247.5 114,-247.5 114,-247.5 108,-247.5 102,-241.5 102,-235.5 102,-235.5 102,-46.5 102,-46.5 102,-40.5 108,-34.5 114,-34.5"/>
<text text-anchor="middle" x="151" y="-232.3" font-family="Times,serif" font-size="14.00">TagsController</text>
<polyline fill="none" stroke="black" points="102,-224.5 200,-224.5 "/>
<text text-anchor="start" x="110" y="-209.3" font-family="Times,serif" font-size="14.00">create</text>
<text text-anchor="start" x="110" y="-194.3" font-family="Times,serif" font-size="14.00">destroy</text>
<text text-anchor="start" x="110" y="-179.3" font-family="Times,serif" font-size="14.00">edit</text>
<text text-anchor="start" x="110" y="-164.3" font-family="Times,serif" font-size="14.00">index</text>
<text text-anchor="start" x="110" y="-149.3" font-family="Times,serif" font-size="14.00">new</text>
<text text-anchor="start" x="110" y="-134.3" font-family="Times,serif" font-size="14.00">show</text>
<text text-anchor="start" x="110" y="-119.3" font-family="Times,serif" font-size="14.00">update</text>
<polyline fill="none" stroke="black" points="102,-111.5 200,-111.5 "/>
<polyline fill="none" stroke="black" points="102,-87.5 200,-87.5 "/>
<text text-anchor="start" x="110" y="-72.3" font-family="Times,serif" font-size="14.00">_layout</text>
<text text-anchor="start" x="110" y="-57.3" font-family="Times,serif" font-size="14.00">set_tag</text>
<text text-anchor="start" x="110" y="-42.3" font-family="Times,serif" font-size="14.00">tag_params</text>
</g>
<!-- PagesController -->
<g id="node5" class="node"><title>PagesController</title>
<path fill="none" stroke="black" d="M-192,-18C-192,-18 -112,-18 -112,-18 -106,-18 -100,-24 -100,-30 -100,-30 -100,-100 -100,-100 -100,-106 -106,-112 -112,-112 -112,-112 -192,-112 -192,-112 -198,-112 -204,-106 -204,-100 -204,-100 -204,-30 -204,-30 -204,-24 -198,-18 -192,-18"/>
<text text-anchor="middle" x="-152" y="-96.8" font-family="Times,serif" font-size="14.00">PagesController</text>
<polyline fill="none" stroke="black" points="-204,-89 -100,-89 "/>
<polyline fill="none" stroke="black" points="-204,-65 -100,-65 "/>
<polyline fill="none" stroke="black" points="-204,-41 -100,-41 "/>
<text text-anchor="start" x="-196" y="-25.8" font-family="Times,serif" font-size="14.00">_layout</text>
</g>
<!-- ApplicationController -->
<g id="node6" class="node"><title>ApplicationController</title>
<path fill="none" stroke="black" d="M114,237C114,237 226,237 226,237 232,237 238,231 238,225 238,225 238,155 238,155 238,149 232,143 226,143 226,143 114,143 114,143 108,143 102,149 102,155 102,155 102,225 102,225 102,231 108,237 114,237"/>
<text text-anchor="middle" x="170" y="158.2" font-family="Times,serif" font-size="14.00">ApplicationController</text>
<polyline fill="none" stroke="black" points="102,166 238,166 "/>
<polyline fill="none" stroke="black" points="102,190 238,190 "/>
<polyline fill="none" stroke="black" points="102,214 238,214 "/>
<text text-anchor="start" x="110" y="229.2" font-family="Times,serif" font-size="14.00">_layout</text>
</g>
</g>
</svg>
