<?xml version="1.0" encoding="UTF-8" standalone="no"?>
<!DOCTYPE svg PUBLIC "-//W3C//DTD SVG 1.1//EN"
 "http://www.w3.org/Graphics/SVG/1.1/DTD/svg11.dtd">
<!-- Generated by graphviz version 2.38.0 (20140413.2041)
 -->
<!-- Title: models_diagram Pages: 1 -->
<svg width="1349pt" height="340pt"
 viewBox="0.00 0.00 1349.00 340.00" xmlns="http://www.w3.org/2000/svg" xmlns:xlink="http://www.w3.org/1999/xlink">
<g id="graph0" class="graph" transform="scale(1 1) rotate(0) translate(4 336)">
<title>models_diagram</title>
<polygon fill="none" stroke="none" points="-4,4 -4,-336 1345,-336 1345,4 -4,4"/>
<!-- _diagram_info -->
<g id="node1" class="node"><title>_diagram_info</title>
<text text-anchor="start" x="8" y="-190.6" font-family="Times,serif" font-size="13.00">Models diagram</text>
<text text-anchor="start" x="8" y="-176.6" font-family="Times,serif" font-size="13.00">Date: Jul 11 2016 &#45; 20:44</text>
<text text-anchor="start" x="8" y="-162.6" font-family="Times,serif" font-size="13.00">Migration version: 20160711183238</text>
<text text-anchor="start" x="8" y="-148.6" font-family="Times,serif" font-size="13.00">Generated by RailRoady 1.5.1</text>
<text text-anchor="start" x="8" y="-134.6" font-family="Times,serif" font-size="13.00">http://railroady.prestonlee.com</text>
</g>
<!-- Tag -->
<g id="node2" class="node"><title>Tag</title>
<path fill="none" stroke="black" d="M244,-113C244,-113 464,-113 464,-113 470,-113 476,-119 476,-125 476,-125 476,-207 476,-207 476,-213 470,-219 464,-219 464,-219 244,-219 244,-219 238,-219 232,-213 232,-207 232,-207 232,-125 232,-125 232,-119 238,-113 244,-113"/>
<text text-anchor="middle" x="354" y="-203.8" font-family="Times,serif" font-size="14.00">Tag</text>
<polyline fill="none" stroke="black" points="232,-196 476,-196 "/>
<text text-anchor="start" x="240" y="-180.8" font-family="Times,serif" font-size="14.00">id :integer</text>
<text text-anchor="start" x="240" y="-165.8" font-family="Times,serif" font-size="14.00">text :character varying</text>
<text text-anchor="start" x="240" y="-150.8" font-family="Times,serif" font-size="14.00">lang :integer</text>
<text text-anchor="start" x="240" y="-135.8" font-family="Times,serif" font-size="14.00">created_at :timestamp without time zone</text>
<text text-anchor="start" x="240" y="-120.8" font-family="Times,serif" font-size="14.00">updated_at :timestamp without time zone</text>
</g>
<!-- User -->
<g id="node3" class="node"><title>User</title>
<path fill="none" stroke="black" d="M506.5,-0.5C506.5,-0.5 795.5,-0.5 795.5,-0.5 801.5,-0.5 807.5,-6.5 807.5,-12.5 807.5,-12.5 807.5,-319.5 807.5,-319.5 807.5,-325.5 801.5,-331.5 795.5,-331.5 795.5,-331.5 506.5,-331.5 506.5,-331.5 500.5,-331.5 494.5,-325.5 494.5,-319.5 494.5,-319.5 494.5,-12.5 494.5,-12.5 494.5,-6.5 500.5,-0.5 506.5,-0.5"/>
<text text-anchor="middle" x="651" y="-316.3" font-family="Times,serif" font-size="14.00">User</text>
<polyline fill="none" stroke="black" points="494.5,-308.5 807.5,-308.5 "/>
<text text-anchor="start" x="502.5" y="-293.3" font-family="Times,serif" font-size="14.00">id :integer</text>
<text text-anchor="start" x="502.5" y="-278.3" font-family="Times,serif" font-size="14.00">email :character varying</text>
<text text-anchor="start" x="502.5" y="-263.3" font-family="Times,serif" font-size="14.00">encrypted_password :character varying</text>
<text text-anchor="start" x="502.5" y="-248.3" font-family="Times,serif" font-size="14.00">reset_password_token :character varying</text>
<text text-anchor="start" x="502.5" y="-233.3" font-family="Times,serif" font-size="14.00">reset_password_sent_at :timestamp without time zone</text>
<text text-anchor="start" x="502.5" y="-218.3" font-family="Times,serif" font-size="14.00">remember_created_at :timestamp without time zone</text>
<text text-anchor="start" x="502.5" y="-203.3" font-family="Times,serif" font-size="14.00">sign_in_count :integer</text>
<text text-anchor="start" x="502.5" y="-188.3" font-family="Times,serif" font-size="14.00">current_sign_in_at :timestamp without time zone</text>
<text text-anchor="start" x="502.5" y="-173.3" font-family="Times,serif" font-size="14.00">last_sign_in_at :timestamp without time zone</text>
<text text-anchor="start" x="502.5" y="-158.3" font-family="Times,serif" font-size="14.00">current_sign_in_ip :inet</text>
<text text-anchor="start" x="502.5" y="-143.3" font-family="Times,serif" font-size="14.00">last_sign_in_ip :inet</text>
<text text-anchor="start" x="502.5" y="-128.3" font-family="Times,serif" font-size="14.00">created_at :timestamp without time zone</text>
<text text-anchor="start" x="502.5" y="-113.3" font-family="Times,serif" font-size="14.00">updated_at :timestamp without time zone</text>
<text text-anchor="start" x="502.5" y="-98.3" font-family="Times,serif" font-size="14.00">provider :character varying</text>
<text text-anchor="start" x="502.5" y="-83.3" font-family="Times,serif" font-size="14.00">uid :character varying</text>
<text text-anchor="start" x="502.5" y="-68.3" font-family="Times,serif" font-size="14.00">name :character varying</text>
<text text-anchor="start" x="502.5" y="-53.3" font-family="Times,serif" font-size="14.00">first_name :character varying</text>
<text text-anchor="start" x="502.5" y="-38.3" font-family="Times,serif" font-size="14.00">locale :character varying</text>
<text text-anchor="start" x="502.5" y="-23.3" font-family="Times,serif" font-size="14.00">gender :character varying</text>
<text text-anchor="start" x="502.5" y="-8.3" font-family="Times,serif" font-size="14.00">image :character varying</text>
</g>
<!-- ApplicationRecord -->
<g id="node4" class="node"><title>ApplicationRecord</title>
<ellipse fill="none" stroke="black" cx="903" cy="-166" rx="77.1866" ry="18"/>
<text text-anchor="middle" x="903" y="-162.3" font-family="Times,serif" font-size="14.00">ApplicationRecord</text>
</g>
<!-- Category -->
<g id="node5" class="node"><title>Category</title>
<path fill="none" stroke="black" d="M1010,-113C1010,-113 1230,-113 1230,-113 1236,-113 1242,-119 1242,-125 1242,-125 1242,-207 1242,-207 1242,-213 1236,-219 1230,-219 1230,-219 1010,-219 1010,-219 1004,-219 998,-213 998,-207 998,-207 998,-125 998,-125 998,-119 1004,-113 1010,-113"/>
<text text-anchor="middle" x="1120" y="-203.8" font-family="Times,serif" font-size="14.00">Category</text>
<polyline fill="none" stroke="black" points="998,-196 1242,-196 "/>
<text text-anchor="start" x="1006" y="-180.8" font-family="Times,serif" font-size="14.00">id :integer</text>
<text text-anchor="start" x="1006" y="-165.8" font-family="Times,serif" font-size="14.00">parent_id :integer</text>
<text text-anchor="start" x="1006" y="-150.8" font-family="Times,serif" font-size="14.00">name_translations :hstore</text>
<text text-anchor="start" x="1006" y="-135.8" font-family="Times,serif" font-size="14.00">created_at :timestamp without time zone</text>
<text text-anchor="start" x="1006" y="-120.8" font-family="Times,serif" font-size="14.00">updated_at :timestamp without time zone</text>
</g>
<!-- Category&#45;&gt;Category -->
<g id="edge1" class="edge"><title>Category&#45;&gt;Category</title>
<path fill="none" stroke="#80b1f1" d="M1250.12,-178.621C1256.34,-175.452 1260,-171.245 1260,-166 1260,-161.201 1256.94,-157.271 1251.65,-154.21"/>
<ellipse fill="none" stroke="#80b1f1" cx="1246.12" cy="-180.19" rx="4.00001" ry="4.00001"/>
<polygon fill="#80b1f1" stroke="#80b1f1" points="1251.63,-154.202 1244.13,-146.195 1247.01,-152.275 1242.4,-150.348 1242.4,-150.348 1242.4,-150.348 1247.01,-152.275 1240.67,-154.5 1251.63,-154.202 1251.63,-154.202"/>
<text text-anchor="middle" x="1300.5" y="-162.3" font-family="Times,serif" font-size="14.00">sub_categories</text>
</g>
</g>
</svg>
