<?xml version="1.0" encoding="UTF-8" standalone="no"?>
<!DOCTYPE svg PUBLIC "-//W3C//DTD SVG 1.1//EN"
 "http://www.w3.org/Graphics/SVG/1.1/DTD/svg11.dtd">
<!-- Generated by graphviz version 2.38.0 (20140413.2041)
 -->
<!-- Title: models_diagram Pages: 1 -->
<svg width="1347pt" height="552pt"
 viewBox="0.00 0.00 1347.44 552.00" xmlns="http://www.w3.org/2000/svg" xmlns:xlink="http://www.w3.org/1999/xlink">
<g id="graph0" class="graph" transform="scale(1 1) rotate(0) translate(4 548)">
<title>models_diagram</title>
<polygon fill="none" stroke="none" points="-4,4 -4,-548 1343.44,-548 1343.44,4 -4,4"/>
<!-- _diagram_info -->
<g id="node1" class="node"><title>_diagram_info</title>
<text text-anchor="start" x="586.547" y="-529.6" font-family="Times,serif" font-size="13.00">Models diagram</text>
<text text-anchor="start" x="586.547" y="-515.6" font-family="Times,serif" font-size="13.00">Date: Jul 12 2016 &#45; 19:32</text>
<text text-anchor="start" x="586.547" y="-501.6" font-family="Times,serif" font-size="13.00">Migration version: 20160712171129</text>
<text text-anchor="start" x="586.547" y="-487.6" font-family="Times,serif" font-size="13.00">Generated by RailRoady 1.5.1</text>
<text text-anchor="start" x="586.547" y="-473.6" font-family="Times,serif" font-size="13.00">http://railroady.prestonlee.com</text>
</g>
<!-- Registration -->
<g id="node2" class="node"><title>Registration</title>
<ellipse fill="none" stroke="black" cx="670.547" cy="-91" rx="53.8905" ry="18"/>
<text text-anchor="middle" x="670.547" y="-87.3" font-family="Times,serif" font-size="14.00">Registration</text>
</g>
<!-- Participation -->
<g id="node6" class="node"><title>Participation</title>
<ellipse fill="none" stroke="black" cx="670.547" cy="-18" rx="55.7903" ry="18"/>
<text text-anchor="middle" x="670.547" y="-14.3" font-family="Times,serif" font-size="14.00">Participation</text>
</g>
<!-- Registration&#45;&gt;Participation -->
<g id="edge1" class="edge"><title>Registration&#45;&gt;Participation</title>
<path fill="none" stroke="#3bab96" d="M670.547,-64.791C670.547,-58.832 670.547,-52.4496 670.547,-46.3988"/>
<ellipse fill="none" stroke="#3bab96" cx="670.547" cy="-68.8129" rx="4" ry="4"/>
<polygon fill="#3bab96" stroke="#3bab96" points="670.547,-46.0288 675.047,-36.0288 670.547,-41.0288 670.547,-36.0288 670.547,-36.0288 670.547,-36.0288 670.547,-41.0288 666.047,-36.0289 670.547,-46.0288 670.547,-46.0288"/>
</g>
<!-- Level -->
<g id="node3" class="node"><title>Level</title>
<ellipse fill="none" stroke="black" cx="30.5473" cy="-411" rx="30.5947" ry="18"/>
<text text-anchor="middle" x="30.5473" y="-407.3" font-family="Times,serif" font-size="14.00">Level</text>
</g>
<!-- WorkshopSession -->
<g id="node8" class="node"><title>WorkshopSession</title>
<ellipse fill="none" stroke="black" cx="476.547" cy="-164" rx="74.9875" ry="18"/>
<text text-anchor="middle" x="476.547" y="-160.3" font-family="Times,serif" font-size="14.00">WorkshopSession</text>
</g>
<!-- Level&#45;&gt;WorkshopSession -->
<g id="edge2" class="edge"><title>Level&#45;&gt;WorkshopSession</title>
<path fill="none" stroke="#09b066" d="M35.2829,-385.154C37.9703,-376.374 42.1342,-366.961 48.5473,-360 147.433,-252.659 316.875,-200.15 410.145,-178.233"/>
<ellipse fill="none" stroke="#09b066" cx="34.2366" cy="-389.086" rx="4.00001" ry="4.00001"/>
<polygon fill="#09b066" stroke="#09b066" points="410.285,-178.2 421.039,-180.343 415.157,-177.079 420.03,-175.957 420.03,-175.957 420.03,-175.957 415.157,-177.079 419.02,-171.572 410.285,-178.2 410.285,-178.2"/>
</g>
<!-- Workshop -->
<g id="node11" class="node"><title>Workshop</title>
<ellipse fill="none" stroke="black" cx="398.547" cy="-324" rx="48.1917" ry="18"/>
<text text-anchor="middle" x="398.547" y="-320.3" font-family="Times,serif" font-size="14.00">Workshop</text>
</g>
<!-- Level&#45;&gt;Workshop -->
<g id="edge3" class="edge"><title>Level&#45;&gt;Workshop</title>
<path fill="none" stroke="#5c4143" d="M44.0115,-384.488C50.2195,-375.24 58.4706,-365.68 68.5473,-360 113.669,-334.565 258.207,-327.593 340.245,-325.696"/>
<polygon fill="#5c4143" stroke="#5c4143" points="43.9375,-384.608 34.8613,-390.762 41.3151,-388.865 38.6927,-393.122 38.6927,-393.122 38.6927,-393.122 41.3151,-388.865 42.5241,-395.482 43.9375,-384.608 43.9375,-384.608"/>
<polygon fill="#5c4143" stroke="#5c4143" points="340.418,-325.693 350.512,-329.979 345.417,-325.586 350.416,-325.48 350.416,-325.48 350.416,-325.48 345.417,-325.586 350.32,-320.981 340.418,-325.693 340.418,-325.693"/>
</g>
<!-- Booking -->
<g id="node4" class="node"><title>Booking</title>
<ellipse fill="none" stroke="black" cx="851.547" cy="-505" rx="40.8928" ry="18"/>
<text text-anchor="middle" x="851.547" y="-501.3" font-family="Times,serif" font-size="14.00">Booking</text>
</g>
<!-- Booking&#45;&gt;Registration -->
<g id="edge4" class="edge"><title>Booking&#45;&gt;Registration</title>
<path fill="none" stroke="#7ec063" d="M874.867,-482.912C897.529,-461.423 928.547,-428.921 928.547,-412 928.547,-412 928.547,-412 928.547,-163 928.547,-122.211 807.153,-103.973 730.904,-96.5406"/>
<ellipse fill="none" stroke="#7ec063" cx="871.939" cy="-485.655" rx="4.00002" ry="4.00002"/>
<ellipse fill="#7ec063" stroke="#7ec063" cx="726.74" cy="-96.147" rx="4" ry="4"/>
</g>
<!-- User -->
<g id="node7" class="node"><title>User</title>
<ellipse fill="none" stroke="black" cx="642.547" cy="-411" rx="27.0966" ry="18"/>
<text text-anchor="middle" x="642.547" y="-407.3" font-family="Times,serif" font-size="14.00">User</text>
</g>
<!-- Booking&#45;&gt;User -->
<g id="edge5" class="edge"><title>Booking&#45;&gt;User</title>
<path fill="none" stroke="#47f7b1" d="M827.629,-483.338C819.693,-477.178 810.573,-470.798 801.547,-466 760.494,-444.175 708.882,-428.585 675.801,-419.932"/>
<ellipse fill="none" stroke="#47f7b1" cx="830.863" cy="-485.924" rx="4.00002" ry="4.00002"/>
<ellipse fill="#47f7b1" stroke="#47f7b1" cx="671.682" cy="-418.876" rx="4.00001" ry="4.00001"/>
</g>
<!-- Tag -->
<g id="node5" class="node"><title>Tag</title>
<ellipse fill="none" stroke="black" cx="937.547" cy="-505" rx="27" ry="18"/>
<text text-anchor="middle" x="937.547" y="-501.3" font-family="Times,serif" font-size="14.00">Tag</text>
</g>
<!-- User&#45;&gt;Registration -->
<g id="edge11" class="edge"><title>User&#45;&gt;Registration</title>
<path fill="none" stroke="#04c19f" d="M678.071,-410.857C737.957,-410.253 852.547,-399.378 852.547,-325 852.547,-325 852.547,-325 852.547,-163 852.547,-135.598 780.037,-114.501 726.553,-102.667"/>
<ellipse fill="none" stroke="#04c19f" cx="674.001" cy="-410.869" rx="4" ry="4"/>
<polygon fill="#04c19f" stroke="#04c19f" points="726.249,-102.602 717.421,-96.096 721.361,-101.548 716.474,-100.495 716.474,-100.495 716.474,-100.495 721.361,-101.548 715.526,-104.894 726.249,-102.602 726.249,-102.602"/>
</g>
<!-- User&#45;&gt;Participation -->
<g id="edge13" class="edge"><title>User&#45;&gt;Participation</title>
<path fill="none" stroke="#03f08d" d="M679.67,-406.862C731.212,-401.978 821.307,-391.385 849.547,-375 874.404,-360.578 890.547,-353.738 890.547,-325 890.547,-325 890.547,-325 890.547,-90 890.547,-56.523 797.122,-36.5263 732.034,-26.6572"/>
<polygon fill="#03f08d" stroke="#03f08d" points="679.556,-406.872 669.186,-403.308 674.577,-407.331 669.598,-407.79 669.598,-407.79 669.598,-407.79 674.577,-407.331 670.011,-412.271 679.556,-406.872 679.556,-406.872"/>
<polygon fill="#03f08d" stroke="#03f08d" points="731.743,-26.6145 722.505,-20.7075 726.797,-25.8871 721.85,-25.1597 721.85,-25.1597 721.85,-25.1597 726.797,-25.8871 721.195,-29.6118 731.743,-26.6145 731.743,-26.6145"/>
</g>
<!-- User&#45;&gt;WorkshopSession -->
<g id="edge9" class="edge"><title>User&#45;&gt;WorkshopSession</title>
<path fill="none" stroke="#a74a42" d="M630.573,-386.393C626.083,-377.938 620.793,-368.419 615.547,-360 604.84,-342.815 529.941,-238.87 494.743,-190.156"/>
<ellipse fill="none" stroke="#a74a42" cx="632.437" cy="-389.953" rx="4.00002" ry="4.00002"/>
<polygon fill="#a74a42" stroke="#a74a42" points="494.713,-190.114 492.502,-179.373 491.784,-186.062 488.855,-182.009 488.855,-182.009 488.855,-182.009 491.784,-186.062 485.208,-184.645 494.713,-190.114 494.713,-190.114"/>
</g>
<!-- Rating -->
<g id="node10" class="node"><title>Rating</title>
<ellipse fill="none" stroke="black" cx="679.547" cy="-324" rx="34.394" ry="18"/>
<text text-anchor="middle" x="679.547" y="-320.3" font-family="Times,serif" font-size="14.00">Rating</text>
</g>
<!-- User&#45;&gt;Rating -->
<g id="edge6" class="edge"><title>User&#45;&gt;Rating</title>
<path fill="none" stroke="#e5cf12" d="M658.73,-387.568C661.237,-383.507 663.627,-379.219 665.547,-375 668.834,-367.78 671.515,-359.616 673.619,-352.009"/>
<ellipse fill="none" stroke="#e5cf12" cx="656.351" cy="-391.218" rx="4.00002" ry="4.00002"/>
<polygon fill="#e5cf12" stroke="#e5cf12" points="673.668,-351.815 680.494,-343.233 674.901,-346.97 676.133,-342.124 676.133,-342.124 676.133,-342.124 674.901,-346.97 671.772,-341.015 673.668,-351.815 673.668,-351.815"/>
</g>
<!-- User&#45;&gt;Workshop -->
<g id="edge8" class="edge"><title>User&#45;&gt;Workshop</title>
<path fill="none" stroke="#c2dceb" d="M608.349,-404.051C581.089,-398.579 542.35,-389.147 510.547,-375 499.397,-370.04 498.393,-365.595 487.547,-360 473.401,-352.702 457.367,-345.961 442.844,-340.384"/>
<ellipse fill="none" stroke="#c2dceb" cx="612.494" cy="-404.858" rx="4.00001" ry="4.00001"/>
<polygon fill="#c2dceb" stroke="#c2dceb" points="442.435,-340.23 434.654,-332.503 437.754,-338.473 433.073,-336.716 433.073,-336.716 433.073,-336.716 437.754,-338.473 431.492,-340.929 442.435,-340.23 442.435,-340.23"/>
<text text-anchor="middle" x="563.047" y="-363.8" font-family="Times,serif" font-size="14.00">workshops_offered</text>
</g>
<!-- User&#45;&gt;Workshop -->
<g id="edge10" class="edge"><title>User&#45;&gt;Workshop</title>
<path fill="none" stroke="#e64a50" d="M605.011,-409.077C481.516,-405.86 94.6686,-394.277 76.5473,-375 39.4597,-335.548 237.88,-327.14 340.341,-325.408"/>
<polygon fill="#e64a50" stroke="#e64a50" points="605.126,-409.08 615.007,-413.835 610.124,-409.208 615.122,-409.337 615.122,-409.337 615.122,-409.337 610.124,-409.208 615.238,-404.838 605.126,-409.08 605.126,-409.08"/>
<polygon fill="#e64a50" stroke="#e64a50" points="340.545,-325.405 350.613,-329.752 345.545,-325.329 350.544,-325.253 350.544,-325.253 350.544,-325.253 345.545,-325.329 350.475,-320.753 340.545,-325.405 340.545,-325.405"/>
<text text-anchor="middle" x="128.547" y="-363.8" font-family="Times,serif" font-size="14.00">workshops_tutored</text>
</g>
<!-- User&#45;&gt;Workshop -->
<g id="edge12" class="edge"><title>User&#45;&gt;Workshop</title>
<path fill="none" stroke="#e1a5f4" d="M605.075,-409.852C503.823,-409.065 230.537,-404.228 203.547,-375 199.024,-370.102 199.27,-365.114 203.547,-360 220.787,-339.391 289.614,-330.901 340.641,-327.414"/>
<polygon fill="#e1a5f4" stroke="#e1a5f4" points="605.16,-409.853 615.129,-414.421 610.16,-409.887 615.16,-409.921 615.16,-409.921 615.16,-409.921 610.16,-409.887 615.191,-405.422 605.16,-409.853 605.16,-409.853"/>
<polygon fill="#e1a5f4" stroke="#e1a5f4" points="340.931,-327.395 351.196,-331.253 345.921,-327.079 350.91,-326.762 350.91,-326.762 350.91,-326.762 345.921,-327.079 350.625,-322.271 340.931,-327.395 340.931,-327.395"/>
<text text-anchor="middle" x="263.047" y="-363.8" font-family="Times,serif" font-size="14.00">workshops_registered</text>
</g>
<!-- Comment -->
<g id="node13" class="node"><title>Comment</title>
<ellipse fill="none" stroke="black" cx="778.547" cy="-324" rx="46.2923" ry="18"/>
<text text-anchor="middle" x="778.547" y="-320.3" font-family="Times,serif" font-size="14.00">Comment</text>
</g>
<!-- User&#45;&gt;Comment -->
<g id="edge7" class="edge"><title>User&#45;&gt;Comment</title>
<path fill="none" stroke="#598a5e" d="M668.742,-393.628C690.841,-379.816 722.565,-359.989 746.237,-345.194"/>
<ellipse fill="none" stroke="#598a5e" cx="665.136" cy="-395.882" rx="4.00002" ry="4.00002"/>
<polygon fill="#598a5e" stroke="#598a5e" points="746.399,-345.093 757.264,-343.609 750.639,-342.443 754.879,-339.793 754.879,-339.793 754.879,-339.793 750.639,-342.443 752.494,-335.977 746.399,-345.093 746.399,-345.093"/>
</g>
<!-- WorkshopSession&#45;&gt;Registration -->
<g id="edge15" class="edge"><title>WorkshopSession&#45;&gt;Registration</title>
<path fill="none" stroke="#81b1b1" d="M521.326,-144.25C535.407,-138.526 551.061,-132.338 565.547,-127 584.346,-120.073 605.248,-112.983 623.423,-107.011"/>
<polygon fill="#81b1b1" stroke="#81b1b1" points="521.117,-144.336 510.158,-143.958 516.49,-146.229 511.862,-148.123 511.862,-148.123 511.862,-148.123 516.49,-146.229 513.567,-152.288 521.117,-144.336 521.117,-144.336"/>
<polygon fill="#81b1b1" stroke="#81b1b1" points="623.424,-107.011 634.327,-108.185 628.177,-105.459 632.93,-103.907 632.93,-103.907 632.93,-103.907 628.177,-105.459 631.534,-99.6297 623.424,-107.011 623.424,-107.011"/>
</g>
<!-- WorkshopSession&#45;&gt;Participation -->
<g id="edge14" class="edge"><title>WorkshopSession&#45;&gt;Participation</title>
<path fill="none" stroke="#6f9191" d="M504.921,-141.939C541.29,-114.944 604.047,-68.3611 640.982,-40.9453"/>
<ellipse fill="none" stroke="#6f9191" cx="501.636" cy="-144.377" rx="4.00002" ry="4.00002"/>
<polygon fill="#6f9191" stroke="#6f9191" points="641.311,-40.7013 652.023,-38.3545 645.326,-37.7212 649.341,-34.7411 649.341,-34.7411 649.341,-34.7411 645.326,-37.7212 646.658,-31.1277 641.311,-40.7013 641.311,-40.7013"/>
</g>
<!-- WorkshopSession&#45;&gt;User -->
<g id="edge16" class="edge"><title>WorkshopSession&#45;&gt;User</title>
<path fill="none" stroke="#e618ea" d="M507.736,-187.323C533.692,-207.269 570.07,-238.59 593.547,-273 617.533,-308.155 620.787,-319.4 633.547,-360 635.812,-367.206 637.569,-375.186 638.904,-382.617"/>
<polygon fill="#e618ea" stroke="#e618ea" points="507.684,-187.284 502.416,-177.666 503.694,-184.27 499.704,-181.257 499.704,-181.257 499.704,-181.257 503.694,-184.27 496.992,-184.848 507.684,-187.284 507.684,-187.284"/>
<polygon fill="#e618ea" stroke="#e618ea" points="638.924,-382.744 636.077,-393.334 639.722,-387.68 640.52,-392.616 640.52,-392.616 640.52,-392.616 639.722,-387.68 644.962,-391.898 638.924,-382.744 638.924,-382.744"/>
<text text-anchor="middle" x="634.547" y="-276.8" font-family="Times,serif" font-size="14.00">participants</text>
</g>
<!-- ApplicationRecord -->
<g id="node9" class="node"><title>ApplicationRecord</title>
<ellipse fill="none" stroke="black" cx="1059.55" cy="-505" rx="77.1866" ry="18"/>
<text text-anchor="middle" x="1059.55" y="-501.3" font-family="Times,serif" font-size="14.00">ApplicationRecord</text>
</g>
<!-- Workshop&#45;&gt;Registration -->
<g id="edge20" class="edge"><title>Workshop&#45;&gt;Registration</title>
<path fill="none" stroke="#07b39d" d="M432.402,-305.096C455.138,-292.404 485.263,-274.263 509.547,-255 564.704,-211.247 620.554,-150.076 649.772,-116.488"/>
<ellipse fill="none" stroke="#07b39d" cx="428.798" cy="-307.087" rx="4.00002" ry="4.00002"/>
<polygon fill="#07b39d" stroke="#07b39d" points="650.073,-116.138 660.015,-111.511 653.341,-112.354 656.609,-108.57 656.609,-108.57 656.609,-108.57 653.341,-112.354 653.204,-105.629 650.073,-116.138 650.073,-116.138"/>
</g>
<!-- Workshop&#45;&gt;User -->
<g id="edge19" class="edge"><title>Workshop&#45;&gt;User</title>
<path fill="none" stroke="#a6b190" d="M359.562,-343.681C345.755,-352.752 335.803,-364.04 345.547,-375 362.536,-394.108 529.23,-404.533 605.182,-408.324"/>
<polygon fill="#a6b190" stroke="#a6b190" points="359.926,-343.464 370.819,-342.207 364.22,-340.903 368.515,-338.342 368.515,-338.342 368.515,-338.342 364.22,-340.903 366.21,-334.477 359.926,-343.464 359.926,-343.464"/>
<polygon fill="#a6b190" stroke="#a6b190" points="605.284,-408.329 615.053,-413.31 610.278,-408.572 615.272,-408.815 615.272,-408.815 615.272,-408.815 610.278,-408.572 615.491,-404.32 605.284,-408.329 605.284,-408.329"/>
<text text-anchor="middle" x="361.047" y="-363.8" font-family="Times,serif" font-size="14.00">tutors</text>
</g>
<!-- Workshop&#45;&gt;User -->
<g id="edge21" class="edge"><title>Workshop&#45;&gt;User</title>
<path fill="none" stroke="#8cf5ca" d="M390.031,-352.255C389.164,-360.408 390.175,-368.813 395.547,-375 422.189,-405.683 542.48,-410.19 604.819,-410.409"/>
<polygon fill="#8cf5ca" stroke="#8cf5ca" points="390.066,-352.07 396.367,-343.095 391.007,-347.159 391.947,-342.248 391.947,-342.248 391.947,-342.248 391.007,-347.159 387.528,-341.402 390.066,-352.07 390.066,-352.07"/>
<polygon fill="#8cf5ca" stroke="#8cf5ca" points="605.027,-410.409 615.028,-414.908 610.027,-410.409 615.027,-410.408 615.027,-410.408 615.027,-410.408 610.027,-410.409 615.027,-405.908 605.027,-410.409 605.027,-410.409"/>
<text text-anchor="middle" x="439.547" y="-363.8" font-family="Times,serif" font-size="14.00">registered_users</text>
</g>
<!-- Workshop&#45;&gt;WorkshopSession -->
<g id="edge17" class="edge"><title>Workshop&#45;&gt;WorkshopSession</title>
<path fill="none" stroke="#5cc025" d="M400.808,-297.61C403.631,-275.658 409.881,-243.664 423.547,-219 429.814,-207.689 439.098,-197.093 448.152,-188.334"/>
<ellipse fill="none" stroke="#5cc025" cx="400.319" cy="-301.807" rx="4.00001" ry="4.00001"/>
<polygon fill="#5cc025" stroke="#5cc025" points="448.282,-188.214 458.684,-184.74 451.957,-184.823 455.632,-181.433 455.632,-181.433 455.632,-181.433 451.957,-184.823 452.581,-178.125 448.282,-188.214 448.282,-188.214"/>
</g>
<!-- Venue -->
<g id="node14" class="node"><title>Venue</title>
<ellipse fill="none" stroke="black" cx="466.547" cy="-237" rx="33.5952" ry="18"/>
<text text-anchor="middle" x="466.547" y="-233.3" font-family="Times,serif" font-size="14.00">Venue</text>
</g>
<!-- Workshop&#45;&gt;Venue -->
<g id="edge18" class="edge"><title>Workshop&#45;&gt;Venue</title>
<path fill="none" stroke="#8edee8" d="M418.081,-298.583C427.362,-286.982 438.411,-273.171 447.613,-261.668"/>
<polygon fill="#8edee8" stroke="#8edee8" points="417.905,-298.802 408.144,-303.8 414.782,-302.707 411.658,-306.611 411.658,-306.611 411.658,-306.611 414.782,-302.707 415.172,-309.422 417.905,-298.802 417.905,-298.802"/>
<polygon fill="#8edee8" stroke="#8edee8" points="447.689,-261.573 457.45,-256.575 450.813,-257.668 453.936,-253.764 453.936,-253.764 453.936,-253.764 450.813,-257.668 450.422,-250.953 447.689,-261.573 447.689,-261.573"/>
</g>
<!-- Category -->
<g id="node12" class="node"><title>Category</title>
<ellipse fill="none" stroke="black" cx="1197.55" cy="-505" rx="42.7926" ry="18"/>
<text text-anchor="middle" x="1197.55" y="-501.3" font-family="Times,serif" font-size="14.00">Category</text>
</g>
<!-- Category&#45;&gt;Category -->
<g id="edge22" class="edge"><title>Category&#45;&gt;Category</title>
<path fill="none" stroke="#5b1797" d="M1240.8,-515.292C1250.95,-514.444 1258.44,-511.014 1258.44,-505 1258.44,-499.399 1251.95,-496.039 1242.85,-494.919"/>
<ellipse fill="none" stroke="#5b1797" cx="1236.59" cy="-515.366" rx="4" ry="4"/>
<polygon fill="#5b1797" stroke="#5b1797" points="1242.59,-494.91 1232.75,-490.067 1237.59,-494.737 1232.59,-494.564 1232.59,-494.564 1232.59,-494.564 1237.59,-494.737 1232.44,-499.061 1242.59,-494.91 1242.59,-494.91"/>
<text text-anchor="middle" x="1298.94" y="-501.3" font-family="Times,serif" font-size="14.00">sub_categories</text>
</g>
<!-- Venue&#45;&gt;WorkshopSession -->
<g id="edge23" class="edge"><title>Venue&#45;&gt;WorkshopSession</title>
<path fill="none" stroke="#2edfa4" d="M470.098,-210.791C470.958,-204.683 471.881,-198.13 472.752,-191.946"/>
<ellipse fill="none" stroke="#2edfa4" cx="469.526" cy="-214.852" rx="4.00001" ry="4.00001"/>
<polygon fill="#2edfa4" stroke="#2edfa4" points="472.754,-191.931 478.605,-182.656 473.451,-186.98 474.149,-182.029 474.149,-182.029 474.149,-182.029 473.451,-186.98 469.693,-181.401 472.754,-191.931 472.754,-191.931"/>
</g>
</g>
</svg>
