<?xml version="1.0" encoding="UTF-8" standalone="no"?>
<!DOCTYPE svg PUBLIC "-//W3C//DTD SVG 1.1//EN"
 "http://www.w3.org/Graphics/SVG/1.1/DTD/svg11.dtd">
<!-- Generated by graphviz version 2.38.0 (20140413.2041)
 -->
<!-- Title: models_diagram Pages: 1 -->
<svg width="1442pt" height="1583pt"
 viewBox="0.00 0.00 1442.00 1583.00" xmlns="http://www.w3.org/2000/svg" xmlns:xlink="http://www.w3.org/1999/xlink">
<g id="graph0" class="graph" transform="scale(1 1) rotate(0) translate(4 1579)">
<title>models_diagram</title>
<polygon fill="none" stroke="none" points="-4,4 -4,-1579 1438,-1579 1438,4 -4,4"/>
<!-- _diagram_info -->
<g id="node1" class="node"><title>_diagram_info</title>
<text text-anchor="start" x="8" y="-1538.6" font-family="Times,serif" font-size="13.00">Models diagram</text>
<text text-anchor="start" x="8" y="-1524.6" font-family="Times,serif" font-size="13.00">Date: Jul 13 2016 &#45; 00:49</text>
<text text-anchor="start" x="8" y="-1510.6" font-family="Times,serif" font-size="13.00">Migration version: 20160712171129</text>
</g>
<!-- Level -->
<g id="node2" class="node"><title>Level</title>
<path fill="none" stroke="black" d="M244,-1453.5C244,-1453.5 464,-1453.5 464,-1453.5 470,-1453.5 476,-1459.5 476,-1465.5 476,-1465.5 476,-1562.5 476,-1562.5 476,-1568.5 470,-1574.5 464,-1574.5 464,-1574.5 244,-1574.5 244,-1574.5 238,-1574.5 232,-1568.5 232,-1562.5 232,-1562.5 232,-1465.5 232,-1465.5 232,-1459.5 238,-1453.5 244,-1453.5"/>
<text text-anchor="middle" x="354" y="-1559.3" font-family="Times,serif" font-size="14.00">Level</text>
<polyline fill="none" stroke="black" points="232,-1551.5 476,-1551.5 "/>
<text text-anchor="start" x="240" y="-1536.3" font-family="Times,serif" font-size="14.00">id :integer</text>
<text text-anchor="start" x="240" y="-1521.3" font-family="Times,serif" font-size="14.00">name_translations :hstore</text>
<text text-anchor="start" x="240" y="-1506.3" font-family="Times,serif" font-size="14.00">value :integer</text>
<text text-anchor="start" x="240" y="-1491.3" font-family="Times,serif" font-size="14.00">is_active :boolean</text>
<text text-anchor="start" x="240" y="-1476.3" font-family="Times,serif" font-size="14.00">created_at :timestamp without time zone</text>
<text text-anchor="start" x="240" y="-1461.3" font-family="Times,serif" font-size="14.00">updated_at :timestamp without time zone</text>
</g>
<!-- WorkshopSession -->
<g id="node7" class="node"><title>WorkshopSession</title>
<path fill="none" stroke="black" d="M521,-1144.5C521,-1144.5 741,-1144.5 741,-1144.5 747,-1144.5 753,-1150.5 753,-1156.5 753,-1156.5 753,-1403.5 753,-1403.5 753,-1409.5 747,-1415.5 741,-1415.5 741,-1415.5 521,-1415.5 521,-1415.5 515,-1415.5 509,-1409.5 509,-1403.5 509,-1403.5 509,-1156.5 509,-1156.5 509,-1150.5 515,-1144.5 521,-1144.5"/>
<text text-anchor="middle" x="631" y="-1400.3" font-family="Times,serif" font-size="14.00">WorkshopSession</text>
<polyline fill="none" stroke="black" points="509,-1392.5 753,-1392.5 "/>
<text text-anchor="start" x="517" y="-1377.3" font-family="Times,serif" font-size="14.00">id :integer</text>
<text text-anchor="start" x="517" y="-1362.3" font-family="Times,serif" font-size="14.00">title_translations :hstore</text>
<text text-anchor="start" x="517" y="-1347.3" font-family="Times,serif" font-size="14.00">subtitle_translations :hstore</text>
<text text-anchor="start" x="517" y="-1332.3" font-family="Times,serif" font-size="14.00">description_translations :hstore</text>
<text text-anchor="start" x="517" y="-1317.3" font-family="Times,serif" font-size="14.00">starts_at :timestamp without time zone</text>
<text text-anchor="start" x="517" y="-1302.3" font-family="Times,serif" font-size="14.00">ends_at :timestamp without time zone</text>
<text text-anchor="start" x="517" y="-1287.3" font-family="Times,serif" font-size="14.00">level_id :integer</text>
<text text-anchor="start" x="517" y="-1272.3" font-family="Times,serif" font-size="14.00">main_image :character varying</text>
<text text-anchor="start" x="517" y="-1257.3" font-family="Times,serif" font-size="14.00">more_images :character varying</text>
<text text-anchor="start" x="517" y="-1242.3" font-family="Times,serif" font-size="14.00">tutor_id :integer</text>
<text text-anchor="start" x="517" y="-1227.3" font-family="Times,serif" font-size="14.00">workshop_id :integer</text>
<text text-anchor="start" x="517" y="-1212.3" font-family="Times,serif" font-size="14.00">venue_id :integer</text>
<text text-anchor="start" x="517" y="-1197.3" font-family="Times,serif" font-size="14.00">minimum_participation_count :integer</text>
<text text-anchor="start" x="517" y="-1182.3" font-family="Times,serif" font-size="14.00">maximum_participation_count :integer</text>
<text text-anchor="start" x="517" y="-1167.3" font-family="Times,serif" font-size="14.00">created_at :timestamp without time zone</text>
<text text-anchor="start" x="517" y="-1152.3" font-family="Times,serif" font-size="14.00">updated_at :timestamp without time zone</text>
</g>
<!-- Level&#45;&gt;WorkshopSession -->
<g id="edge1" class="edge"><title>Level&#45;&gt;WorkshopSession</title>
<path fill="none" stroke="#a980cb" d="M431.685,-1447.94C453.313,-1429.82 477.411,-1409.64 501.167,-1389.74"/>
<ellipse fill="none" stroke="#a980cb" cx="428.401" cy="-1450.69" rx="4.00002" ry="4.00002"/>
<polygon fill="#a980cb" stroke="#a980cb" points="501.198,-1389.71 511.754,-1386.74 505.031,-1386.5 508.864,-1383.29 508.864,-1383.29 508.864,-1383.29 505.031,-1386.5 505.975,-1379.84 501.198,-1389.71 501.198,-1389.71"/>
</g>
<!-- Workshop -->
<g id="node10" class="node"><title>Workshop</title>
<path fill="none" stroke="black" d="M384,-423.5C384,-423.5 644,-423.5 644,-423.5 650,-423.5 656,-429.5 656,-435.5 656,-435.5 656,-697.5 656,-697.5 656,-703.5 650,-709.5 644,-709.5 644,-709.5 384,-709.5 384,-709.5 378,-709.5 372,-703.5 372,-697.5 372,-697.5 372,-435.5 372,-435.5 372,-429.5 378,-423.5 384,-423.5"/>
<text text-anchor="middle" x="514" y="-694.3" font-family="Times,serif" font-size="14.00">Workshop</text>
<polyline fill="none" stroke="black" points="372,-686.5 656,-686.5 "/>
<text text-anchor="start" x="380" y="-671.3" font-family="Times,serif" font-size="14.00">id :integer</text>
<text text-anchor="start" x="380" y="-656.3" font-family="Times,serif" font-size="14.00">title_translations :hstore</text>
<text text-anchor="start" x="380" y="-641.3" font-family="Times,serif" font-size="14.00">subtitle_translations :hstore</text>
<text text-anchor="start" x="380" y="-626.3" font-family="Times,serif" font-size="14.00">description_translations :hstore</text>
<text text-anchor="start" x="380" y="-611.3" font-family="Times,serif" font-size="14.00">category_id :integer</text>
<text text-anchor="start" x="380" y="-596.3" font-family="Times,serif" font-size="14.00">offered_on :date</text>
<text text-anchor="start" x="380" y="-581.3" font-family="Times,serif" font-size="14.00">fees :double precision</text>
<text text-anchor="start" x="380" y="-566.3" font-family="Times,serif" font-size="14.00">provider_id :integer</text>
<text text-anchor="start" x="380" y="-551.3" font-family="Times,serif" font-size="14.00">main_image :character varying</text>
<text text-anchor="start" x="380" y="-536.3" font-family="Times,serif" font-size="14.00">more_images :character varying</text>
<text text-anchor="start" x="380" y="-521.3" font-family="Times,serif" font-size="14.00">is_recurring :boolean</text>
<text text-anchor="start" x="380" y="-506.3" font-family="Times,serif" font-size="14.00">recurrence_type :integer</text>
<text text-anchor="start" x="380" y="-491.3" font-family="Times,serif" font-size="14.00">is_approved :boolean</text>
<text text-anchor="start" x="380" y="-476.3" font-family="Times,serif" font-size="14.00">minimum_workshop_registration_count :integer</text>
<text text-anchor="start" x="380" y="-461.3" font-family="Times,serif" font-size="14.00">maximum_workshop_registration_count :integer</text>
<text text-anchor="start" x="380" y="-446.3" font-family="Times,serif" font-size="14.00">created_at :timestamp without time zone</text>
<text text-anchor="start" x="380" y="-431.3" font-family="Times,serif" font-size="14.00">updated_at :timestamp without time zone</text>
</g>
<!-- Level&#45;&gt;Workshop -->
<g id="edge2" class="edge"><title>Level&#45;&gt;Workshop</title>
<path fill="none" stroke="#90604a" d="M340.332,-1443.22C315.966,-1302.27 276.131,-975.905 373,-728 374.215,-724.891 375.519,-721.802 376.903,-718.736"/>
<polygon fill="#90604a" stroke="#90604a" points="340.399,-1443.6 337.698,-1454.23 341.264,-1448.53 342.13,-1453.45 342.13,-1453.45 342.13,-1453.45 341.264,-1448.53 346.562,-1452.67 340.399,-1443.6 340.399,-1443.6"/>
<polygon fill="#90604a" stroke="#90604a" points="376.959,-718.619 385.349,-711.558 379.127,-714.113 381.294,-709.607 381.294,-709.607 381.294,-709.607 379.127,-714.113 377.238,-707.657 376.959,-718.619 376.959,-718.619"/>
</g>
<!-- Booking -->
<g id="node3" class="node"><title>Booking</title>
<path fill="none" stroke="black" d="M1202,-1234.5C1202,-1234.5 1422,-1234.5 1422,-1234.5 1428,-1234.5 1434,-1240.5 1434,-1246.5 1434,-1246.5 1434,-1313.5 1434,-1313.5 1434,-1319.5 1428,-1325.5 1422,-1325.5 1422,-1325.5 1202,-1325.5 1202,-1325.5 1196,-1325.5 1190,-1319.5 1190,-1313.5 1190,-1313.5 1190,-1246.5 1190,-1246.5 1190,-1240.5 1196,-1234.5 1202,-1234.5"/>
<text text-anchor="middle" x="1312" y="-1310.3" font-family="Times,serif" font-size="14.00">Booking</text>
<polyline fill="none" stroke="black" points="1190,-1302.5 1434,-1302.5 "/>
<text text-anchor="start" x="1198" y="-1287.3" font-family="Times,serif" font-size="14.00">id :integer</text>
<text text-anchor="start" x="1198" y="-1272.3" font-family="Times,serif" font-size="14.00">dummy :text</text>
<text text-anchor="start" x="1198" y="-1257.3" font-family="Times,serif" font-size="14.00">created_at :timestamp without time zone</text>
<text text-anchor="start" x="1198" y="-1242.3" font-family="Times,serif" font-size="14.00">updated_at :timestamp without time zone</text>
</g>
<!-- User -->
<g id="node6" class="node"><title>User</title>
<path fill="none" stroke="black" d="M565.5,-761.5C565.5,-761.5 854.5,-761.5 854.5,-761.5 860.5,-761.5 866.5,-767.5 866.5,-773.5 866.5,-773.5 866.5,-1080.5 866.5,-1080.5 866.5,-1086.5 860.5,-1092.5 854.5,-1092.5 854.5,-1092.5 565.5,-1092.5 565.5,-1092.5 559.5,-1092.5 553.5,-1086.5 553.5,-1080.5 553.5,-1080.5 553.5,-773.5 553.5,-773.5 553.5,-767.5 559.5,-761.5 565.5,-761.5"/>
<text text-anchor="middle" x="710" y="-1077.3" font-family="Times,serif" font-size="14.00">User</text>
<polyline fill="none" stroke="black" points="553.5,-1069.5 866.5,-1069.5 "/>
<text text-anchor="start" x="561.5" y="-1054.3" font-family="Times,serif" font-size="14.00">id :integer</text>
<text text-anchor="start" x="561.5" y="-1039.3" font-family="Times,serif" font-size="14.00">email :character varying</text>
<text text-anchor="start" x="561.5" y="-1024.3" font-family="Times,serif" font-size="14.00">encrypted_password :character varying</text>
<text text-anchor="start" x="561.5" y="-1009.3" font-family="Times,serif" font-size="14.00">reset_password_token :character varying</text>
<text text-anchor="start" x="561.5" y="-994.3" font-family="Times,serif" font-size="14.00">reset_password_sent_at :timestamp without time zone</text>
<text text-anchor="start" x="561.5" y="-979.3" font-family="Times,serif" font-size="14.00">remember_created_at :timestamp without time zone</text>
<text text-anchor="start" x="561.5" y="-964.3" font-family="Times,serif" font-size="14.00">sign_in_count :integer</text>
<text text-anchor="start" x="561.5" y="-949.3" font-family="Times,serif" font-size="14.00">current_sign_in_at :timestamp without time zone</text>
<text text-anchor="start" x="561.5" y="-934.3" font-family="Times,serif" font-size="14.00">last_sign_in_at :timestamp without time zone</text>
<text text-anchor="start" x="561.5" y="-919.3" font-family="Times,serif" font-size="14.00">current_sign_in_ip :inet</text>
<text text-anchor="start" x="561.5" y="-904.3" font-family="Times,serif" font-size="14.00">last_sign_in_ip :inet</text>
<text text-anchor="start" x="561.5" y="-889.3" font-family="Times,serif" font-size="14.00">created_at :timestamp without time zone</text>
<text text-anchor="start" x="561.5" y="-874.3" font-family="Times,serif" font-size="14.00">updated_at :timestamp without time zone</text>
<text text-anchor="start" x="561.5" y="-859.3" font-family="Times,serif" font-size="14.00">provider :character varying</text>
<text text-anchor="start" x="561.5" y="-844.3" font-family="Times,serif" font-size="14.00">uid :character varying</text>
<text text-anchor="start" x="561.5" y="-829.3" font-family="Times,serif" font-size="14.00">name :character varying</text>
<text text-anchor="start" x="561.5" y="-814.3" font-family="Times,serif" font-size="14.00">first_name :character varying</text>
<text text-anchor="start" x="561.5" y="-799.3" font-family="Times,serif" font-size="14.00">locale :character varying</text>
<text text-anchor="start" x="561.5" y="-784.3" font-family="Times,serif" font-size="14.00">gender :character varying</text>
<text text-anchor="start" x="561.5" y="-769.3" font-family="Times,serif" font-size="14.00">image :character varying</text>
</g>
<!-- Booking&#45;&gt;User -->
<g id="edge4" class="edge"><title>Booking&#45;&gt;User</title>
<path fill="none" stroke="#af4d08" d="M1228.29,-1230.19C1136.99,-1176.96 988.576,-1090.43 873.914,-1023.57"/>
<ellipse fill="none" stroke="#af4d08" cx="1232" cy="-1232.35" rx="4.00002" ry="4.00002"/>
<ellipse fill="#af4d08" stroke="#af4d08" cx="870.213" cy="-1021.41" rx="4.00002" ry="4.00002"/>
</g>
<!-- WorkshopRegistration -->
<g id="node14" class="node"><title>WorkshopRegistration</title>
<path fill="none" stroke="black" d="M1046,-204.5C1046,-204.5 1266,-204.5 1266,-204.5 1272,-204.5 1278,-210.5 1278,-216.5 1278,-216.5 1278,-328.5 1278,-328.5 1278,-334.5 1272,-340.5 1266,-340.5 1266,-340.5 1046,-340.5 1046,-340.5 1040,-340.5 1034,-334.5 1034,-328.5 1034,-328.5 1034,-216.5 1034,-216.5 1034,-210.5 1040,-204.5 1046,-204.5"/>
<text text-anchor="middle" x="1156" y="-325.3" font-family="Times,serif" font-size="14.00">WorkshopRegistration</text>
<polyline fill="none" stroke="black" points="1034,-317.5 1278,-317.5 "/>
<text text-anchor="start" x="1042" y="-302.3" font-family="Times,serif" font-size="14.00">id :integer</text>
<text text-anchor="start" x="1042" y="-287.3" font-family="Times,serif" font-size="14.00">workshop_id :integer</text>
<text text-anchor="start" x="1042" y="-272.3" font-family="Times,serif" font-size="14.00">user_id :integer</text>
<text text-anchor="start" x="1042" y="-257.3" font-family="Times,serif" font-size="14.00">booking_id :integer</text>
<text text-anchor="start" x="1042" y="-242.3" font-family="Times,serif" font-size="14.00">status :integer</text>
<text text-anchor="start" x="1042" y="-227.3" font-family="Times,serif" font-size="14.00">created_at :timestamp without time zone</text>
<text text-anchor="start" x="1042" y="-212.3" font-family="Times,serif" font-size="14.00">updated_at :timestamp without time zone</text>
</g>
<!-- Booking&#45;&gt;WorkshopRegistration -->
<g id="edge3" class="edge"><title>Booking&#45;&gt;WorkshopRegistration</title>
<path fill="none" stroke="#e1dae0" d="M1322.62,-1226.22C1348.37,-1084.9 1402.75,-689.255 1270,-404 1260.62,-383.838 1247.15,-364.439 1232.73,-347.043"/>
<ellipse fill="none" stroke="#e1dae0" cx="1321.84" cy="-1230.43" rx="4.00001" ry="4.00001"/>
<ellipse fill="#e1dae0" stroke="#e1dae0" cx="1229.97" cy="-343.78" rx="4.00002" ry="4.00002"/>
</g>
<!-- Tag -->
<g id="node4" class="node"><title>Tag</title>
<path fill="none" stroke="black" d="M506,-1461C506,-1461 726,-1461 726,-1461 732,-1461 738,-1467 738,-1473 738,-1473 738,-1555 738,-1555 738,-1561 732,-1567 726,-1567 726,-1567 506,-1567 506,-1567 500,-1567 494,-1561 494,-1555 494,-1555 494,-1473 494,-1473 494,-1467 500,-1461 506,-1461"/>
<text text-anchor="middle" x="616" y="-1551.8" font-family="Times,serif" font-size="14.00">Tag</text>
<polyline fill="none" stroke="black" points="494,-1544 738,-1544 "/>
<text text-anchor="start" x="502" y="-1528.8" font-family="Times,serif" font-size="14.00">id :integer</text>
<text text-anchor="start" x="502" y="-1513.8" font-family="Times,serif" font-size="14.00">text :character varying</text>
<text text-anchor="start" x="502" y="-1498.8" font-family="Times,serif" font-size="14.00">lang :integer</text>
<text text-anchor="start" x="502" y="-1483.8" font-family="Times,serif" font-size="14.00">created_at :timestamp without time zone</text>
<text text-anchor="start" x="502" y="-1468.8" font-family="Times,serif" font-size="14.00">updated_at :timestamp without time zone</text>
</g>
<!-- Participation -->
<g id="node5" class="node"><title>Participation</title>
<path fill="none" stroke="black" d="M1046,-0.5C1046,-0.5 1266,-0.5 1266,-0.5 1272,-0.5 1278,-6.5 1278,-12.5 1278,-12.5 1278,-109.5 1278,-109.5 1278,-115.5 1272,-121.5 1266,-121.5 1266,-121.5 1046,-121.5 1046,-121.5 1040,-121.5 1034,-115.5 1034,-109.5 1034,-109.5 1034,-12.5 1034,-12.5 1034,-6.5 1040,-0.5 1046,-0.5"/>
<text text-anchor="middle" x="1156" y="-106.3" font-family="Times,serif" font-size="14.00">Participation</text>
<polyline fill="none" stroke="black" points="1034,-98.5 1278,-98.5 "/>
<text text-anchor="start" x="1042" y="-83.3" font-family="Times,serif" font-size="14.00">id :integer</text>
<text text-anchor="start" x="1042" y="-68.3" font-family="Times,serif" font-size="14.00">workshop_session_id :integer</text>
<text text-anchor="start" x="1042" y="-53.3" font-family="Times,serif" font-size="14.00">workshop_registration_id :integer</text>
<text text-anchor="start" x="1042" y="-38.3" font-family="Times,serif" font-size="14.00">score :double precision</text>
<text text-anchor="start" x="1042" y="-23.3" font-family="Times,serif" font-size="14.00">created_at :timestamp without time zone</text>
<text text-anchor="start" x="1042" y="-8.3" font-family="Times,serif" font-size="14.00">updated_at :timestamp without time zone</text>
</g>
<!-- User&#45;&gt;Participation -->
<g id="edge12" class="edge"><title>User&#45;&gt;Participation</title>
<path fill="none" stroke="#3c89b7" d="M544.049,-859.405C486.453,-830.206 424.878,-791.405 379,-743 200.418,-554.582 194.179,-351.819 368,-159 411.097,-111.193 810.803,-81.5097 1023.79,-68.9537"/>
<polygon fill="#3c89b7" stroke="#3c89b7" points="544.312,-859.536 551.243,-868.034 548.784,-861.773 553.256,-864.009 553.256,-864.009 553.256,-864.009 548.784,-861.773 555.269,-859.984 544.312,-859.536 544.312,-859.536"/>
<polygon fill="#3c89b7" stroke="#3c89b7" points="1023.81,-68.9529 1034.05,-72.8611 1028.8,-68.6608 1033.79,-68.3688 1033.79,-68.3688 1033.79,-68.3688 1028.8,-68.6608 1033.53,-63.8764 1023.81,-68.9529 1023.81,-68.9529"/>
</g>
<!-- User&#45;&gt;WorkshopSession -->
<g id="edge8" class="edge"><title>User&#45;&gt;WorkshopSession</title>
<path fill="none" stroke="#7902fd" d="M701.242,-1100.57C699.728,-1109.21 697.991,-1117.73 696,-1126 695.319,-1128.83 694.592,-1131.67 693.822,-1134.52"/>
<ellipse fill="none" stroke="#7902fd" cx="701.912" cy="-1096.55" rx="4.00001" ry="4.00001"/>
<polygon fill="#7902fd" stroke="#7902fd" points="693.792,-1134.63 686.72,-1143.01 692.419,-1139.43 691.047,-1144.24 691.047,-1144.24 691.047,-1144.24 692.419,-1139.43 695.374,-1145.48 693.792,-1134.63 693.792,-1134.63"/>
</g>
<!-- Rating -->
<g id="node9" class="node"><title>Rating</title>
<path fill="none" stroke="black" d="M686,-498.5C686,-498.5 906,-498.5 906,-498.5 912,-498.5 918,-504.5 918,-510.5 918,-510.5 918,-622.5 918,-622.5 918,-628.5 912,-634.5 906,-634.5 906,-634.5 686,-634.5 686,-634.5 680,-634.5 674,-628.5 674,-622.5 674,-622.5 674,-510.5 674,-510.5 674,-504.5 680,-498.5 686,-498.5"/>
<text text-anchor="middle" x="796" y="-619.3" font-family="Times,serif" font-size="14.00">Rating</text>
<polyline fill="none" stroke="black" points="674,-611.5 918,-611.5 "/>
<text text-anchor="start" x="682" y="-596.3" font-family="Times,serif" font-size="14.00">id :integer</text>
<text text-anchor="start" x="682" y="-581.3" font-family="Times,serif" font-size="14.00">value :double precision</text>
<text text-anchor="start" x="682" y="-566.3" font-family="Times,serif" font-size="14.00">creator_id :integer</text>
<text text-anchor="start" x="682" y="-551.3" font-family="Times,serif" font-size="14.00">rated_object_type :character varying</text>
<text text-anchor="start" x="682" y="-536.3" font-family="Times,serif" font-size="14.00">rated_object_id :integer</text>
<text text-anchor="start" x="682" y="-521.3" font-family="Times,serif" font-size="14.00">created_at :timestamp without time zone</text>
<text text-anchor="start" x="682" y="-506.3" font-family="Times,serif" font-size="14.00">updated_at :timestamp without time zone</text>
</g>
<!-- User&#45;&gt;Rating -->
<g id="edge5" class="edge"><title>User&#45;&gt;Rating</title>
<path fill="none" stroke="#a91330" d="M872.588,-817.943C894.632,-795.884 914.081,-770.794 927,-743 936.954,-721.586 906.404,-679.632 872.314,-642.114"/>
<ellipse fill="none" stroke="#a91330" cx="869.478" cy="-820.987" rx="4.00002" ry="4.00002"/>
<polygon fill="#a91330" stroke="#a91330" points="872.237,-642.03 868.769,-631.627 868.849,-638.353 865.46,-634.676 865.46,-634.676 865.46,-634.676 868.849,-638.353 862.151,-637.726 872.237,-642.03 872.237,-642.03"/>
</g>
<!-- User&#45;&gt;Workshop -->
<g id="edge7" class="edge"><title>User&#45;&gt;Workshop</title>
<path fill="none" stroke="#a448e4" d="M812.533,-753.339C810.262,-744.422 805.909,-735.899 799,-728 780.803,-707.196 705.637,-720.38 665.812,-709.119"/>
<ellipse fill="none" stroke="#a448e4" cx="813.275" cy="-757.339" rx="4.00001" ry="4.00001"/>
<polygon fill="#a448e4" stroke="#a448e4" points="665.652,-709.06 657.84,-701.365 660.964,-707.322 656.275,-705.584 656.275,-705.584 656.275,-705.584 660.964,-707.322 654.711,-709.804 665.652,-709.06 665.652,-709.06"/>
<text text-anchor="middle" x="860.5" y="-731.8" font-family="Times,serif" font-size="14.00">workshops_offered</text>
</g>
<!-- User&#45;&gt;Workshop -->
<g id="edge9" class="edge"><title>User&#45;&gt;Workshop</title>
<path fill="none" stroke="#c3fe31" d="M544.107,-872.245C483.991,-843.826 422.451,-802.206 388,-743 383.54,-735.336 380.979,-727.591 380.003,-719.845"/>
<polygon fill="#c3fe31" stroke="#c3fe31" points="544.273,-872.321 551.462,-880.602 548.812,-874.419 553.35,-876.517 553.35,-876.517 553.35,-876.517 548.812,-874.419 555.238,-872.433 544.273,-872.321 544.273,-872.321"/>
<polygon fill="#c3fe31" stroke="#c3fe31" points="379.996,-719.661 384.104,-709.493 379.802,-714.664 379.607,-709.668 379.607,-709.668 379.607,-709.668 379.802,-714.664 375.111,-709.843 379.996,-719.661 379.996,-719.661"/>
<text text-anchor="middle" x="440" y="-731.8" font-family="Times,serif" font-size="14.00">workshops_tutored</text>
</g>
<!-- User&#45;&gt;Workshop -->
<g id="edge11" class="edge"><title>User&#45;&gt;Workshop</title>
<path fill="none" stroke="#0cbdd4" d="M546.959,-795.688C534.204,-779.278 523.137,-761.65 515,-743 511.751,-735.555 509.169,-727.757 507.148,-719.76"/>
<polygon fill="#0cbdd4" stroke="#0cbdd4" points="547.087,-795.848 549.842,-806.463 550.219,-799.746 553.35,-803.644 553.35,-803.644 553.35,-803.644 550.219,-799.746 556.858,-800.826 547.087,-795.848 547.087,-795.848"/>
<polygon fill="#0cbdd4" stroke="#0cbdd4" points="507.13,-719.679 509.348,-708.94 506.043,-714.799 504.956,-709.918 504.956,-709.918 504.956,-709.918 506.043,-714.799 500.563,-710.897 507.13,-719.679 507.13,-719.679"/>
<text text-anchor="middle" x="574.5" y="-731.8" font-family="Times,serif" font-size="14.00">workshops_registered</text>
</g>
<!-- Comment -->
<g id="node12" class="node"><title>Comment</title>
<path fill="none" stroke="black" d="M948.5,-491C948.5,-491 1177.5,-491 1177.5,-491 1183.5,-491 1189.5,-497 1189.5,-503 1189.5,-503 1189.5,-630 1189.5,-630 1189.5,-636 1183.5,-642 1177.5,-642 1177.5,-642 948.5,-642 948.5,-642 942.5,-642 936.5,-636 936.5,-630 936.5,-630 936.5,-503 936.5,-503 936.5,-497 942.5,-491 948.5,-491"/>
<text text-anchor="middle" x="1063" y="-626.8" font-family="Times,serif" font-size="14.00">Comment</text>
<polyline fill="none" stroke="black" points="936.5,-619 1189.5,-619 "/>
<text text-anchor="start" x="944.5" y="-603.8" font-family="Times,serif" font-size="14.00">id :integer</text>
<text text-anchor="start" x="944.5" y="-588.8" font-family="Times,serif" font-size="14.00">text :text</text>
<text text-anchor="start" x="944.5" y="-573.8" font-family="Times,serif" font-size="14.00">commenter_id :integer</text>
<text text-anchor="start" x="944.5" y="-558.8" font-family="Times,serif" font-size="14.00">lang :integer</text>
<text text-anchor="start" x="944.5" y="-543.8" font-family="Times,serif" font-size="14.00">commented_object_type :character varying</text>
<text text-anchor="start" x="944.5" y="-528.8" font-family="Times,serif" font-size="14.00">commented_object_id :integer</text>
<text text-anchor="start" x="944.5" y="-513.8" font-family="Times,serif" font-size="14.00">created_at :timestamp without time zone</text>
<text text-anchor="start" x="944.5" y="-498.8" font-family="Times,serif" font-size="14.00">updated_at :timestamp without time zone</text>
</g>
<!-- User&#45;&gt;Comment -->
<g id="edge6" class="edge"><title>User&#45;&gt;Comment</title>
<path fill="none" stroke="#ce23b6" d="M873.154,-806.746C896.938,-786.567 920.339,-764.994 941,-743 967.126,-715.188 991.948,-681.402 1012.3,-650.929"/>
<ellipse fill="none" stroke="#ce23b6" cx="869.83" cy="-809.545" rx="4.00002" ry="4.00002"/>
<polygon fill="#ce23b6" stroke="#ce23b6" points="1012.4,-650.772 1021.67,-644.911 1015.16,-646.601 1017.92,-642.43 1017.92,-642.43 1017.92,-642.43 1015.16,-646.601 1014.16,-639.948 1012.4,-650.772 1012.4,-650.772"/>
</g>
<!-- User&#45;&gt;WorkshopRegistration -->
<g id="edge10" class="edge"><title>User&#45;&gt;WorkshopRegistration</title>
<path fill="none" stroke="#a89848" d="M874.74,-900.63C986.985,-873.839 1127.7,-819.448 1199,-710 1270.03,-600.974 1227.07,-443.01 1190.66,-350.019"/>
<ellipse fill="none" stroke="#a89848" cx="870.603" cy="-901.6" rx="4.00001" ry="4.00001"/>
<polygon fill="#a89848" stroke="#a89848" points="1190.64,-349.963 1191.11,-339.007 1188.78,-345.318 1186.93,-340.673 1186.93,-340.673 1186.93,-340.673 1188.78,-345.318 1182.75,-342.339 1190.64,-349.963 1190.64,-349.963"/>
</g>
<!-- WorkshopSession&#45;&gt;Participation -->
<g id="edge13" class="edge"><title>WorkshopSession&#45;&gt;Participation</title>
<path fill="none" stroke="#c54f0c" d="M761.306,-1268.98C957.483,-1245.99 1306,-1170.97 1306,-928 1306,-928 1306,-928 1306,-271.5 1306,-220.792 1313.52,-202.22 1287,-159 1280.22,-147.948 1271.67,-137.745 1262.2,-128.441"/>
<ellipse fill="none" stroke="#c54f0c" cx="757.211" cy="-1269.45" rx="4.00001" ry="4.00001"/>
<polygon fill="#c54f0c" stroke="#c54f0c" points="1262.09,-128.339 1257.87,-118.218 1258.44,-124.92 1254.79,-121.502 1254.79,-121.502 1254.79,-121.502 1258.44,-124.92 1251.72,-124.786 1262.09,-128.339 1262.09,-128.339"/>
</g>
<!-- WorkshopSession&#45;&gt;User -->
<g id="edge15" class="edge"><title>WorkshopSession&#45;&gt;User</title>
<path fill="none" stroke="#98c359" d="M624.207,-1134.14C625.147,-1126.28 626.392,-1118.52 628,-1111 628.614,-1108.13 629.277,-1105.25 629.984,-1102.36"/>
<polygon fill="#98c359" stroke="#98c359" points="624.202,-1134.19 618.7,-1143.68 623.689,-1139.16 623.176,-1144.14 623.176,-1144.14 623.176,-1144.14 623.689,-1139.16 627.652,-1144.6 624.202,-1134.19 624.202,-1134.19"/>
<polygon fill="#98c359" stroke="#98c359" points="630.026,-1102.2 636.91,-1093.66 631.291,-1097.36 632.556,-1092.52 632.556,-1092.52 632.556,-1092.52 631.291,-1097.36 628.203,-1091.38 630.026,-1102.2 630.026,-1102.2"/>
<text text-anchor="middle" x="660" y="-1114.8" font-family="Times,serif" font-size="14.00">participants</text>
</g>
<!-- WorkshopSession&#45;&gt;WorkshopRegistration -->
<g id="edge14" class="edge"><title>WorkshopSession&#45;&gt;WorkshopRegistration</title>
<path fill="none" stroke="#abb028" d="M761.909,-1204.43C910.369,-1111.09 1143.31,-935.686 1232,-710 1281.76,-583.368 1283.2,-526.016 1223,-404 1214.32,-386.399 1204.79,-367.568 1195.71,-349.844"/>
<polygon fill="#abb028" stroke="#abb028" points="761.62,-1204.61 750.755,-1206.1 757.379,-1207.26 753.139,-1209.91 753.139,-1209.91 753.139,-1209.91 757.379,-1207.26 755.524,-1213.73 761.62,-1204.61 761.62,-1204.61"/>
<polygon fill="#abb028" stroke="#abb028" points="1195.58,-349.585 1195.02,-338.634 1193.3,-345.137 1191.01,-340.688 1191.01,-340.688 1191.01,-340.688 1193.3,-345.137 1187.01,-342.743 1195.58,-349.585 1195.58,-349.585"/>
</g>
<!-- ApplicationRecord -->
<g id="node8" class="node"><title>ApplicationRecord</title>
<ellipse fill="none" stroke="black" cx="833" cy="-1514" rx="77.1866" ry="18"/>
<text text-anchor="middle" x="833" y="-1510.3" font-family="Times,serif" font-size="14.00">ApplicationRecord</text>
</g>
<!-- Workshop&#45;&gt;User -->
<g id="edge18" class="edge"><title>Workshop&#45;&gt;User</title>
<path fill="none" stroke="#880d9e" d="M628.474,-718.273C630.369,-721.519 632.214,-724.763 634,-728 638.344,-735.872 642.551,-744.043 646.607,-752.386"/>
<polygon fill="#880d9e" stroke="#880d9e" points="628.471,-718.268 627.21,-707.375 625.909,-713.975 623.346,-709.682 623.346,-709.682 623.346,-709.682 625.909,-713.975 619.482,-711.988 628.471,-718.268 628.471,-718.268"/>
<polygon fill="#880d9e" stroke="#880d9e" points="646.647,-752.471 646.886,-763.434 648.798,-756.985 650.948,-761.499 650.948,-761.499 650.948,-761.499 648.798,-756.985 655.011,-759.564 646.647,-752.471 646.647,-752.471"/>
<text text-anchor="middle" x="654.5" y="-731.8" font-family="Times,serif" font-size="14.00">tutors</text>
</g>
<!-- Workshop&#45;&gt;User -->
<g id="edge20" class="edge"><title>Workshop&#45;&gt;User</title>
<path fill="none" stroke="#2a0270" d="M661.9,-707.397C666.284,-714.137 670.346,-721.013 674,-728 677.957,-735.566 681.486,-743.492 684.634,-751.64"/>
<polygon fill="#2a0270" stroke="#2a0270" points="661.78,-707.219 659.909,-696.414 658.98,-703.076 656.181,-698.933 656.181,-698.933 656.181,-698.933 658.98,-703.076 652.452,-701.453 661.78,-707.219 661.78,-707.219"/>
<polygon fill="#2a0270" stroke="#2a0270" points="684.73,-751.904 683.928,-762.84 686.443,-756.601 688.156,-761.298 688.156,-761.298 688.156,-761.298 686.443,-756.601 692.383,-759.757 684.73,-751.904 684.73,-751.904"/>
<text text-anchor="middle" x="724" y="-731.8" font-family="Times,serif" font-size="14.00">registered_users</text>
</g>
<!-- Workshop&#45;&gt;WorkshopSession -->
<g id="edge16" class="edge"><title>Workshop&#45;&gt;WorkshopSession</title>
<path fill="none" stroke="#8651fb" d="M377.256,-717.9C376.595,-726.107 377.099,-734.489 379,-743 410.421,-883.681 482.994,-1031.01 542.229,-1135.53"/>
<ellipse fill="none" stroke="#8651fb" cx="377.79" cy="-713.72" rx="4.00001" ry="4.00001"/>
<polygon fill="#8651fb" stroke="#8651fb" points="542.242,-1135.55 543.282,-1146.47 544.717,-1139.9 547.192,-1144.24 547.192,-1144.24 547.192,-1144.24 544.717,-1139.9 551.102,-1142.01 542.242,-1135.55 542.242,-1135.55"/>
</g>
<!-- Venue -->
<g id="node13" class="node"><title>Venue</title>
<path fill="none" stroke="black" d="M389,-159.5C389,-159.5 609,-159.5 609,-159.5 615,-159.5 621,-165.5 621,-171.5 621,-171.5 621,-373.5 621,-373.5 621,-379.5 615,-385.5 609,-385.5 609,-385.5 389,-385.5 389,-385.5 383,-385.5 377,-379.5 377,-373.5 377,-373.5 377,-171.5 377,-171.5 377,-165.5 383,-159.5 389,-159.5"/>
<text text-anchor="middle" x="499" y="-370.3" font-family="Times,serif" font-size="14.00">Venue</text>
<polyline fill="none" stroke="black" points="377,-362.5 621,-362.5 "/>
<text text-anchor="start" x="385" y="-347.3" font-family="Times,serif" font-size="14.00">id :integer</text>
<text text-anchor="start" x="385" y="-332.3" font-family="Times,serif" font-size="14.00">street :character varying</text>
<text text-anchor="start" x="385" y="-317.3" font-family="Times,serif" font-size="14.00">house_number :character varying</text>
<text text-anchor="start" x="385" y="-302.3" font-family="Times,serif" font-size="14.00">city :character varying</text>
<text text-anchor="start" x="385" y="-287.3" font-family="Times,serif" font-size="14.00">state :character varying</text>
<text text-anchor="start" x="385" y="-272.3" font-family="Times,serif" font-size="14.00">zip :character varying</text>
<text text-anchor="start" x="385" y="-257.3" font-family="Times,serif" font-size="14.00">country_alpha2 :character varying</text>
<text text-anchor="start" x="385" y="-242.3" font-family="Times,serif" font-size="14.00">longitude :double precision</text>
<text text-anchor="start" x="385" y="-227.3" font-family="Times,serif" font-size="14.00">latitude :double precision</text>
<text text-anchor="start" x="385" y="-212.3" font-family="Times,serif" font-size="14.00">room_number :character varying</text>
<text text-anchor="start" x="385" y="-197.3" font-family="Times,serif" font-size="14.00">extra_infomation :character varying</text>
<text text-anchor="start" x="385" y="-182.3" font-family="Times,serif" font-size="14.00">created_at :timestamp without time zone</text>
<text text-anchor="start" x="385" y="-167.3" font-family="Times,serif" font-size="14.00">updated_at :timestamp without time zone</text>
</g>
<!-- Workshop&#45;&gt;Venue -->
<g id="edge17" class="edge"><title>Workshop&#45;&gt;Venue</title>
<path fill="none" stroke="#7f1928" d="M506.181,-413.293C505.884,-407.504 505.587,-401.728 505.293,-396.002"/>
<polygon fill="#7f1928" stroke="#7f1928" points="506.185,-413.362 502.204,-423.58 506.441,-418.356 506.698,-423.349 506.698,-423.349 506.698,-423.349 506.441,-418.356 511.192,-423.118 506.185,-413.362 506.185,-413.362"/>
<polygon fill="#7f1928" stroke="#7f1928" points="505.28,-395.743 509.261,-385.525 505.023,-390.75 504.767,-385.756 504.767,-385.756 504.767,-385.756 505.023,-390.75 500.273,-385.987 505.28,-395.743 505.28,-395.743"/>
</g>
<!-- Workshop&#45;&gt;WorkshopRegistration -->
<g id="edge19" class="edge"><title>Workshop&#45;&gt;WorkshopRegistration</title>
<path fill="none" stroke="#d1a2cc" d="M663.058,-424.138C663.705,-423.755 664.352,-423.376 665,-423 777.446,-357.718 921.227,-318.285 1024.09,-296.443"/>
<ellipse fill="none" stroke="#d1a2cc" cx="659.568" cy="-426.271" rx="4.00002" ry="4.00002"/>
<polygon fill="#d1a2cc" stroke="#d1a2cc" points="1024.13,-296.436 1034.84,-298.789 1029.02,-295.41 1033.91,-294.384 1033.91,-294.384 1033.91,-294.384 1029.02,-295.41 1032.99,-289.98 1024.13,-296.436 1024.13,-296.436"/>
</g>
<!-- Category -->
<g id="node11" class="node"><title>Category</title>
<path fill="none" stroke="black" d="M940,-1461C940,-1461 1160,-1461 1160,-1461 1166,-1461 1172,-1467 1172,-1473 1172,-1473 1172,-1555 1172,-1555 1172,-1561 1166,-1567 1160,-1567 1160,-1567 940,-1567 940,-1567 934,-1567 928,-1561 928,-1555 928,-1555 928,-1473 928,-1473 928,-1467 934,-1461 940,-1461"/>
<text text-anchor="middle" x="1050" y="-1551.8" font-family="Times,serif" font-size="14.00">Category</text>
<polyline fill="none" stroke="black" points="928,-1544 1172,-1544 "/>
<text text-anchor="start" x="936" y="-1528.8" font-family="Times,serif" font-size="14.00">id :integer</text>
<text text-anchor="start" x="936" y="-1513.8" font-family="Times,serif" font-size="14.00">parent_id :integer</text>
<text text-anchor="start" x="936" y="-1498.8" font-family="Times,serif" font-size="14.00">name_translations :hstore</text>
<text text-anchor="start" x="936" y="-1483.8" font-family="Times,serif" font-size="14.00">created_at :timestamp without time zone</text>
<text text-anchor="start" x="936" y="-1468.8" font-family="Times,serif" font-size="14.00">updated_at :timestamp without time zone</text>
</g>
<!-- Category&#45;&gt;Category -->
<g id="edge21" class="edge"><title>Category&#45;&gt;Category</title>
<path fill="none" stroke="#a768cc" d="M1180.12,-1523.29C1186.34,-1520.96 1190,-1517.86 1190,-1514 1190,-1510.55 1187.08,-1507.71 1182.01,-1505.48"/>
<ellipse fill="none" stroke="#a768cc" cx="1176.24" cy="-1524.41" rx="4.00001" ry="4.00001"/>
<polygon fill="#a768cc" stroke="#a768cc" points="1181.95,-1505.46 1173.74,-1498.19 1177.17,-1503.97 1172.4,-1502.48 1172.4,-1502.48 1172.4,-1502.48 1177.17,-1503.97 1171.06,-1506.78 1181.95,-1505.46 1181.95,-1505.46"/>
<text text-anchor="middle" x="1230.5" y="-1510.3" font-family="Times,serif" font-size="14.00">sub_categories</text>
</g>
<!-- Venue&#45;&gt;WorkshopSession -->
<g id="edge22" class="edge"><title>Venue&#45;&gt;WorkshopSession</title>
<path fill="none" stroke="#2ba432" d="M378.028,-392.721C372.144,-402.475 367.023,-412.598 363,-423 255.537,-700.826 241.056,-830.034 381,-1093 407.617,-1143.02 454.298,-1183.24 500.171,-1213.31"/>
<ellipse fill="none" stroke="#2ba432" cx="380.316" cy="-389.074" rx="4.00002" ry="4.00002"/>
<polygon fill="#2ba432" stroke="#2ba432" points="500.31,-1213.4 506.289,-1222.59 504.516,-1216.1 508.722,-1218.81 508.722,-1218.81 508.722,-1218.81 504.516,-1216.1 511.156,-1215.02 500.31,-1213.4 500.31,-1213.4"/>
</g>
<!-- WorkshopRegistration&#45;&gt;Participation -->
<g id="edge23" class="edge"><title>WorkshopRegistration&#45;&gt;Participation</title>
<path fill="none" stroke="#21f0da" d="M1156,-196.146C1156,-175.21 1156,-152.568 1156,-131.954"/>
<ellipse fill="none" stroke="#21f0da" cx="1156" cy="-200.348" rx="4" ry="4"/>
<polygon fill="#21f0da" stroke="#21f0da" points="1156,-131.698 1160.5,-121.698 1156,-126.698 1156,-121.698 1156,-121.698 1156,-121.698 1156,-126.698 1151.5,-121.698 1156,-131.698 1156,-131.698"/>
</g>
</g>
</svg>
