<?xml version="1.0" encoding="UTF-8" standalone="no"?>
<!DOCTYPE svg PUBLIC "-//W3C//DTD SVG 1.1//EN"
 "http://www.w3.org/Graphics/SVG/1.1/DTD/svg11.dtd">
<!-- Generated by graphviz version 2.38.0 (20140413.2041)
 -->
<!-- Title: models_diagram Pages: 1 -->
<svg width="2148pt" height="1742pt"
 viewBox="0.00 0.00 2148.00 1742.00" xmlns="http://www.w3.org/2000/svg" xmlns:xlink="http://www.w3.org/1999/xlink">
<g id="graph0" class="graph" transform="scale(1 1) rotate(0) translate(4 1738)">
<title>models_diagram</title>
<polygon fill="none" stroke="none" points="-4,4 -4,-1738 2144,-1738 2144,4 -4,4"/>
<!-- _diagram_info -->
<g id="node1" class="node"><title>_diagram_info</title>
<text text-anchor="start" x="877" y="-1705.1" font-family="Times,serif" font-size="13.00">Models diagram</text>
<text text-anchor="start" x="877" y="-1691.1" font-family="Times,serif" font-size="13.00">Date: Jul 12 2016 &#45; 19:32</text>
<text text-anchor="start" x="877" y="-1677.1" font-family="Times,serif" font-size="13.00">Migration version: 20160712171129</text>
<text text-anchor="start" x="877" y="-1663.1" font-family="Times,serif" font-size="13.00">Generated by RailRoady 1.5.1</text>
<text text-anchor="start" x="877" y="-1649.1" font-family="Times,serif" font-size="13.00">http://railroady.prestonlee.com</text>
</g>
<!-- Registration -->
<g id="node2" class="node"><title>Registration</title>
<path fill="none" stroke="black" d="M866,-159.5C866,-159.5 1086,-159.5 1086,-159.5 1092,-159.5 1098,-165.5 1098,-171.5 1098,-171.5 1098,-283.5 1098,-283.5 1098,-289.5 1092,-295.5 1086,-295.5 1086,-295.5 866,-295.5 866,-295.5 860,-295.5 854,-289.5 854,-283.5 854,-283.5 854,-171.5 854,-171.5 854,-165.5 860,-159.5 866,-159.5"/>
<text text-anchor="middle" x="976" y="-280.3" font-family="Times,serif" font-size="14.00">Registration</text>
<polyline fill="none" stroke="black" points="854,-272.5 1098,-272.5 "/>
<text text-anchor="start" x="862" y="-257.3" font-family="Times,serif" font-size="14.00">id :integer</text>
<text text-anchor="start" x="862" y="-242.3" font-family="Times,serif" font-size="14.00">workshop_id :integer</text>
<text text-anchor="start" x="862" y="-227.3" font-family="Times,serif" font-size="14.00">user_id :integer</text>
<text text-anchor="start" x="862" y="-212.3" font-family="Times,serif" font-size="14.00">booking_id :integer</text>
<text text-anchor="start" x="862" y="-197.3" font-family="Times,serif" font-size="14.00">status :integer</text>
<text text-anchor="start" x="862" y="-182.3" font-family="Times,serif" font-size="14.00">created_at :timestamp without time zone</text>
<text text-anchor="start" x="862" y="-167.3" font-family="Times,serif" font-size="14.00">updated_at :timestamp without time zone</text>
</g>
<!-- Participation -->
<g id="node6" class="node"><title>Participation</title>
<path fill="none" stroke="black" d="M866,-0.5C866,-0.5 1086,-0.5 1086,-0.5 1092,-0.5 1098,-6.5 1098,-12.5 1098,-12.5 1098,-109.5 1098,-109.5 1098,-115.5 1092,-121.5 1086,-121.5 1086,-121.5 866,-121.5 866,-121.5 860,-121.5 854,-115.5 854,-109.5 854,-109.5 854,-12.5 854,-12.5 854,-6.5 860,-0.5 866,-0.5"/>
<text text-anchor="middle" x="976" y="-106.3" font-family="Times,serif" font-size="14.00">Participation</text>
<polyline fill="none" stroke="black" points="854,-98.5 1098,-98.5 "/>
<text text-anchor="start" x="862" y="-83.3" font-family="Times,serif" font-size="14.00">id :integer</text>
<text text-anchor="start" x="862" y="-68.3" font-family="Times,serif" font-size="14.00">workshop_session_id :integer</text>
<text text-anchor="start" x="862" y="-53.3" font-family="Times,serif" font-size="14.00">registration_id :integer</text>
<text text-anchor="start" x="862" y="-38.3" font-family="Times,serif" font-size="14.00">score :double precision</text>
<text text-anchor="start" x="862" y="-23.3" font-family="Times,serif" font-size="14.00">created_at :timestamp without time zone</text>
<text text-anchor="start" x="862" y="-8.3" font-family="Times,serif" font-size="14.00">updated_at :timestamp without time zone</text>
</g>
<!-- Registration&#45;&gt;Participation -->
<g id="edge1" class="edge"><title>Registration&#45;&gt;Participation</title>
<path fill="none" stroke="#c4247b" d="M976,-150.91C976,-144.619 976,-138.276 976,-132.028"/>
<ellipse fill="none" stroke="#c4247b" cx="976" cy="-155.117" rx="4" ry="4"/>
<polygon fill="#c4247b" stroke="#c4247b" points="976,-131.632 980.5,-121.632 976,-126.632 976,-121.632 976,-121.632 976,-121.632 976,-126.632 971.5,-121.632 976,-131.632 976,-131.632"/>
</g>
<!-- Level -->
<g id="node3" class="node"><title>Level</title>
<path fill="none" stroke="black" d="M12,-1363.5C12,-1363.5 232,-1363.5 232,-1363.5 238,-1363.5 244,-1369.5 244,-1375.5 244,-1375.5 244,-1472.5 244,-1472.5 244,-1478.5 238,-1484.5 232,-1484.5 232,-1484.5 12,-1484.5 12,-1484.5 6,-1484.5 0,-1478.5 0,-1472.5 0,-1472.5 0,-1375.5 0,-1375.5 0,-1369.5 6,-1363.5 12,-1363.5"/>
<text text-anchor="middle" x="122" y="-1469.3" font-family="Times,serif" font-size="14.00">Level</text>
<polyline fill="none" stroke="black" points="0,-1461.5 244,-1461.5 "/>
<text text-anchor="start" x="8" y="-1446.3" font-family="Times,serif" font-size="14.00">id :integer</text>
<text text-anchor="start" x="8" y="-1431.3" font-family="Times,serif" font-size="14.00">name_translations :hstore</text>
<text text-anchor="start" x="8" y="-1416.3" font-family="Times,serif" font-size="14.00">value :integer</text>
<text text-anchor="start" x="8" y="-1401.3" font-family="Times,serif" font-size="14.00">is_active :boolean</text>
<text text-anchor="start" x="8" y="-1386.3" font-family="Times,serif" font-size="14.00">created_at :timestamp without time zone</text>
<text text-anchor="start" x="8" y="-1371.3" font-family="Times,serif" font-size="14.00">updated_at :timestamp without time zone</text>
</g>
<!-- WorkshopSession -->
<g id="node8" class="node"><title>WorkshopSession</title>
<path fill="none" stroke="black" d="M486,-333.5C486,-333.5 706,-333.5 706,-333.5 712,-333.5 718,-339.5 718,-345.5 718,-345.5 718,-592.5 718,-592.5 718,-598.5 712,-604.5 706,-604.5 706,-604.5 486,-604.5 486,-604.5 480,-604.5 474,-598.5 474,-592.5 474,-592.5 474,-345.5 474,-345.5 474,-339.5 480,-333.5 486,-333.5"/>
<text text-anchor="middle" x="596" y="-589.3" font-family="Times,serif" font-size="14.00">WorkshopSession</text>
<polyline fill="none" stroke="black" points="474,-581.5 718,-581.5 "/>
<text text-anchor="start" x="482" y="-566.3" font-family="Times,serif" font-size="14.00">id :integer</text>
<text text-anchor="start" x="482" y="-551.3" font-family="Times,serif" font-size="14.00">title_translations :hstore</text>
<text text-anchor="start" x="482" y="-536.3" font-family="Times,serif" font-size="14.00">subtitle_translations :hstore</text>
<text text-anchor="start" x="482" y="-521.3" font-family="Times,serif" font-size="14.00">description_translations :hstore</text>
<text text-anchor="start" x="482" y="-506.3" font-family="Times,serif" font-size="14.00">starts_at :timestamp without time zone</text>
<text text-anchor="start" x="482" y="-491.3" font-family="Times,serif" font-size="14.00">ends_at :timestamp without time zone</text>
<text text-anchor="start" x="482" y="-476.3" font-family="Times,serif" font-size="14.00">level_id :integer</text>
<text text-anchor="start" x="482" y="-461.3" font-family="Times,serif" font-size="14.00">main_image :character varying</text>
<text text-anchor="start" x="482" y="-446.3" font-family="Times,serif" font-size="14.00">more_images :character varying</text>
<text text-anchor="start" x="482" y="-431.3" font-family="Times,serif" font-size="14.00">tutor_id :integer</text>
<text text-anchor="start" x="482" y="-416.3" font-family="Times,serif" font-size="14.00">workshop_id :integer</text>
<text text-anchor="start" x="482" y="-401.3" font-family="Times,serif" font-size="14.00">venue_id :integer</text>
<text text-anchor="start" x="482" y="-386.3" font-family="Times,serif" font-size="14.00">minimum_participation_count :integer</text>
<text text-anchor="start" x="482" y="-371.3" font-family="Times,serif" font-size="14.00">maximum_participation_count :integer</text>
<text text-anchor="start" x="482" y="-356.3" font-family="Times,serif" font-size="14.00">created_at :timestamp without time zone</text>
<text text-anchor="start" x="482" y="-341.3" font-family="Times,serif" font-size="14.00">updated_at :timestamp without time zone</text>
</g>
<!-- Level&#45;&gt;WorkshopSession -->
<g id="edge2" class="edge"><title>Level&#45;&gt;WorkshopSession</title>
<path fill="none" stroke="#102ff7" d="M124.598,-1355.17C127.299,-1316.51 132.801,-1267.46 144,-1225 215.9,-952.393 226.705,-868.928 394,-642 414.399,-614.33 440.072,-588.175 466.211,-565.003"/>
<ellipse fill="none" stroke="#102ff7" cx="124.327" cy="-1359.26" rx="4" ry="4"/>
<polygon fill="#102ff7" stroke="#102ff7" points="466.431,-564.811 476.922,-561.618 470.195,-561.52 473.96,-558.23 473.96,-558.23 473.96,-558.23 470.195,-561.52 470.999,-554.842 466.431,-564.811 466.431,-564.811"/>
</g>
<!-- Workshop -->
<g id="node11" class="node"><title>Workshop</title>
<path fill="none" stroke="black" d="M326,-920.5C326,-920.5 546,-920.5 546,-920.5 552,-920.5 558,-926.5 558,-932.5 558,-932.5 558,-1194.5 558,-1194.5 558,-1200.5 552,-1206.5 546,-1206.5 546,-1206.5 326,-1206.5 326,-1206.5 320,-1206.5 314,-1200.5 314,-1194.5 314,-1194.5 314,-932.5 314,-932.5 314,-926.5 320,-920.5 326,-920.5"/>
<text text-anchor="middle" x="436" y="-1191.3" font-family="Times,serif" font-size="14.00">Workshop</text>
<polyline fill="none" stroke="black" points="314,-1183.5 558,-1183.5 "/>
<text text-anchor="start" x="322" y="-1168.3" font-family="Times,serif" font-size="14.00">id :integer</text>
<text text-anchor="start" x="322" y="-1153.3" font-family="Times,serif" font-size="14.00">title_translations :hstore</text>
<text text-anchor="start" x="322" y="-1138.3" font-family="Times,serif" font-size="14.00">subtitle_translations :hstore</text>
<text text-anchor="start" x="322" y="-1123.3" font-family="Times,serif" font-size="14.00">description_translations :hstore</text>
<text text-anchor="start" x="322" y="-1108.3" font-family="Times,serif" font-size="14.00">category_id :integer</text>
<text text-anchor="start" x="322" y="-1093.3" font-family="Times,serif" font-size="14.00">offered_on :date</text>
<text text-anchor="start" x="322" y="-1078.3" font-family="Times,serif" font-size="14.00">fees :double precision</text>
<text text-anchor="start" x="322" y="-1063.3" font-family="Times,serif" font-size="14.00">provider_id :integer</text>
<text text-anchor="start" x="322" y="-1048.3" font-family="Times,serif" font-size="14.00">main_image :character varying</text>
<text text-anchor="start" x="322" y="-1033.3" font-family="Times,serif" font-size="14.00">more_images :character varying</text>
<text text-anchor="start" x="322" y="-1018.3" font-family="Times,serif" font-size="14.00">is_recurring :boolean</text>
<text text-anchor="start" x="322" y="-1003.3" font-family="Times,serif" font-size="14.00">recurrence_type :integer</text>
<text text-anchor="start" x="322" y="-988.3" font-family="Times,serif" font-size="14.00">is_approved :boolean</text>
<text text-anchor="start" x="322" y="-973.3" font-family="Times,serif" font-size="14.00">minimum_registration_count :integer</text>
<text text-anchor="start" x="322" y="-958.3" font-family="Times,serif" font-size="14.00">maximum_registration_count :integer</text>
<text text-anchor="start" x="322" y="-943.3" font-family="Times,serif" font-size="14.00">created_at :timestamp without time zone</text>
<text text-anchor="start" x="322" y="-928.3" font-family="Times,serif" font-size="14.00">updated_at :timestamp without time zone</text>
</g>
<!-- Level&#45;&gt;Workshop -->
<g id="edge3" class="edge"><title>Level&#45;&gt;Workshop</title>
<path fill="none" stroke="#fb31a1" d="M119.72,-1353.31C121.659,-1312.63 130.022,-1262.15 156,-1225 192.042,-1173.45 250.314,-1136.25 304.39,-1110.73"/>
<polygon fill="#fb31a1" stroke="#fb31a1" points="119.716,-1353.44 114.862,-1363.27 119.538,-1358.43 119.359,-1363.43 119.359,-1363.43 119.359,-1363.43 119.538,-1358.43 123.856,-1363.59 119.716,-1353.44 119.716,-1353.44"/>
<polygon fill="#fb31a1" stroke="#fb31a1" points="304.65,-1110.61 315.615,-1110.5 309.189,-1108.51 313.728,-1106.41 313.728,-1106.41 313.728,-1106.41 309.189,-1108.51 311.841,-1102.33 304.65,-1110.61 304.65,-1110.61"/>
</g>
<!-- Booking -->
<g id="node4" class="node"><title>Booking</title>
<path fill="none" stroke="black" d="M1113,-1635C1113,-1635 1333,-1635 1333,-1635 1339,-1635 1345,-1641 1345,-1647 1345,-1647 1345,-1714 1345,-1714 1345,-1720 1339,-1726 1333,-1726 1333,-1726 1113,-1726 1113,-1726 1107,-1726 1101,-1720 1101,-1714 1101,-1714 1101,-1647 1101,-1647 1101,-1641 1107,-1635 1113,-1635"/>
<text text-anchor="middle" x="1223" y="-1710.8" font-family="Times,serif" font-size="14.00">Booking</text>
<polyline fill="none" stroke="black" points="1101,-1703 1345,-1703 "/>
<text text-anchor="start" x="1109" y="-1687.8" font-family="Times,serif" font-size="14.00">id :integer</text>
<text text-anchor="start" x="1109" y="-1672.8" font-family="Times,serif" font-size="14.00">dummy :text</text>
<text text-anchor="start" x="1109" y="-1657.8" font-family="Times,serif" font-size="14.00">created_at :timestamp without time zone</text>
<text text-anchor="start" x="1109" y="-1642.8" font-family="Times,serif" font-size="14.00">updated_at :timestamp without time zone</text>
</g>
<!-- Booking&#45;&gt;Registration -->
<g id="edge4" class="edge"><title>Booking&#45;&gt;Registration</title>
<path fill="none" stroke="#82b333" d="M1283.05,-1629.3C1332.32,-1582.18 1394,-1506.84 1394,-1425 1394,-1425 1394,-1425 1394,-468 1394,-401.975 1381.95,-376.182 1332,-333 1269.35,-278.838 1179.84,-252.721 1106.25,-240.14"/>
<ellipse fill="none" stroke="#82b333" cx="1280.02" cy="-1632.16" rx="4.00002" ry="4.00002"/>
<ellipse fill="#82b333" stroke="#82b333" cx="1102.22" cy="-239.472" rx="4.00001" ry="4.00001"/>
</g>
<!-- User -->
<g id="node7" class="node"><title>User</title>
<path fill="none" stroke="black" d="M589.5,-1258.5C589.5,-1258.5 878.5,-1258.5 878.5,-1258.5 884.5,-1258.5 890.5,-1264.5 890.5,-1270.5 890.5,-1270.5 890.5,-1577.5 890.5,-1577.5 890.5,-1583.5 884.5,-1589.5 878.5,-1589.5 878.5,-1589.5 589.5,-1589.5 589.5,-1589.5 583.5,-1589.5 577.5,-1583.5 577.5,-1577.5 577.5,-1577.5 577.5,-1270.5 577.5,-1270.5 577.5,-1264.5 583.5,-1258.5 589.5,-1258.5"/>
<text text-anchor="middle" x="734" y="-1574.3" font-family="Times,serif" font-size="14.00">User</text>
<polyline fill="none" stroke="black" points="577.5,-1566.5 890.5,-1566.5 "/>
<text text-anchor="start" x="585.5" y="-1551.3" font-family="Times,serif" font-size="14.00">id :integer</text>
<text text-anchor="start" x="585.5" y="-1536.3" font-family="Times,serif" font-size="14.00">email :character varying</text>
<text text-anchor="start" x="585.5" y="-1521.3" font-family="Times,serif" font-size="14.00">encrypted_password :character varying</text>
<text text-anchor="start" x="585.5" y="-1506.3" font-family="Times,serif" font-size="14.00">reset_password_token :character varying</text>
<text text-anchor="start" x="585.5" y="-1491.3" font-family="Times,serif" font-size="14.00">reset_password_sent_at :timestamp without time zone</text>
<text text-anchor="start" x="585.5" y="-1476.3" font-family="Times,serif" font-size="14.00">remember_created_at :timestamp without time zone</text>
<text text-anchor="start" x="585.5" y="-1461.3" font-family="Times,serif" font-size="14.00">sign_in_count :integer</text>
<text text-anchor="start" x="585.5" y="-1446.3" font-family="Times,serif" font-size="14.00">current_sign_in_at :timestamp without time zone</text>
<text text-anchor="start" x="585.5" y="-1431.3" font-family="Times,serif" font-size="14.00">last_sign_in_at :timestamp without time zone</text>
<text text-anchor="start" x="585.5" y="-1416.3" font-family="Times,serif" font-size="14.00">current_sign_in_ip :inet</text>
<text text-anchor="start" x="585.5" y="-1401.3" font-family="Times,serif" font-size="14.00">last_sign_in_ip :inet</text>
<text text-anchor="start" x="585.5" y="-1386.3" font-family="Times,serif" font-size="14.00">created_at :timestamp without time zone</text>
<text text-anchor="start" x="585.5" y="-1371.3" font-family="Times,serif" font-size="14.00">updated_at :timestamp without time zone</text>
<text text-anchor="start" x="585.5" y="-1356.3" font-family="Times,serif" font-size="14.00">provider :character varying</text>
<text text-anchor="start" x="585.5" y="-1341.3" font-family="Times,serif" font-size="14.00">uid :character varying</text>
<text text-anchor="start" x="585.5" y="-1326.3" font-family="Times,serif" font-size="14.00">name :character varying</text>
<text text-anchor="start" x="585.5" y="-1311.3" font-family="Times,serif" font-size="14.00">first_name :character varying</text>
<text text-anchor="start" x="585.5" y="-1296.3" font-family="Times,serif" font-size="14.00">locale :character varying</text>
<text text-anchor="start" x="585.5" y="-1281.3" font-family="Times,serif" font-size="14.00">gender :character varying</text>
<text text-anchor="start" x="585.5" y="-1266.3" font-family="Times,serif" font-size="14.00">image :character varying</text>
</g>
<!-- Booking&#45;&gt;User -->
<g id="edge5" class="edge"><title>Booking&#45;&gt;User</title>
<path fill="none" stroke="#193169" d="M1129.99,-1631.09C1064.66,-1597.09 975.501,-1550.69 898.328,-1510.52"/>
<ellipse fill="none" stroke="#193169" cx="1133.71" cy="-1633.03" rx="4.00002" ry="4.00002"/>
<ellipse fill="#193169" stroke="#193169" cx="894.447" cy="-1508.5" rx="4.00002" ry="4.00002"/>
</g>
<!-- Tag -->
<g id="node5" class="node"><title>Tag</title>
<path fill="none" stroke="black" d="M1375,-1627.5C1375,-1627.5 1595,-1627.5 1595,-1627.5 1601,-1627.5 1607,-1633.5 1607,-1639.5 1607,-1639.5 1607,-1721.5 1607,-1721.5 1607,-1727.5 1601,-1733.5 1595,-1733.5 1595,-1733.5 1375,-1733.5 1375,-1733.5 1369,-1733.5 1363,-1727.5 1363,-1721.5 1363,-1721.5 1363,-1639.5 1363,-1639.5 1363,-1633.5 1369,-1627.5 1375,-1627.5"/>
<text text-anchor="middle" x="1485" y="-1718.3" font-family="Times,serif" font-size="14.00">Tag</text>
<polyline fill="none" stroke="black" points="1363,-1710.5 1607,-1710.5 "/>
<text text-anchor="start" x="1371" y="-1695.3" font-family="Times,serif" font-size="14.00">id :integer</text>
<text text-anchor="start" x="1371" y="-1680.3" font-family="Times,serif" font-size="14.00">text :character varying</text>
<text text-anchor="start" x="1371" y="-1665.3" font-family="Times,serif" font-size="14.00">lang :integer</text>
<text text-anchor="start" x="1371" y="-1650.3" font-family="Times,serif" font-size="14.00">created_at :timestamp without time zone</text>
<text text-anchor="start" x="1371" y="-1635.3" font-family="Times,serif" font-size="14.00">updated_at :timestamp without time zone</text>
</g>
<!-- User&#45;&gt;Registration -->
<g id="edge11" class="edge"><title>User&#45;&gt;Registration</title>
<path fill="none" stroke="#a54f4c" d="M898.778,-1404.95C1027.9,-1381.66 1201.35,-1328.44 1298,-1207 1337.83,-1156.96 1318,-1128.45 1318,-1064.5 1318,-1064.5 1318,-1064.5 1318,-468 1318,-360.845 1203.96,-297.583 1107.59,-263.252"/>
<ellipse fill="none" stroke="#a54f4c" cx="894.666" cy="-1405.67" rx="4.00001" ry="4.00001"/>
<polygon fill="#a54f4c" stroke="#a54f4c" points="1107.46,-263.209 1099.5,-255.668 1102.74,-261.564 1098.02,-259.918 1098.02,-259.918 1098.02,-259.918 1102.74,-261.564 1096.54,-264.167 1107.46,-263.209 1107.46,-263.209"/>
</g>
<!-- User&#45;&gt;Participation -->
<g id="edge13" class="edge"><title>User&#45;&gt;Participation</title>
<path fill="none" stroke="#8bb417" d="M900.648,-1389.19C1015.97,-1360.93 1169.87,-1313.26 1291,-1240 1362.17,-1196.95 1356,-1147.68 1356,-1064.5 1356,-1064.5 1356,-1064.5 1356,-226.5 1356,-115.571 1217.94,-78.6028 1108.25,-66.7372"/>
<polygon fill="#8bb417" stroke="#8bb417" points="900.382,-1389.26 889.603,-1387.24 895.523,-1390.44 890.664,-1391.61 890.664,-1391.61 890.664,-1391.61 895.523,-1390.44 891.725,-1395.99 900.382,-1389.26 900.382,-1389.26"/>
<polygon fill="#8bb417" stroke="#8bb417" points="1108.01,-66.7132 1098.52,-61.2211 1103.04,-66.2055 1098.06,-65.6978 1098.06,-65.6978 1098.06,-65.6978 1103.04,-66.2055 1097.61,-70.1746 1108.01,-66.7132 1108.01,-66.7132"/>
</g>
<!-- User&#45;&gt;WorkshopSession -->
<g id="edge9" class="edge"><title>User&#45;&gt;WorkshopSession</title>
<path fill="none" stroke="#3ce5d9" d="M728.024,-1250.12C720.063,-1037.81 705.101,-698.717 689,-642 686.385,-632.79 683.218,-623.522 679.652,-614.32"/>
<ellipse fill="none" stroke="#3ce5d9" cx="728.178" cy="-1254.25" rx="4" ry="4"/>
<polygon fill="#3ce5d9" stroke="#3ce5d9" points="679.536,-614.034 679.97,-603.077 677.667,-609.397 675.797,-604.759 675.797,-604.759 675.797,-604.759 677.667,-609.397 671.623,-606.442 679.536,-614.034 679.536,-614.034"/>
</g>
<!-- Rating -->
<g id="node10" class="node"><title>Rating</title>
<path fill="none" stroke="black" d="M786,-995.5C786,-995.5 1006,-995.5 1006,-995.5 1012,-995.5 1018,-1001.5 1018,-1007.5 1018,-1007.5 1018,-1119.5 1018,-1119.5 1018,-1125.5 1012,-1131.5 1006,-1131.5 1006,-1131.5 786,-1131.5 786,-1131.5 780,-1131.5 774,-1125.5 774,-1119.5 774,-1119.5 774,-1007.5 774,-1007.5 774,-1001.5 780,-995.5 786,-995.5"/>
<text text-anchor="middle" x="896" y="-1116.3" font-family="Times,serif" font-size="14.00">Rating</text>
<polyline fill="none" stroke="black" points="774,-1108.5 1018,-1108.5 "/>
<text text-anchor="start" x="782" y="-1093.3" font-family="Times,serif" font-size="14.00">id :integer</text>
<text text-anchor="start" x="782" y="-1078.3" font-family="Times,serif" font-size="14.00">value :double precision</text>
<text text-anchor="start" x="782" y="-1063.3" font-family="Times,serif" font-size="14.00">creator_id :integer</text>
<text text-anchor="start" x="782" y="-1048.3" font-family="Times,serif" font-size="14.00">rated_object_type :character varying</text>
<text text-anchor="start" x="782" y="-1033.3" font-family="Times,serif" font-size="14.00">rated_object_id :integer</text>
<text text-anchor="start" x="782" y="-1018.3" font-family="Times,serif" font-size="14.00">created_at :timestamp without time zone</text>
<text text-anchor="start" x="782" y="-1003.3" font-family="Times,serif" font-size="14.00">updated_at :timestamp without time zone</text>
</g>
<!-- User&#45;&gt;Rating -->
<g id="edge6" class="edge"><title>User&#45;&gt;Rating</title>
<path fill="none" stroke="#1641b1" d="M811.682,-1251.09C829.112,-1212.52 846.746,-1173.5 861.351,-1141.18"/>
<ellipse fill="none" stroke="#1641b1" cx="810.009" cy="-1254.79" rx="4.00002" ry="4.00002"/>
<polygon fill="#1641b1" stroke="#1641b1" points="861.466,-1140.92 869.685,-1133.66 863.525,-1136.37 865.584,-1131.81 865.584,-1131.81 865.584,-1131.81 863.525,-1136.37 861.483,-1129.96 861.466,-1140.92 861.466,-1140.92"/>
</g>
<!-- User&#45;&gt;Workshop -->
<g id="edge8" class="edge"><title>User&#45;&gt;Workshop</title>
<path fill="none" stroke="#a6d05c" d="M601.268,-1252.02C593.791,-1242.83 586.334,-1233.78 579,-1225 574.394,-1219.49 569.672,-1213.9 564.878,-1208.27"/>
<ellipse fill="none" stroke="#a6d05c" cx="603.925" cy="-1255.29" rx="4.00002" ry="4.00002"/>
<polygon fill="#a6d05c" stroke="#a6d05c" points="564.799,-1208.18 561.719,-1197.65 561.549,-1204.38 558.299,-1200.58 558.299,-1200.58 558.299,-1200.58 561.549,-1204.38 554.879,-1203.5 564.799,-1208.18 564.799,-1208.18"/>
<text text-anchor="middle" x="640.5" y="-1228.8" font-family="Times,serif" font-size="14.00">workshops_offered</text>
</g>
<!-- User&#45;&gt;Workshop -->
<g id="edge10" class="edge"><title>User&#45;&gt;Workshop</title>
<path fill="none" stroke="#fb717e" d="M567.702,-1360.36C475.774,-1327.16 359.021,-1287.29 253,-1258 215.779,-1247.72 192.313,-1270 168,-1240 116.424,-1176.36 212.909,-1127.85 304.156,-1098.14"/>
<polygon fill="#fb717e" stroke="#fb717e" points="567.964,-1360.46 575.835,-1368.09 572.665,-1362.16 577.367,-1363.86 577.367,-1363.86 577.367,-1363.86 572.665,-1362.16 578.899,-1359.63 567.964,-1360.46 567.964,-1360.46"/>
<polygon fill="#fb717e" stroke="#fb717e" points="304.291,-1098.09 315.185,-1099.34 309.054,-1096.57 313.817,-1095.05 313.817,-1095.05 313.817,-1095.05 309.054,-1096.57 312.448,-1090.77 304.291,-1098.09 304.291,-1098.09"/>
<text text-anchor="middle" x="220" y="-1228.8" font-family="Times,serif" font-size="14.00">workshops_tutored</text>
</g>
<!-- User&#45;&gt;Workshop -->
<g id="edge12" class="edge"><title>User&#45;&gt;Workshop</title>
<path fill="none" stroke="#68db6d" d="M567.531,-1399.67C470.434,-1376.58 355.493,-1330.76 295,-1240 276.355,-1212.03 286.155,-1183.04 307.39,-1156.88"/>
<polygon fill="#68db6d" stroke="#68db6d" points="567.726,-1399.72 576.454,-1406.35 572.598,-1400.84 577.469,-1401.97 577.469,-1401.97 577.469,-1401.97 572.598,-1400.84 578.484,-1397.59 567.726,-1399.72 567.726,-1399.72"/>
<polygon fill="#68db6d" stroke="#68db6d" points="307.466,-1156.79 317.405,-1152.16 310.732,-1153 313.997,-1149.22 313.997,-1149.22 313.997,-1149.22 310.732,-1153 310.589,-1146.28 307.466,-1156.79 307.466,-1156.79"/>
<text text-anchor="middle" x="354.5" y="-1228.8" font-family="Times,serif" font-size="14.00">workshops_registered</text>
</g>
<!-- Comment -->
<g id="node13" class="node"><title>Comment</title>
<path fill="none" stroke="black" d="M1048.5,-988C1048.5,-988 1277.5,-988 1277.5,-988 1283.5,-988 1289.5,-994 1289.5,-1000 1289.5,-1000 1289.5,-1127 1289.5,-1127 1289.5,-1133 1283.5,-1139 1277.5,-1139 1277.5,-1139 1048.5,-1139 1048.5,-1139 1042.5,-1139 1036.5,-1133 1036.5,-1127 1036.5,-1127 1036.5,-1000 1036.5,-1000 1036.5,-994 1042.5,-988 1048.5,-988"/>
<text text-anchor="middle" x="1163" y="-1123.8" font-family="Times,serif" font-size="14.00">Comment</text>
<polyline fill="none" stroke="black" points="1036.5,-1116 1289.5,-1116 "/>
<text text-anchor="start" x="1044.5" y="-1100.8" font-family="Times,serif" font-size="14.00">id :integer</text>
<text text-anchor="start" x="1044.5" y="-1085.8" font-family="Times,serif" font-size="14.00">text :text</text>
<text text-anchor="start" x="1044.5" y="-1070.8" font-family="Times,serif" font-size="14.00">commenter_id :integer</text>
<text text-anchor="start" x="1044.5" y="-1055.8" font-family="Times,serif" font-size="14.00">lang :integer</text>
<text text-anchor="start" x="1044.5" y="-1040.8" font-family="Times,serif" font-size="14.00">commented_object_type :character varying</text>
<text text-anchor="start" x="1044.5" y="-1025.8" font-family="Times,serif" font-size="14.00">commented_object_id :integer</text>
<text text-anchor="start" x="1044.5" y="-1010.8" font-family="Times,serif" font-size="14.00">created_at :timestamp without time zone</text>
<text text-anchor="start" x="1044.5" y="-995.8" font-family="Times,serif" font-size="14.00">updated_at :timestamp without time zone</text>
</g>
<!-- User&#45;&gt;Comment -->
<g id="edge7" class="edge"><title>User&#45;&gt;Comment</title>
<path fill="none" stroke="#0c1246" d="M897.385,-1310.29C940.701,-1278.35 986.624,-1242.56 1027,-1207 1048.14,-1188.38 1069.76,-1166.99 1089.36,-1146.53"/>
<ellipse fill="none" stroke="#0c1246" cx="893.958" cy="-1312.81" rx="4.00002" ry="4.00002"/>
<polygon fill="#0c1246" stroke="#0c1246" points="1089.59,-1146.29 1099.75,-1142.15 1093.04,-1142.67 1096.49,-1139.05 1096.49,-1139.05 1096.49,-1139.05 1093.04,-1142.67 1093.23,-1135.95 1089.59,-1146.29 1089.59,-1146.29"/>
</g>
<!-- WorkshopSession&#45;&gt;Registration -->
<g id="edge15" class="edge"><title>WorkshopSession&#45;&gt;Registration</title>
<path fill="none" stroke="#000ac6" d="M714.308,-327.017C720.093,-322.403 725.998,-318.038 732,-314 765.732,-291.306 806.139,-273.968 844.274,-261.036"/>
<polygon fill="#000ac6" stroke="#000ac6" points="714.212,-327.097 703.633,-329.985 710.353,-330.277 706.495,-333.457 706.495,-333.457 706.495,-333.457 710.353,-330.277 709.358,-336.93 714.212,-327.097 714.212,-327.097"/>
<polygon fill="#000ac6" stroke="#000ac6" points="844.422,-260.987 855.33,-262.115 849.169,-259.415 853.915,-257.843 853.915,-257.843 853.915,-257.843 849.169,-259.415 852.5,-253.571 844.422,-260.987 844.422,-260.987"/>
</g>
<!-- WorkshopSession&#45;&gt;Participation -->
<g id="edge14" class="edge"><title>WorkshopSession&#45;&gt;Participation</title>
<path fill="none" stroke="#4ab574" d="M697.248,-327.142C739.944,-271.987 791.997,-209.878 845,-159 856.053,-148.39 868.29,-137.929 880.716,-128.029"/>
<ellipse fill="none" stroke="#4ab574" cx="694.796" cy="-330.32" rx="4.00002" ry="4.00002"/>
<polygon fill="#4ab574" stroke="#4ab574" points="881.032,-127.782 891.677,-125.149 884.965,-124.695 888.899,-121.609 888.899,-121.609 888.899,-121.609 884.965,-124.695 886.121,-118.068 881.032,-127.782 881.032,-127.782"/>
</g>
<!-- WorkshopSession&#45;&gt;User -->
<g id="edge16" class="edge"><title>WorkshopSession&#45;&gt;User</title>
<path fill="none" stroke="#f2606f" d="M700.607,-613.577C705.531,-622.981 710.055,-632.495 714,-642 756.475,-744.326 749.734,-776.685 760,-887 766.295,-954.637 756.981,-1119.14 747.799,-1248.21"/>
<polygon fill="#f2606f" stroke="#f2606f" points="700.512,-613.402 699.729,-602.464 698.14,-609 695.768,-604.599 695.768,-604.599 695.768,-604.599 698.14,-609 691.807,-606.733 700.512,-613.402 700.512,-613.402"/>
<polygon fill="#f2606f" stroke="#f2606f" points="747.797,-1248.24 742.594,-1257.9 747.44,-1253.23 747.082,-1258.22 747.082,-1258.22 747.082,-1258.22 747.44,-1253.23 751.571,-1258.54 747.797,-1248.24 747.797,-1248.24"/>
<text text-anchor="middle" x="794" y="-890.8" font-family="Times,serif" font-size="14.00">participants</text>
</g>
<!-- ApplicationRecord -->
<g id="node9" class="node"><title>ApplicationRecord</title>
<ellipse fill="none" stroke="black" cx="1702" cy="-1680.5" rx="77.1866" ry="18"/>
<text text-anchor="middle" x="1702" y="-1676.8" font-family="Times,serif" font-size="14.00">ApplicationRecord</text>
</g>
<!-- Workshop&#45;&gt;Registration -->
<g id="edge20" class="edge"><title>Workshop&#45;&gt;Registration</title>
<path fill="none" stroke="#2e679d" d="M564.968,-982.916C608.465,-951.455 654.642,-912.406 689,-869 829.963,-690.915 917.803,-432.609 955.149,-305.308"/>
<ellipse fill="none" stroke="#2e679d" cx="561.543" cy="-985.371" rx="4.00002" ry="4.00002"/>
<polygon fill="#2e679d" stroke="#2e679d" points="955.171,-305.231 962.286,-296.886 956.568,-300.43 957.965,-295.629 957.965,-295.629 957.965,-295.629 956.568,-300.43 953.644,-294.372 955.171,-305.231 955.171,-305.231"/>
</g>
<!-- Workshop&#45;&gt;User -->
<g id="edge19" class="edge"><title>Workshop&#45;&gt;User</title>
<path fill="none" stroke="#1d036a" d="M427.01,-1216.44C429.534,-1224.64 432.815,-1232.55 437,-1240 466.249,-1292.03 516.991,-1331.12 568.345,-1359.52"/>
<polygon fill="#1d036a" stroke="#1d036a" points="426.986,-1216.35 428.73,-1205.52 425.686,-1211.52 424.385,-1206.69 424.385,-1206.69 424.385,-1206.69 425.686,-1211.52 420.04,-1207.86 426.986,-1216.35 426.986,-1216.35"/>
<polygon fill="#1d036a" stroke="#1d036a" points="568.464,-1359.59 575.118,-1368.3 572.862,-1361.96 577.259,-1364.34 577.259,-1364.34 577.259,-1364.34 572.862,-1361.96 579.401,-1360.39 568.464,-1359.59 568.464,-1359.59"/>
<text text-anchor="middle" x="452.5" y="-1228.8" font-family="Times,serif" font-size="14.00">tutors</text>
</g>
<!-- Workshop&#45;&gt;User -->
<g id="edge21" class="edge"><title>Workshop&#45;&gt;User</title>
<path fill="none" stroke="#d7c529" d="M472.784,-1215.93C477.022,-1224.35 481.743,-1232.45 487,-1240 509.038,-1271.67 538.325,-1300.04 569.01,-1324.46"/>
<polygon fill="#d7c529" stroke="#d7c529" points="472.677,-1215.71 472.433,-1204.74 470.524,-1211.2 468.371,-1206.68 468.371,-1206.68 468.371,-1206.68 470.524,-1211.2 464.31,-1208.62 472.677,-1215.71 472.677,-1215.71"/>
<polygon fill="#d7c529" stroke="#d7c529" points="569.386,-1324.75 574.495,-1334.46 573.326,-1327.83 577.266,-1330.91 577.266,-1330.91 577.266,-1330.91 573.326,-1327.83 580.036,-1327.36 569.386,-1324.75 569.386,-1324.75"/>
<text text-anchor="middle" x="531" y="-1228.8" font-family="Times,serif" font-size="14.00">registered_users</text>
</g>
<!-- Workshop&#45;&gt;WorkshopSession -->
<g id="edge17" class="edge"><title>Workshop&#45;&gt;WorkshopSession</title>
<path fill="none" stroke="#54e196" d="M404.308,-912.121C393.788,-829.457 392.316,-726.786 427,-642 436.515,-618.74 450.861,-596.93 467.248,-577.171"/>
<ellipse fill="none" stroke="#54e196" cx="404.831" cy="-916.092" rx="4.00001" ry="4.00001"/>
<polygon fill="#54e196" stroke="#54e196" points="467.381,-577.015 477.297,-572.334 470.628,-573.213 473.876,-569.411 473.876,-569.411 473.876,-569.411 470.628,-573.213 470.454,-566.489 467.381,-577.015 467.381,-577.015"/>
</g>
<!-- Venue -->
<g id="node14" class="node"><title>Venue</title>
<path fill="none" stroke="black" d="M448,-642.5C448,-642.5 668,-642.5 668,-642.5 674,-642.5 680,-648.5 680,-654.5 680,-654.5 680,-856.5 680,-856.5 680,-862.5 674,-868.5 668,-868.5 668,-868.5 448,-868.5 448,-868.5 442,-868.5 436,-862.5 436,-856.5 436,-856.5 436,-654.5 436,-654.5 436,-648.5 442,-642.5 448,-642.5"/>
<text text-anchor="middle" x="558" y="-853.3" font-family="Times,serif" font-size="14.00">Venue</text>
<polyline fill="none" stroke="black" points="436,-845.5 680,-845.5 "/>
<text text-anchor="start" x="444" y="-830.3" font-family="Times,serif" font-size="14.00">id :integer</text>
<text text-anchor="start" x="444" y="-815.3" font-family="Times,serif" font-size="14.00">street :character varying</text>
<text text-anchor="start" x="444" y="-800.3" font-family="Times,serif" font-size="14.00">house_number :character varying</text>
<text text-anchor="start" x="444" y="-785.3" font-family="Times,serif" font-size="14.00">city :character varying</text>
<text text-anchor="start" x="444" y="-770.3" font-family="Times,serif" font-size="14.00">state :character varying</text>
<text text-anchor="start" x="444" y="-755.3" font-family="Times,serif" font-size="14.00">zip :character varying</text>
<text text-anchor="start" x="444" y="-740.3" font-family="Times,serif" font-size="14.00">country_alpha2 :character varying</text>
<text text-anchor="start" x="444" y="-725.3" font-family="Times,serif" font-size="14.00">longitude :double precision</text>
<text text-anchor="start" x="444" y="-710.3" font-family="Times,serif" font-size="14.00">latitude :double precision</text>
<text text-anchor="start" x="444" y="-695.3" font-family="Times,serif" font-size="14.00">room_number :character varying</text>
<text text-anchor="start" x="444" y="-680.3" font-family="Times,serif" font-size="14.00">extra_infomation :character varying</text>
<text text-anchor="start" x="444" y="-665.3" font-family="Times,serif" font-size="14.00">created_at :timestamp without time zone</text>
<text text-anchor="start" x="444" y="-650.3" font-family="Times,serif" font-size="14.00">updated_at :timestamp without time zone</text>
</g>
<!-- Workshop&#45;&gt;Venue -->
<g id="edge18" class="edge"><title>Workshop&#45;&gt;Venue</title>
<path fill="none" stroke="#c222aa" d="M496.442,-910.898C500.834,-899.883 505.23,-888.858 509.538,-878.052"/>
<polygon fill="#c222aa" stroke="#c222aa" points="496.418,-910.961 488.534,-918.583 494.566,-915.605 492.714,-920.25 492.714,-920.25 492.714,-920.25 494.566,-915.605 496.894,-921.917 496.418,-910.961 496.418,-910.961"/>
<polygon fill="#c222aa" stroke="#c222aa" points="509.596,-877.906 517.48,-870.284 511.448,-873.262 513.3,-868.617 513.3,-868.617 513.3,-868.617 511.448,-873.262 509.12,-866.951 509.596,-877.906 509.596,-877.906"/>
</g>
<!-- Category -->
<g id="node12" class="node"><title>Category</title>
<path fill="none" stroke="black" d="M1809,-1627.5C1809,-1627.5 2029,-1627.5 2029,-1627.5 2035,-1627.5 2041,-1633.5 2041,-1639.5 2041,-1639.5 2041,-1721.5 2041,-1721.5 2041,-1727.5 2035,-1733.5 2029,-1733.5 2029,-1733.5 1809,-1733.5 1809,-1733.5 1803,-1733.5 1797,-1727.5 1797,-1721.5 1797,-1721.5 1797,-1639.5 1797,-1639.5 1797,-1633.5 1803,-1627.5 1809,-1627.5"/>
<text text-anchor="middle" x="1919" y="-1718.3" font-family="Times,serif" font-size="14.00">Category</text>
<polyline fill="none" stroke="black" points="1797,-1710.5 2041,-1710.5 "/>
<text text-anchor="start" x="1805" y="-1695.3" font-family="Times,serif" font-size="14.00">id :integer</text>
<text text-anchor="start" x="1805" y="-1680.3" font-family="Times,serif" font-size="14.00">parent_id :integer</text>
<text text-anchor="start" x="1805" y="-1665.3" font-family="Times,serif" font-size="14.00">name_translations :hstore</text>
<text text-anchor="start" x="1805" y="-1650.3" font-family="Times,serif" font-size="14.00">created_at :timestamp without time zone</text>
<text text-anchor="start" x="1805" y="-1635.3" font-family="Times,serif" font-size="14.00">updated_at :timestamp without time zone</text>
</g>
<!-- Category&#45;&gt;Category -->
<g id="edge22" class="edge"><title>Category&#45;&gt;Category</title>
<path fill="none" stroke="#dfdfc6" d="M2049.51,-1688.93C2055.5,-1686.8 2059,-1683.99 2059,-1680.5 2059,-1677.32 2056.08,-1674.7 2051.01,-1672.64"/>
<ellipse fill="none" stroke="#dfdfc6" cx="2045.26" cy="-1690.09" rx="4.00001" ry="4.00001"/>
<polygon fill="#dfdfc6" stroke="#dfdfc6" points="2051.01,-1672.64 2042.65,-1665.54 2046.2,-1671.25 2041.4,-1669.87 2041.4,-1669.87 2041.4,-1669.87 2046.2,-1671.25 2040.15,-1674.19 2051.01,-1672.64 2051.01,-1672.64"/>
<text text-anchor="middle" x="2099.5" y="-1676.8" font-family="Times,serif" font-size="14.00">sub_categories</text>
</g>
<!-- Venue&#45;&gt;WorkshopSession -->
<g id="edge23" class="edge"><title>Venue&#45;&gt;WorkshopSession</title>
<path fill="none" stroke="#96ca93" d="M574.06,-634.261C574.92,-627.82 575.789,-621.318 576.658,-614.809"/>
<ellipse fill="none" stroke="#96ca93" cx="573.494" cy="-638.502" rx="4.00001" ry="4.00001"/>
<polygon fill="#96ca93" stroke="#96ca93" points="576.7,-614.495 582.485,-605.178 577.362,-609.539 578.024,-604.583 578.024,-604.583 578.024,-604.583 577.362,-609.539 573.564,-603.987 576.7,-614.495 576.7,-614.495"/>
</g>
</g>
</svg>
