<?xml version="1.0" encoding="UTF-8" standalone="no"?>
<!DOCTYPE svg PUBLIC "-//W3C//DTD SVG 1.1//EN"
 "http://www.w3.org/Graphics/SVG/1.1/DTD/svg11.dtd">
<!-- Generated by graphviz version 2.38.0 (20140413.2041)
 -->
<!-- Title: models_diagram Pages: 1 -->
<svg width="1043pt" height="479pt"
 viewBox="0.00 0.00 1042.95 479.00" xmlns="http://www.w3.org/2000/svg" xmlns:xlink="http://www.w3.org/1999/xlink">
<g id="graph0" class="graph" transform="scale(1 1) rotate(0) translate(4 475)">
<title>models_diagram</title>
<polygon fill="none" stroke="none" points="-4,4 -4,-475 1038.95,-475 1038.95,4 -4,4"/>
<!-- _diagram_info -->
<g id="node1" class="node"><title>_diagram_info</title>
<text text-anchor="start" x="8" y="-456.6" font-family="Times,serif" font-size="13.00">Models diagram</text>
<text text-anchor="start" x="8" y="-442.6" font-family="Times,serif" font-size="13.00">Date: Jul 13 2016 &#45; 00:49</text>
<text text-anchor="start" x="8" y="-428.6" font-family="Times,serif" font-size="13.00">Migration version: 20160712171129</text>
<text text-anchor="start" x="8" y="-414.6" font-family="Times,serif" font-size="13.00">Generated by RailRoady 1.5.1</text>
<text text-anchor="start" x="8" y="-400.6" font-family="Times,serif" font-size="13.00">http://railroady.prestonlee.com</text>
</g>
<!-- Level -->
<g id="node2" class="node"><title>Level</title>
<ellipse fill="none" stroke="black" cx="263" cy="-432" rx="30.5947" ry="18"/>
<text text-anchor="middle" x="263" y="-428.3" font-family="Times,serif" font-size="14.00">Level</text>
</g>
<!-- WorkshopSession -->
<g id="node7" class="node"><title>WorkshopSession</title>
<ellipse fill="none" stroke="black" cx="540" cy="-338" rx="74.9875" ry="18"/>
<text text-anchor="middle" x="540" y="-334.3" font-family="Times,serif" font-size="14.00">WorkshopSession</text>
</g>
<!-- Level&#45;&gt;WorkshopSession -->
<g id="edge1" class="edge"><title>Level&#45;&gt;WorkshopSession</title>
<path fill="none" stroke="#45fc75" d="M281.449,-409.518C287.722,-403.373 295.148,-397.207 303,-393 351.878,-366.81 413.021,-353.279 460.96,-346.312"/>
<ellipse fill="none" stroke="#45fc75" cx="278.367" cy="-412.708" rx="4.00002" ry="4.00002"/>
<polygon fill="#45fc75" stroke="#45fc75" points="461.075,-346.296 471.598,-349.38 466.028,-345.609 470.98,-344.922 470.98,-344.922 470.98,-344.922 466.028,-345.609 470.362,-340.465 461.075,-346.296 461.075,-346.296"/>
</g>
<!-- Workshop -->
<g id="node10" class="node"><title>Workshop</title>
<ellipse fill="none" stroke="black" cx="423" cy="-164" rx="48.1917" ry="18"/>
<text text-anchor="middle" x="423" y="-160.3" font-family="Times,serif" font-size="14.00">Workshop</text>
</g>
<!-- Level&#45;&gt;Workshop -->
<g id="edge2" class="edge"><title>Level&#45;&gt;Workshop</title>
<path fill="none" stroke="#5134e3" d="M255.762,-404.24C244.738,-356.99 229.839,-258.276 279,-200 290.513,-186.352 331.872,-177.215 367.329,-171.709"/>
<polygon fill="#5134e3" stroke="#5134e3" points="255.783,-404.326 253.797,-415.111 256.975,-409.182 258.167,-414.038 258.167,-414.038 258.167,-414.038 256.975,-409.182 262.537,-412.965 255.783,-404.326 255.783,-404.326"/>
<polygon fill="#5134e3" stroke="#5134e3" points="367.73,-171.65 378.282,-174.635 372.676,-170.917 377.622,-170.184 377.622,-170.184 377.622,-170.184 372.676,-170.917 376.963,-165.733 367.73,-171.65 367.73,-171.65"/>
</g>
<!-- Booking -->
<g id="node3" class="node"><title>Booking</title>
<ellipse fill="none" stroke="black" cx="994" cy="-338" rx="40.8928" ry="18"/>
<text text-anchor="middle" x="994" y="-334.3" font-family="Times,serif" font-size="14.00">Booking</text>
</g>
<!-- User -->
<g id="node6" class="node"><title>User</title>
<ellipse fill="none" stroke="black" cx="619" cy="-251" rx="27.0966" ry="18"/>
<text text-anchor="middle" x="619" y="-247.3" font-family="Times,serif" font-size="14.00">User</text>
</g>
<!-- Booking&#45;&gt;User -->
<g id="edge4" class="edge"><title>Booking&#45;&gt;User</title>
<path fill="none" stroke="#0af019" d="M950.103,-327.05C874.279,-309.863 720.386,-274.981 652.481,-259.589"/>
<ellipse fill="none" stroke="#0af019" cx="954.482" cy="-328.043" rx="4.00001" ry="4.00001"/>
<ellipse fill="#0af019" stroke="#0af019" cx="648.539" cy="-258.695" rx="4.00001" ry="4.00001"/>
</g>
<!-- WorkshopRegistration -->
<g id="node14" class="node"><title>WorkshopRegistration</title>
<ellipse fill="none" stroke="black" cx="869" cy="-91" rx="90.9839" ry="18"/>
<text text-anchor="middle" x="869" y="-87.3" font-family="Times,serif" font-size="14.00">WorkshopRegistration</text>
</g>
<!-- Booking&#45;&gt;WorkshopRegistration -->
<g id="edge3" class="edge"><title>Booking&#45;&gt;WorkshopRegistration</title>
<path fill="none" stroke="#75c06f" d="M1000.63,-312.037C1006.87,-284.082 1013.69,-237.745 1002,-200 990.368,-162.434 982.463,-151.87 952,-127 943.698,-120.222 933.893,-114.565 923.984,-109.914"/>
<ellipse fill="none" stroke="#75c06f" cx="999.645" cy="-316.2" rx="4.00001" ry="4.00001"/>
<ellipse fill="#75c06f" stroke="#75c06f" cx="920.066" cy="-108.175" rx="4.00002" ry="4.00002"/>
</g>
<!-- Tag -->
<g id="node4" class="node"><title>Tag</title>
<ellipse fill="none" stroke="black" cx="339" cy="-432" rx="27" ry="18"/>
<text text-anchor="middle" x="339" y="-428.3" font-family="Times,serif" font-size="14.00">Tag</text>
</g>
<!-- Participation -->
<g id="node5" class="node"><title>Participation</title>
<ellipse fill="none" stroke="black" cx="869" cy="-18" rx="55.7903" ry="18"/>
<text text-anchor="middle" x="869" y="-14.3" font-family="Times,serif" font-size="14.00">Participation</text>
</g>
<!-- User&#45;&gt;Participation -->
<g id="edge12" class="edge"><title>User&#45;&gt;Participation</title>
<path fill="none" stroke="#2fc2ec" d="M581.351,-248.81C498.548,-245.806 306.409,-236.563 287,-215 272.569,-198.968 195.619,-177.693 306,-73 341.447,-39.3796 662.047,-25.3969 803.009,-20.838"/>
<polygon fill="#2fc2ec" stroke="#2fc2ec" points="581.592,-248.819 591.428,-253.667 586.589,-248.994 591.586,-249.17 591.586,-249.17 591.586,-249.17 586.589,-248.994 591.744,-244.673 581.592,-248.819 581.592,-248.819"/>
<polygon fill="#2fc2ec" stroke="#2fc2ec" points="803.252,-20.8304 813.389,-25.011 808.249,-20.6718 813.247,-20.5133 813.247,-20.5133 813.247,-20.5133 808.249,-20.6718 813.104,-16.0156 803.252,-20.8304 803.252,-20.8304"/>
</g>
<!-- User&#45;&gt;WorkshopSession -->
<g id="edge8" class="edge"><title>User&#45;&gt;WorkshopSession</title>
<path fill="none" stroke="#3d07e9" d="M616.016,-277.224C614.003,-285.787 610.634,-294.96 605,-302 600.265,-307.916 594.25,-312.967 587.799,-317.236"/>
<ellipse fill="none" stroke="#3d07e9" cx="616.797" cy="-273.216" rx="4.00001" ry="4.00001"/>
<polygon fill="#3d07e9" stroke="#3d07e9" points="587.406,-317.47 576.511,-318.713 583.108,-320.025 578.811,-322.581 578.811,-322.581 578.811,-322.581 583.108,-320.025 581.111,-326.448 587.406,-317.47 587.406,-317.47"/>
</g>
<!-- Rating -->
<g id="node9" class="node"><title>Rating</title>
<ellipse fill="none" stroke="black" cx="727" cy="-164" rx="34.394" ry="18"/>
<text text-anchor="middle" x="727" y="-160.3" font-family="Times,serif" font-size="14.00">Rating</text>
</g>
<!-- User&#45;&gt;Rating -->
<g id="edge5" class="edge"><title>User&#45;&gt;Rating</title>
<path fill="none" stroke="#cdb95a" d="M654.532,-249.618C709.978,-248.185 813.113,-241.874 836,-215 840.322,-209.924 840.036,-205.306 836,-200 817.851,-176.142 799.46,-191.413 771,-182 768.393,-181.138 765.714,-180.21 763.027,-179.248"/>
<ellipse fill="none" stroke="#cdb95a" cx="650.387" cy="-249.712" rx="4" ry="4"/>
<polygon fill="#cdb95a" stroke="#cdb95a" points="762.75,-179.146 754.934,-171.454 758.061,-177.41 753.372,-175.674 753.372,-175.674 753.372,-175.674 758.061,-177.41 751.81,-179.895 762.75,-179.146 762.75,-179.146"/>
</g>
<!-- User&#45;&gt;Workshop -->
<g id="edge7" class="edge"><title>User&#45;&gt;Workshop</title>
<path fill="none" stroke="#962170" d="M653.179,-243.588C685.739,-236.021 727.162,-221.659 708,-200 693.201,-183.273 559.465,-172.813 480.559,-168.043"/>
<ellipse fill="none" stroke="#962170" cx="649.04" cy="-244.503" rx="4.00001" ry="4.00001"/>
<polygon fill="#962170" stroke="#962170" points="480.261,-168.026 470.544,-162.943 475.27,-167.731 470.278,-167.435 470.278,-167.435 470.278,-167.435 475.27,-167.731 470.012,-171.927 480.261,-168.026 480.261,-168.026"/>
<text text-anchor="middle" x="764.5" y="-203.8" font-family="Times,serif" font-size="14.00">workshops_offered</text>
</g>
<!-- User&#45;&gt;Workshop -->
<g id="edge9" class="edge"><title>User&#45;&gt;Workshop</title>
<path fill="none" stroke="#cd50d5" d="M581.365,-248.679C500.451,-245.451 315.711,-235.855 297,-215 273.015,-188.266 322.405,-175.638 366.211,-169.797"/>
<polygon fill="#cd50d5" stroke="#cd50d5" points="581.619,-248.689 591.437,-253.572 586.615,-248.882 591.612,-249.076 591.612,-249.076 591.612,-249.076 586.615,-248.882 591.786,-244.579 581.619,-248.689 581.619,-248.689"/>
<polygon fill="#cd50d5" stroke="#cd50d5" points="366.384,-169.776 376.859,-173.019 371.346,-169.164 376.308,-168.553 376.308,-168.553 376.308,-168.553 371.346,-169.164 375.758,-164.086 366.384,-169.776 366.384,-169.776"/>
<text text-anchor="middle" x="349" y="-203.8" font-family="Times,serif" font-size="14.00">workshops_tutored</text>
</g>
<!-- User&#45;&gt;Workshop -->
<g id="edge11" class="edge"><title>User&#45;&gt;Workshop</title>
<path fill="none" stroke="#ddaac0" d="M581.529,-248.73C530.693,-246.137 443.91,-238.324 424,-215 418.689,-208.778 417.152,-200.363 417.33,-192.213"/>
<polygon fill="#ddaac0" stroke="#ddaac0" points="581.805,-248.743 591.585,-253.704 586.8,-248.976 591.794,-249.208 591.794,-249.208 591.794,-249.208 586.8,-248.976 592.004,-244.713 581.805,-248.743 581.805,-248.743"/>
<polygon fill="#ddaac0" stroke="#ddaac0" points="417.335,-192.166 422.797,-182.657 417.826,-187.19 418.318,-182.215 418.318,-182.215 418.318,-182.215 417.826,-187.19 413.84,-181.772 417.335,-192.166 417.335,-192.166"/>
<text text-anchor="middle" x="483.5" y="-203.8" font-family="Times,serif" font-size="14.00">workshops_registered</text>
</g>
<!-- Comment -->
<g id="node12" class="node"><title>Comment</title>
<ellipse fill="none" stroke="black" cx="826" cy="-164" rx="46.2923" ry="18"/>
<text text-anchor="middle" x="826" y="-160.3" font-family="Times,serif" font-size="14.00">Comment</text>
</g>
<!-- User&#45;&gt;Comment -->
<g id="edge6" class="edge"><title>User&#45;&gt;Comment</title>
<path fill="none" stroke="#86a375" d="M654.791,-250.038C713.47,-249.255 826.121,-243.914 851,-215 857.524,-207.418 854.743,-197.837 849.092,-189.095"/>
<ellipse fill="none" stroke="#86a375" cx="650.542" cy="-250.082" rx="4" ry="4"/>
<polygon fill="#86a375" stroke="#86a375" points="849.045,-189.034 846.591,-178.346 846.025,-185.049 843.004,-181.064 843.004,-181.064 843.004,-181.064 846.025,-185.049 839.418,-183.782 849.045,-189.034 849.045,-189.034"/>
</g>
<!-- User&#45;&gt;WorkshopRegistration -->
<g id="edge10" class="edge"><title>User&#45;&gt;WorkshopRegistration</title>
<path fill="none" stroke="#12e448" d="M654.522,-249.089C714.687,-246.884 833.297,-239.475 866,-215 894.454,-193.705 887.189,-148.134 878.615,-118.838"/>
<ellipse fill="none" stroke="#12e448" cx="650.433" cy="-249.229" rx="4" ry="4"/>
<polygon fill="#12e448" stroke="#12e448" points="878.59,-118.758 879.877,-107.868 877.088,-113.989 875.585,-109.22 875.585,-109.22 875.585,-109.22 877.088,-113.989 871.293,-110.573 878.59,-118.758 878.59,-118.758"/>
</g>
<!-- WorkshopSession&#45;&gt;Participation -->
<g id="edge13" class="edge"><title>WorkshopSession&#45;&gt;Participation</title>
<path fill="none" stroke="#57e7a5" d="M623.365,-337.916C752.954,-337.063 988,-325.398 988,-252 988,-252 988,-252 988,-90 988,-58.4146 956.701,-40.5523 926.206,-30.6447"/>
<ellipse fill="none" stroke="#57e7a5" cx="618.985" cy="-337.938" rx="4" ry="4"/>
<polygon fill="#57e7a5" stroke="#57e7a5" points="925.953,-30.5692 917.665,-23.3893 921.164,-29.1346 916.374,-27.7001 916.374,-27.7001 916.374,-27.7001 921.164,-29.1346 915.083,-32.0109 925.953,-30.5692 925.953,-30.5692"/>
</g>
<!-- WorkshopSession&#45;&gt;User -->
<g id="edge15" class="edge"><title>WorkshopSession&#45;&gt;User</title>
<path fill="none" stroke="#9fe276" d="M532.45,-309.894C531.742,-301.971 532.601,-293.66 537,-287 547.102,-271.705 565.405,-263.071 582.159,-258.208"/>
<polygon fill="#9fe276" stroke="#9fe276" points="532.476,-310.049 529.679,-320.652 533.297,-314.981 534.118,-319.913 534.118,-319.913 534.118,-319.913 533.297,-314.981 538.557,-319.175 532.476,-310.049 532.476,-310.049"/>
<polygon fill="#9fe276" stroke="#9fe276" points="582.61,-258.094 593.408,-260.005 587.457,-256.868 592.304,-255.642 592.304,-255.642 592.304,-255.642 587.457,-256.868 591.201,-251.279 582.61,-258.094 582.61,-258.094"/>
<text text-anchor="middle" x="569" y="-290.8" font-family="Times,serif" font-size="14.00">participants</text>
</g>
<!-- WorkshopSession&#45;&gt;WorkshopRegistration -->
<g id="edge14" class="edge"><title>WorkshopSession&#45;&gt;WorkshopRegistration</title>
<path fill="none" stroke="#74a475" d="M617.4,-328.425C694.684,-316.005 812.285,-286.088 886,-215 914.269,-187.739 910.685,-162.552 894,-127 892.495,-123.793 890.689,-120.573 888.746,-117.455"/>
<polygon fill="#74a475" stroke="#74a475" points="617.124,-328.468 606.554,-325.547 612.183,-329.231 607.241,-329.995 607.241,-329.995 607.241,-329.995 612.183,-329.231 607.928,-334.442 617.124,-328.468 617.124,-328.468"/>
<polygon fill="#74a475" stroke="#74a475" points="888.649,-117.311 886.767,-106.508 885.845,-113.171 883.041,-109.031 883.041,-109.031 883.041,-109.031 885.845,-113.171 879.315,-111.555 888.649,-117.311 888.649,-117.311"/>
</g>
<!-- ApplicationRecord -->
<g id="node8" class="node"><title>ApplicationRecord</title>
<ellipse fill="none" stroke="black" cx="461" cy="-432" rx="77.1866" ry="18"/>
<text text-anchor="middle" x="461" y="-428.3" font-family="Times,serif" font-size="14.00">ApplicationRecord</text>
</g>
<!-- Workshop&#45;&gt;User -->
<g id="edge18" class="edge"><title>Workshop&#45;&gt;User</title>
<path fill="none" stroke="#b6f919" d="M473.581,-176.174C495.469,-181.912 521.048,-189.856 543,-200 543.681,-200.315 570.364,-217.894 591.921,-232.119"/>
<polygon fill="#b6f919" stroke="#b6f919" points="473.503,-176.154 464.918,-169.331 468.657,-174.924 463.811,-173.693 463.811,-173.693 463.811,-173.693 468.657,-174.924 462.703,-178.055 473.503,-176.154 473.503,-176.154"/>
<polygon fill="#b6f919" stroke="#b6f919" points="592.112,-232.245 597.979,-241.509 596.285,-234.999 600.458,-237.753 600.458,-237.753 600.458,-237.753 596.285,-234.999 602.937,-233.998 592.112,-232.245 592.112,-232.245"/>
<text text-anchor="middle" x="578.5" y="-203.8" font-family="Times,serif" font-size="14.00">tutors</text>
</g>
<!-- Workshop&#45;&gt;User -->
<g id="edge20" class="edge"><title>Workshop&#45;&gt;User</title>
<path fill="none" stroke="#d5bd98" d="M479.086,-170.652C522.828,-176.069 579.069,-185.577 597,-200 604.223,-205.81 609.138,-214.473 612.454,-222.964"/>
<polygon fill="#d5bd98" stroke="#d5bd98" points="479.045,-170.647 469.65,-164.991 474.08,-170.053 469.116,-169.459 469.116,-169.459 469.116,-169.459 474.08,-170.053 468.582,-173.928 479.045,-170.647 479.045,-170.647"/>
<polygon fill="#d5bd98" stroke="#d5bd98" points="612.523,-223.172 611.381,-234.079 614.089,-227.921 615.655,-232.669 615.655,-232.669 615.655,-232.669 614.089,-227.921 619.928,-231.26 612.523,-223.172 612.523,-223.172"/>
<text text-anchor="middle" x="652" y="-203.8" font-family="Times,serif" font-size="14.00">registered_users</text>
</g>
<!-- Workshop&#45;&gt;WorkshopSession -->
<g id="edge16" class="edge"><title>Workshop&#45;&gt;WorkshopSession</title>
<path fill="none" stroke="#12844c" d="M366.676,-166.774C320.622,-170.588 266.239,-181.94 287,-215 326.98,-278.665 410.561,-309.895 470.729,-324.667"/>
<ellipse fill="none" stroke="#12844c" cx="370.874" cy="-166.462" rx="4" ry="4"/>
<polygon fill="#12844c" stroke="#12844c" points="470.816,-324.687 479.515,-331.363 475.682,-325.835 480.549,-326.983 480.549,-326.983 480.549,-326.983 475.682,-325.835 481.582,-322.604 470.816,-324.687 470.816,-324.687"/>
</g>
<!-- Venue -->
<g id="node13" class="node"><title>Venue</title>
<ellipse fill="none" stroke="black" cx="349" cy="-91" rx="33.5952" ry="18"/>
<text text-anchor="middle" x="349" y="-87.3" font-family="Times,serif" font-size="14.00">Venue</text>
</g>
<!-- Workshop&#45;&gt;Venue -->
<g id="edge17" class="edge"><title>Workshop&#45;&gt;Venue</title>
<path fill="none" stroke="#8349d9" d="M398.799,-139.781C390.225,-131.553 380.604,-122.322 372.121,-114.184"/>
<polygon fill="#8349d9" stroke="#8349d9" points="398.992,-139.966 403.093,-150.136 402.6,-143.427 406.208,-146.889 406.208,-146.889 406.208,-146.889 402.6,-143.427 409.324,-143.642 398.992,-139.966 398.992,-139.966"/>
<polygon fill="#8349d9" stroke="#8349d9" points="371.929,-114 367.829,-103.829 368.321,-110.538 364.713,-107.076 364.713,-107.076 364.713,-107.076 368.321,-110.538 361.598,-110.323 371.929,-114 371.929,-114"/>
</g>
<!-- Workshop&#45;&gt;WorkshopRegistration -->
<g id="edge19" class="edge"><title>Workshop&#45;&gt;WorkshopRegistration</title>
<path fill="none" stroke="#ed609a" d="M474.605,-154.785C552.249,-142.424 699.693,-118.953 790.653,-104.472"/>
<ellipse fill="none" stroke="#ed609a" cx="470.527" cy="-155.434" rx="4.00001" ry="4.00001"/>
<polygon fill="#ed609a" stroke="#ed609a" points="790.762,-104.455 801.346,-107.327 795.7,-103.669 800.638,-102.883 800.638,-102.883 800.638,-102.883 795.7,-103.669 799.931,-98.4387 790.762,-104.455 790.762,-104.455"/>
</g>
<!-- Category -->
<g id="node11" class="node"><title>Category</title>
<ellipse fill="none" stroke="black" cx="599" cy="-432" rx="42.7926" ry="18"/>
<text text-anchor="middle" x="599" y="-428.3" font-family="Times,serif" font-size="14.00">Category</text>
</g>
<!-- Category&#45;&gt;Category -->
<g id="edge21" class="edge"><title>Category&#45;&gt;Category</title>
<path fill="none" stroke="#625c9e" d="M642.249,-442.292C652.405,-441.444 659.896,-438.014 659.896,-432 659.896,-426.399 653.398,-423.039 644.301,-421.919"/>
<ellipse fill="none" stroke="#625c9e" cx="638.043" cy="-442.366" rx="4" ry="4"/>
<polygon fill="#625c9e" stroke="#625c9e" points="644.038,-421.91 634.2,-417.067 639.041,-421.737 634.044,-421.564 634.044,-421.564 634.044,-421.564 639.041,-421.737 633.888,-426.061 644.038,-421.91 644.038,-421.91"/>
<text text-anchor="middle" x="700.396" y="-428.3" font-family="Times,serif" font-size="14.00">sub_categories</text>
</g>
<!-- Venue&#45;&gt;WorkshopSession -->
<g id="edge22" class="edge"><title>Venue&#45;&gt;WorkshopSession</title>
<path fill="none" stroke="#8f4755" d="M329.563,-113.578C312.473,-134.117 288.834,-166.745 279,-200 269.98,-230.502 276.82,-245.269 298,-269 320.368,-294.063 334.167,-291.268 366,-302 398.407,-312.925 435.42,-320.956 466.953,-326.548"/>
<ellipse fill="none" stroke="#8f4755" cx="332.266" cy="-110.397" rx="4.00002" ry="4.00002"/>
<polygon fill="#8f4755" stroke="#8f4755" points="467.132,-326.579 476.221,-332.714 472.059,-327.429 476.986,-328.279 476.986,-328.279 476.986,-328.279 472.059,-327.429 477.751,-323.845 467.132,-326.579 467.132,-326.579"/>
</g>
<!-- WorkshopRegistration&#45;&gt;Participation -->
<g id="edge23" class="edge"><title>WorkshopRegistration&#45;&gt;Participation</title>
<path fill="none" stroke="#c913c7" d="M869,-64.791C869,-58.832 869,-52.4496 869,-46.3988"/>
<ellipse fill="none" stroke="#c913c7" cx="869" cy="-68.8129" rx="4" ry="4"/>
<polygon fill="#c913c7" stroke="#c913c7" points="869,-46.0288 873.5,-36.0288 869,-41.0288 869,-36.0288 869,-36.0288 869,-36.0288 869,-41.0288 864.5,-36.0289 869,-46.0288 869,-46.0288"/>
</g>
</g>
</svg>
