<?xml version="1.0" encoding="UTF-8" standalone="no"?>
<!DOCTYPE svg PUBLIC "-//W3C//DTD SVG 1.1//EN"
 "http://www.w3.org/Graphics/SVG/1.1/DTD/svg11.dtd">
<!-- Generated by graphviz version 2.38.0 (20140413.2041)
 -->
<!-- Title: models_diagram Pages: 1 -->
<svg width="742pt" height="86pt"
 viewBox="0.00 0.00 741.90 86.00" xmlns="http://www.w3.org/2000/svg" xmlns:xlink="http://www.w3.org/1999/xlink">
<g id="graph0" class="graph" transform="scale(1 1) rotate(0) translate(4 82)">
<title>models_diagram</title>
<polygon fill="none" stroke="none" points="-4,4 -4,-82 737.896,-82 737.896,4 -4,4"/>
<!-- _diagram_info -->
<g id="node1" class="node"><title>_diagram_info</title>
<text text-anchor="start" x="8" y="-63.6" font-family="Times,serif" font-size="13.00">Models diagram</text>
<text text-anchor="start" x="8" y="-49.6" font-family="Times,serif" font-size="13.00">Date: Jul 12 2016 &#45; 09:02</text>
<text text-anchor="start" x="8" y="-35.6" font-family="Times,serif" font-size="13.00">Migration version: 20160711183238</text>
<text text-anchor="start" x="8" y="-21.6" font-family="Times,serif" font-size="13.00">Generated by RailRoady 1.5.1</text>
<text text-anchor="start" x="8" y="-7.6" font-family="Times,serif" font-size="13.00">http://railroady.prestonlee.com</text>
</g>
<!-- Tag -->
<g id="node2" class="node"><title>Tag</title>
<ellipse fill="none" stroke="black" cx="259" cy="-39" rx="27" ry="18"/>
<text text-anchor="middle" x="259" y="-35.3" font-family="Times,serif" font-size="14.00">Tag</text>
</g>
<!-- User -->
<g id="node3" class="node"><title>User</title>
<ellipse fill="none" stroke="black" cx="331" cy="-39" rx="27.0966" ry="18"/>
<text text-anchor="middle" x="331" y="-35.3" font-family="Times,serif" font-size="14.00">User</text>
</g>
<!-- ApplicationRecord -->
<g id="node4" class="node"><title>ApplicationRecord</title>
<ellipse fill="none" stroke="black" cx="454" cy="-39" rx="77.1866" ry="18"/>
<text text-anchor="middle" x="454" y="-35.3" font-family="Times,serif" font-size="14.00">ApplicationRecord</text>
</g>
<!-- Category -->
<g id="node5" class="node"><title>Category</title>
<ellipse fill="none" stroke="black" cx="592" cy="-39" rx="42.7926" ry="18"/>
<text text-anchor="middle" x="592" y="-35.3" font-family="Times,serif" font-size="14.00">Category</text>
</g>
<!-- Category&#45;&gt;Category -->
<g id="edge1" class="edge"><title>Category&#45;&gt;Category</title>
<path fill="none" stroke="#c60401" d="M640.118,-45.2011C647.71,-44.2838 652.896,-42.2168 652.896,-39 652.896,-36.0513 648.538,-34.0687 641.964,-33.0521"/>
<ellipse fill="none" stroke="#c60401" cx="635.818" cy="-45.478" rx="4" ry="4"/>
<polygon fill="#c60401" stroke="#c60401" points="641.797,-33.0392 632.175,-27.7783 636.812,-32.652 631.827,-32.2648 631.827,-32.2648 631.827,-32.2648 636.812,-32.652 631.478,-36.7513 641.797,-33.0392 641.797,-33.0392"/>
<text text-anchor="middle" x="693.396" y="-35.3" font-family="Times,serif" font-size="14.00">sub_categories</text>
</g>
</g>
</svg>
